<?xml version="1.0" encoding="utf-8"?>
<!-- Generator: Adobe Illustrator 16.0.0, SVG Export Plug-In . SVG Version: 6.00 Build 0)  -->
<!DOCTYPE svg PUBLIC "-//W3C//DTD SVG 1.1//EN" "http://www.w3.org/Graphics/SVG/1.1/DTD/svg11.dtd">
<svg version="1.1" id="_x3C_Layer_x3E_" xmlns="http://www.w3.org/2000/svg" xmlns:xlink="http://www.w3.org/1999/xlink" x="0px"
	 y="0px" width="251.698px" height="38px" viewBox="0 0 251.698 38" enable-background="new 0 0 251.698 38" xml:space="preserve">
<g>
	<path fill="#5E5F62" d="M53.566,12.505c-3.878,0-6.036-2.201-6.036-5.447s2.157-5.447,6.036-5.447h0.654
		c3.878,0,6.036,2.201,6.036,5.447s-2.157,5.447-6.036,5.447H53.566z M49.274,14.227h2.963v4.314h13.597v2.44h-16.56V14.227z
		 M54.395,10.152c1.743,0,2.898-1.177,2.898-3.094s-1.155-3.094-2.898-3.094h-1.002c-1.743,0-2.898,1.177-2.898,3.094
		s1.155,3.094,2.898,3.094H54.395z M62.435,1.61h2.963v14.25h-2.963V1.61z"/>
	<path fill="#5E5F62" d="M68.231,11.045c2.746-0.479,4.793-2.462,4.793-4.902V5.206h-4.576V2.852h4.554V1h3.116v1.852h4.314v2.354
		h-4.336v0.937c0,2.396,1.721,4.074,4.445,4.728v2.375c-2.418-0.479-4.598-1.634-5.992-3.138c-1.438,1.722-3.682,2.811-6.319,3.312
		V11.045z M69.974,14.444h2.963v4.096h13.597v2.44h-16.56V14.444z M83.135,8.735h-3.573V6.251h3.573V1.61h2.963v14.25h-2.963V8.735z
		"/>
	<path fill="#5E5F62" d="M88.822,9.847h19.393v2.244H88.822V9.847z M90.238,1.654h2.963v1.395h10.633V1.654h2.963v7.365h-16.56
		V1.654z M90.238,15.904h13.553v-0.741H90.238v-2.157h16.56v4.968H93.245v0.85h13.989v2.157H90.238V15.904z M103.834,6.752V5.314
		H93.201v1.438H103.834z"/>
	<path fill="#5E5F62" d="M109.522,11.83h8.367v-1.286h-6.951V4.987h13.553V3.941h-13.553V1.697h16.56v5.447h-13.553V8.3h13.989
		v2.244h-6.951v1.286h7.932v2.332h-19.393V11.83z M110.72,15.098h16.778v5.971h-2.963v-3.53H110.72V15.098z"/>
	<path fill="#5E5F62" d="M130.331,17.32c1.83-0.719,3.421-3.552,3.421-7.321v-3.77h-3.094V3.746h3.029V1.392h3.116v2.354h2.876
		v2.484h-2.941v3.77c0,3.77,1.176,6.058,3.29,7.125v2.593c-1.961-0.654-3.835-2.135-4.75-4.14c-1.002,2.026-2.92,3.661-4.946,4.336
		V17.32z M141.422,11.895h-3.029V9.236h3.029V1.719h2.789v18.913h-2.789V11.895z M145.845,1.61h2.789v19.458h-2.789V1.61z"/>
	<path fill="#5E5F62" d="M157.066,12.505c-3.878,0-6.036-2.201-6.036-5.447s2.157-5.447,6.036-5.447h0.654
		c3.878,0,6.036,2.201,6.036,5.447s-2.157,5.447-6.036,5.447H157.066z M152.774,14.227h2.963v4.314h13.597v2.44h-16.56V14.227z
		 M157.895,10.152c1.743,0,2.898-1.177,2.898-3.094s-1.155-3.094-2.898-3.094h-1.002c-1.743,0-2.898,1.177-2.898,3.094
		s1.155,3.094,2.898,3.094H157.895z M165.935,1.61h2.963v14.25h-2.963V1.61z"/>
	<path fill="#5E5F62" d="M171.949,3.462h4.641v-2.07h3.138v2.07h4.641v2.484h-12.42V3.462z M172.559,12.178
		c0-3.486,2.244-5.469,5.6-5.469c2.658,0,4.62,1.242,5.317,3.486h3.16V1.61h2.963v19.458h-2.963v-8.215h-2.876v1.809
		c0,3.486-2.245,5.469-5.6,5.469s-5.6-1.983-5.6-5.469V12.178z M175.522,14.728c0,1.787,0.98,2.92,2.636,2.92
		c1.656,0,2.637-1.133,2.637-2.92v-2.615c0-1.787-0.98-2.92-2.637-2.92c-1.656,0-2.636,1.133-2.636,2.92V14.728z"/>
	<path fill="#5E5F62" d="M192.322,17.713h19.393v2.505h-19.393V17.713z M193.957,2.002h2.963v3.704h10.198V2.002h2.963v12.463
		h-16.124V2.002z M207.118,11.982V8.19h-10.198v3.792H207.118z"/>
	<path fill="#5E5F62" d="M212.478,10.544c2.222-0.61,3.835-2.833,3.835-5.709V1.719h3.028v3.116c0,2.876,1.504,4.837,3.617,5.491
		v2.375c-2.049-0.436-3.922-1.656-5.099-3.247c-1.221,1.699-3.16,3.007-5.382,3.464V10.544z M215.092,14.227h2.964v4.314h13.814
		v2.44h-16.778V14.227z M224.113,7.537h-2.701V4.878h2.701V1.719h2.789v13.923h-2.789V7.537z M228.645,1.61h2.789v14.25h-2.789V1.61
		z"/>
	<path fill="#5E5F62" d="M234.484,2.155h11.331v2.484h-8.367v4.903h7.169v2.44h-7.169v5.338h9.544v2.484h-12.508V2.155z
		 M248.735,11.873h-3.138V9.215h3.138V1.61h2.963v19.458h-2.963V11.873z"/>
</g>
<g>
	<g>
		<path fill="#0078C1" d="M17.021,28.2c4.548,3.069,11.683,4.136,18.334,0.475c-4.099,6.932-12.347,10.738-20.612,8.838
			C4.517,35.161-1.866,24.963,0.488,14.741C2.762,4.858,12.362-1.435,22.235,0.281c0,0,3.872,0.675,5.864,4.099
			c0.75,1.237,1.346,2.671,1.737,4.29l0.008,0.037c0.467,2.167,0.476,4.466-0.056,6.768c-0.816,3.555-2.821,6.877-5.43,8.661
			l-0.014,0.015c0.906-0.938,1.574-2.127,1.887-3.485c0.92-3.998-1.572-7.979-5.568-8.896c-3.992-0.919-7.975,1.575-8.897,5.567
			c-0.265,1.159-0.299,2.307-0.079,3.383C11.687,20.719,12.385,25.226,17.021,28.2z"/>
		<path fill="#00B1B0" d="M15.398,25.517c1.708,0.958,3.758,1.387,3.758,1.387c4.657,1.072,9.332-0.094,12.878-2.757l0.022-0.021
			c1.584-1.12,2.983-2.548,4.108-4.271c0.716-1.101,1.281-2.26,1.695-3.449c0.524,4.74-0.477,7.419-0.477,7.419
			c-1.311,1.561-2.681,2.516-2.681,2.516c-3.535,2.608-8.097,3.637-12.715,2.573C21.986,28.913,17.995,28.075,15.398,25.517z"/>
		<path fill="#00B1B0" d="M20.06,26.348c7.28,0.586,14.117-4.695,15.806-11.346c0,0,0.51-2.098,0.526-3.649
			c0,0-1.517-3.971-5.64-7.293c1.6,3.143,2.147,6.845,1.294,10.547c-1.294,5.618-5.47,9.821-10.608,11.406
			c-0.43,0.132-0.915,0.251-1.385,0.327L20.06,26.348z"/>
	</g>
</g>
<text transform="matrix(1 0 0 1 48.8408 38.001)"><tspan x="0" y="0" fill="#989898" font-family="'PlusJakartaSans-Bold'" font-size="14">I</tspan><tspan x="3.696" y="0" fill="#989898" font-family="'PlusJakartaSans-Regular'" font-size="14">ncheon </tspan><tspan x="54.852" y="0" fill="#989898" font-family="'PlusJakartaSans-Bold'" font-size="14">B</tspan><tspan x="64.315" y="0" fill="#989898" font-family="'PlusJakartaSans-Regular'" font-size="14">lockchain </tspan><tspan x="128.701" y="0" fill="#989898" font-family="'PlusJakartaSans-Bold'" font-size="14">H</tspan><tspan x="138.752" y="0" fill="#989898" font-family="'PlusJakartaSans-Regular'" font-size="14">ub </tspan><tspan x="157.862" y="0" fill="#989898" font-family="'PlusJakartaSans-Bold'" font-size="14">C</tspan><tspan x="168.488" y="0" fill="#989898" font-family="'PlusJakartaSans-Regular'" font-size="14">enter</tspan></text>
</svg>
