<?xml version="1.0" encoding="utf-8"?>
<!-- Generator: Adobe Illustrator 16.0.0, SVG Export Plug-In . SVG Version: 6.00 Build 0)  -->
<!DOCTYPE svg PUBLIC "-//W3C//DTD SVG 1.1//EN" "http://www.w3.org/Graphics/SVG/1.1/DTD/svg11.dtd">
<svg version="1.1" id="bg" xmlns="http://www.w3.org/2000/svg" xmlns:xlink="http://www.w3.org/1999/xlink" x="0px" y="0px"
	 width="81px" height="126px" viewBox="0 0 295 474" enable-background="new 0 0 295 474" xml:space="preserve">
<g>
	<g>
		<g>
			<path fill="#666" d="M160.659,118.366v29.999v55.243v4.727V322c64.99,0,117.674-52.982,117.674-118.392v-71.044V111.26V0
				C213.336,0,160.659,52.982,160.659,118.366z"/>
			<path fill="#FF153C" d="M41.84,25.757c33.319,19.018,45.022,19.018,78.336,0c-18.886,33.543-18.886,45.3,0,78.855
				c-33.3-19.015-45.017-19.015-78.336,0C60.726,71.057,60.751,59.3,41.84,25.757z"/>
		</g>
		<path fill="#666" d="M138.401,236.535c0-0.249,0.038-0.513,0.038-0.777c0-0.245-0.038-0.537-0.038-0.786
			c-0.276-30.615-18.024-56.938-43.689-69.598c-10.314-5.072-21.898-8.024-34.194-8.024H20.733v11.071v28.342v6.846v37.668h0.075
			c-0.013,0.786-0.075,1.563-0.075,2.34c0,41.753,32.508,75.812,73.469,78.16V322h44.237v-17.021h-0.038V236.535z"/>
	</g>
</g>
<g>
	<g>
		<path fill="#888" d="M9.085,453.251c1.524,1.929,3.602,3.625,6.22,5.088c2.624,1.464,5.464,2.194,8.519,2.194
			c2.392,0,4.48-0.434,6.272-1.298c1.786-0.861,3.3-2.063,4.533-3.587c1.228-1.531,2.135-3.326,2.734-5.389
			c0.594-2.065,0.902-4.288,0.902-6.686v-51.073h15.728v49.977c0,4.323-0.635,8.376-1.891,12.173
			c-1.264,3.787-3.154,7.063-5.674,9.827c-2.531,2.755-5.702,4.899-9.514,6.43c-3.816,1.527-8.25,2.229-13.289,2.095
			c-4.248-0.197-8.251-1.117-12.004-2.743c-3.748-1.63-7.117-3.876-10.102-6.732L9.085,453.251z"/>
		<path fill="#888" d="M88.644,389.705v15.157H72.915v-15.157H88.644z M88.644,412.852v58.154H72.915v-58.154H88.644z"/>
		<path fill="#888" d="M123.194,419.334c1.391-2.066,3.316-3.66,5.778-4.789c2.455-1.129,5.341-1.693,8.652-1.693h12.358
			l-2.496,12.17h-12.44c-1.53,0-2.974,0.378-4.341,1.141c-1.355,0.773-2.554,1.801-3.578,3.092c-1.03,1.301-1.839,2.785-2.443,4.446
			c-0.594,1.664-0.896,3.396-0.896,5.19v32.115H108.06v-58.154h13.744L123.194,419.334z"/>
		<path fill="#888" d="M171.786,451.854c1.391,3.191,3.515,5.655,6.377,7.381c2.846,1.73,6.4,2.592,10.648,2.592
			c3.985,0,7.61-0.663,10.898-1.993c3.293-1.332,6.255-3.593,8.914-6.781l10.061,7.678c-3.45,4.189-7.605,7.451-12.452,9.775
			c-4.841,2.33-10.124,3.494-15.827,3.494c-4.916,0-9.496-0.748-13.737-2.246c-4.254-1.495-7.954-3.628-11.108-6.38
			c-3.153-2.761-5.638-6.118-7.459-10.075c-1.839-3.957-2.746-8.399-2.746-13.318c0-4.792,0.861-9.162,2.589-13.119
			c1.729-3.956,4.085-7.349,7.069-10.177c2.991-2.827,6.518-5.019,10.602-6.583c4.091-1.565,8.514-2.346,13.296-2.346
			c4.644,0,8.908,0.766,12.796,2.293c3.881,1.533,7.25,3.643,10.106,6.336c2.852,2.694,5.126,5.924,6.825,9.677
			c1.688,3.759,2.636,7.861,2.828,12.324L171.786,451.854z M189.608,421.929c-5.911,0-10.572,1.644-13.994,4.935
			c-3.421,3.293-5.289,7.768-5.62,13.418l35.843-8.577c-1.723-3.456-3.98-5.952-6.768-7.482
			C196.276,422.691,193.123,421.929,189.608,421.929z"/>
	</g>
	<g>
		<path fill="#888" d="M295.503,424.67c-1.368-2.89-3.229-5.354-5.627-7.385c-2.392-2.021-5.173-3.599-8.361-4.733
			c-3.189-1.134-6.604-1.696-10.253-1.696c-3.392,0-6.825,0.617-10.311,1.842c-1.129,0.396-2.112,0.926-3.119,1.426v12.688
			c2.805-2.517,6.087-3.788,9.84-3.788c4.382,0,7.832,1.315,10.357,3.939c2.525,2.63,3.782,6.872,3.782,12.717v31.327h15.733
			v-36.713C297.545,430.776,296.864,427.564,295.503,424.67z"/>
		<polygon fill="#888" points="236.507,471.006 252.241,471.006 252.241,437.49 252.241,417.836 252.241,392.501 
			236.507,392.501 		"/>
	</g>
</g>
</svg>
