<svg width="284" height="64" viewBox="0 0 284 64" fill="none" xmlns="http://www.w3.org/2000/svg">
<g clip-path="url(#clip0_73_9)">
<path d="M136.23 30.54C131.47 30.54 127.6 34.08 127.6 38.44C127.6 42.8 131.47 46.38 136.23 46.38C140.99 46.38 144.86 42.82 144.86 38.44C144.86 34.06 140.99 30.54 136.23 30.54ZM136.23 41.83C134.11 41.83 132.46 40.34 132.46 38.44C132.46 36.54 134.12 35.09 136.23 35.09C138.34 35.09 140 36.56 140 38.44C140 40.32 138.34 41.83 136.23 41.83Z" fill="#888"/>
<path d="M173.45 5.66H157.27V20.53H173.45V5.66ZM168.6 15.84H162.13V10.3H168.6V15.84Z" fill="#888"/>
<path d="M156.1 32.71V45.49H174.63V40.85H160.95V32.71H156.1Z" fill="#888"/>
<path d="M182.509 23.59H138.629V20.73H144.869V16.09H131.619V10.51H145.299V5.87H130.409C128.399 5.87 126.769 7.52 126.769 9.55V20.73H133.829V23.59H118.869V28.27H163.989V35.09H168.839V28.27H182.509V23.59Z" fill="#888"/>
<path d="M228.97 26.64L233.25 24.81L228.03 12.28H231.88V7.64001H218.37V12.28H222.13L222.07 12.43L217 24.81L221.27 26.64L225.12 17.08L228.97 26.64Z" fill="#888"/>
<path d="M246.739 37.71V6.83002H241.929V14.5H239.419V6.83002H234.689V37.71H239.419V19.1H241.929V37.71H246.739Z" fill="#888"/>
<path d="M267.489 12.32V7.67999H255.629C253.619 7.67999 251.989 9.32999 251.989 11.36V26.36H267.069V21.72H256.839V12.31H267.489V12.32Z" fill="#888"/>
<path d="M283.459 13.69H278.099V6.83002H273.239V33.75H278.099V18.37H283.459V13.69Z" fill="#888"/>
<path d="M259.989 31.05V45.49H278.479V40.85H264.849V31.05H259.989Z" fill="#888"/>
<path d="M194.75 22.83H194.73V22.6L194.8 22.58C197.94 21.55 200.05 18.76 200.05 15.65C200.05 14.54 199.81 13.49 199.34 12.55L199.26 12.39H201.8V7.75001H194.73V4.85001H189.88V7.75001H182.85V12.39H185.39L185.31 12.55C184.84 13.5 184.6 14.54 184.6 15.65C184.6 18.76 186.69 21.54 189.81 22.58L189.88 22.6L189.9 22.83H194.75ZM192.32 18.44C190.73 18.44 189.44 17.19 189.44 15.65C189.44 14.11 190.7 12.82 192.32 12.82C193.94 12.82 195.2 14.09 195.2 15.65C195.2 17.21 193.91 18.44 192.32 18.44Z" fill="#888"/>
<path d="M95.29 45.49H113.31V16.39H118.65V11.71H113.3V4.85001H108.46V28.25H95.29V45.49ZM100.09 32.89H108.46V40.85H100.09V32.89Z" fill="#888"/>
<path d="M89.3096 5.70001V22.61H104.85V17.97H94.0996V5.70001H89.3096Z" fill="#888"/>
<path d="M212.149 7.64C207.949 7.64 204.549 11.04 204.549 15.24V30.94H194.759V22.49H189.909V35.6H209.409V15.75C209.409 13.84 210.959 12.29 212.869 12.29H214.309V7.63H212.159L212.149 7.64Z" fill="#888"/>
<path d="M209.159 55.28H214.169V56.34H210.389V58.78H213.819V59.83H210.389V63.36H209.159V55.28Z" fill="#888"/>
<path d="M218.92 63.47C216.82 63.47 215.27 61.9 215.27 59.32C215.27 56.74 216.82 55.17 218.92 55.17C221.02 55.17 222.56 56.74 222.56 59.32C222.56 61.9 221.01 63.47 218.92 63.47ZM218.92 62.34C220.3 62.34 221.34 61.28 221.34 59.32C221.34 57.36 220.3 56.29 218.92 56.3C217.53 56.3 216.49 57.36 216.49 59.32C216.49 61.28 217.53 62.35 218.92 62.34Z" fill="#888"/>
<path d="M230.359 55.28V60.59C230.359 62.29 229.089 63.49 227.159 63.49C225.229 63.49 223.939 62.28 223.949 60.59V55.28H225.179V60.49C225.179 61.58 225.939 62.37 227.169 62.38C228.389 62.38 229.149 61.59 229.149 60.49V55.28H230.379H230.359Z" fill="#888"/>
<path d="M238.539 63.36H237.409L233.309 57.46H233.239V63.36H232.009V55.28H233.149L237.249 61.19H237.329V55.28H238.539V63.36Z" fill="#888"/>
<path d="M240.189 63.36V55.28H242.889C245.269 55.28 246.689 56.79 246.699 59.31C246.699 61.83 245.279 63.36 242.819 63.36H240.199H240.189ZM242.749 62.29C244.579 62.29 245.479 61.22 245.479 59.31C245.479 57.4 244.579 56.35 242.809 56.35H241.419V62.29H242.749Z" fill="#888"/>
<path d="M255.579 55.28H261.839V56.34H259.329V63.36H258.099V56.34H255.579V55.28Z" fill="#888"/>
<path d="M264.319 63.36H263.089V55.28H264.319V63.36Z" fill="#888"/>
<path d="M269.339 63.47C267.239 63.47 265.689 61.9 265.689 59.32C265.689 56.74 267.239 55.17 269.339 55.17C271.439 55.17 272.979 56.74 272.979 59.32C272.979 61.9 271.429 63.47 269.339 63.47ZM269.339 62.34C270.719 62.34 271.759 61.28 271.759 59.32C271.759 57.36 270.719 56.29 269.339 56.3C267.949 56.3 266.909 57.36 266.909 59.32C266.909 61.28 267.949 62.35 269.339 62.34Z" fill="#888"/>
<path d="M280.88 63.36H279.75L275.65 57.46H275.58V63.36H274.35V55.28H275.49L279.59 61.19H279.67V55.28H280.87V63.36H280.88Z" fill="#888"/>
<path d="M251.069 63.36C248.969 63.36 247.419 61.79 247.419 59.21C247.419 56.63 248.969 55.06 251.069 55.06C253.169 55.06 254.709 56.63 254.709 59.21C254.709 61.79 253.159 63.36 251.069 63.36ZM251.069 62.23C252.449 62.23 253.489 61.17 253.489 59.21C253.489 57.25 252.449 56.18 251.069 56.19C249.679 56.19 248.639 57.25 248.639 59.21C248.639 61.17 249.679 62.24 251.069 62.23Z" fill="#888"/>
<path d="M254.709 55.2H253.509V63.25H254.709V55.2Z" fill="#888"/>
<path d="M96.3396 63.36H95.2096L91.1096 57.46H91.0396V63.36H89.8096V55.28H90.9496L95.0496 61.19H95.1296V55.28H96.3396V63.36Z" fill="#888"/>
<path d="M101.19 63.47C99.09 63.47 97.54 61.9 97.54 59.32C97.54 56.74 99.09 55.17 101.19 55.17C103.29 55.17 104.83 56.74 104.83 59.32C104.83 61.9 103.28 63.47 101.19 63.47ZM101.19 62.34C102.57 62.34 103.61 61.28 103.61 59.32C103.61 57.36 102.57 56.29 101.19 56.3C99.8 56.3 98.76 57.36 98.76 59.32C98.76 61.28 99.8 62.35 101.19 62.34Z" fill="#888"/>
<path d="M107.889 55.28L110.449 61.54H110.549L113.109 55.28H114.609V63.36H113.439V57.52H113.359L110.989 63.34H110.019L107.639 57.5H107.569V63.35H106.399V55.27H107.889V55.28Z" fill="#888"/>
<path d="M116.26 63.36V55.28H118.96C121.34 55.28 122.76 56.79 122.77 59.31C122.77 61.83 121.35 63.36 118.89 63.36H116.27H116.26ZM118.82 62.29C120.65 62.29 121.55 61.22 121.55 59.31C121.55 57.4 120.65 56.35 118.88 56.35H117.49V62.29H118.82Z" fill="#888"/>
<path d="M127.24 63.47C125.14 63.47 123.59 61.9 123.59 59.32C123.59 56.74 125.14 55.17 127.24 55.17C129.34 55.17 130.88 56.74 130.88 59.32C130.88 61.9 129.33 63.47 127.24 63.47ZM127.24 62.34C128.62 62.34 129.66 61.28 129.66 59.32C129.66 57.36 128.62 56.29 127.24 56.3C125.85 56.3 124.81 57.36 124.81 59.32C124.81 61.28 125.85 62.35 127.24 62.34Z" fill="#888"/>
<path d="M138.349 63.36H137.219L133.119 57.46H133.049V63.36H131.819V55.28H132.959L137.059 61.19H137.139V55.28H138.339V63.36H138.349Z" fill="#888"/>
<path d="M143.369 56.3C142.009 56.3 140.969 57.37 140.959 59.32C140.959 61.27 141.999 62.35 143.429 62.34C144.719 62.34 145.569 61.53 145.589 60.23H143.599V59.21H146.779V60.12C146.779 62.17 145.369 63.46 143.409 63.46C141.219 63.46 139.739 61.87 139.739 59.31C139.739 56.75 141.269 55.16 143.359 55.16C145.109 55.16 146.459 56.25 146.729 57.83H145.469C145.169 56.88 144.439 56.28 143.369 56.29V56.3Z" fill="#888"/>
<path d="M154.37 56.3C152.98 56.3 151.94 57.37 151.94 59.32C151.94 61.29 152.98 62.35 154.37 62.34C155.39 62.34 156.24 61.78 156.46 60.74H157.7C157.44 62.35 156.14 63.46 154.36 63.46C152.26 63.46 150.72 61.89 150.72 59.31C150.72 56.73 152.27 55.16 154.36 55.16C156.07 55.16 157.42 56.17 157.7 57.91H156.46C156.26 56.87 155.4 56.29 154.37 56.29V56.3Z" fill="#888"/>
<path d="M165.449 55.28V60.59C165.449 62.29 164.179 63.49 162.249 63.49C160.319 63.49 159.029 62.29 159.039 60.59V55.28H160.269V60.49C160.269 61.58 161.029 62.37 162.259 62.38C163.479 62.38 164.239 61.59 164.239 60.49V55.28H165.469H165.449Z" fill="#888"/>
<path d="M167.1 55.28H168.33V62.3H171.98V63.36H167.1V55.28Z" fill="#888"/>
<path d="M171.5 55.28H177.76V56.34H175.25V63.36H174.02V56.34H171.5V55.28Z" fill="#888"/>
<path d="M185.22 55.28V60.59C185.22 62.29 183.95 63.49 182.02 63.49C180.09 63.49 178.8 62.29 178.81 60.59V55.28H180.04V60.49C180.04 61.58 180.8 62.37 182.03 62.38C183.25 62.38 184.01 61.59 184.01 60.49V55.28H185.24H185.22Z" fill="#888"/>
<path d="M200.06 55.28H201.29V62.3H204.94V63.36H200.06V55.28Z" fill="#888"/>
<path d="M104.84 55.31H103.64V63.36H104.84V55.31Z" fill="#888"/>
<path d="M194.57 63.47C192.47 63.47 190.92 61.9 190.92 59.32C190.92 56.74 192.47 55.17 194.57 55.17C196.67 55.17 198.21 56.74 198.21 59.32C198.21 61.9 196.66 63.47 194.57 63.47ZM194.57 62.34C195.95 62.34 196.99 61.28 196.99 59.32C196.99 57.36 195.95 56.29 194.57 56.3C193.18 56.3 192.14 57.36 192.14 59.32C192.14 61.28 193.18 62.35 194.57 62.34Z" fill="#888"/>
<path d="M198.22 55.31H197.02V63.36H198.22V55.31Z" fill="#888"/>
<path d="M190.73 56.3V55.17C188.63 55.17 187.09 56.74 187.09 59.32H188.31C188.31 57.36 189.34 56.29 190.74 56.3H190.73Z" fill="#888"/>
<path d="M188.32 55.28H187.09V63.36H188.32V55.28Z" fill="#888"/>
<path d="M51.5099 15.17V1.35001H38.6999V15.18H22.6299V23.37H34.0199L33.9999 52.89H66.6899C69.7199 52.89 72.1799 50.43 72.2599 47.4V15.17H51.5199H51.5099Z" fill="#F5D443"/>
<path d="M0 60.52H26.54C30.22 60.52 34.02 57.84 34.02 52.93V23.36H0V60.51V60.52Z" fill="#82C6DF"/>
<path d="M72.26 44.38H63.5V52.89H72.26V44.38Z" fill="#F5D443"/>
<path d="M68.3997 33.34C68.3997 29.15 64.9997 25.75 60.8097 25.75C56.6197 25.75 53.2197 29.15 53.2197 33.34C53.2197 37.53 56.6197 40.93 60.8097 40.93C64.9997 40.93 68.3997 37.53 68.3997 33.34ZM56.8397 33.34C56.8397 31.14 58.6197 29.36 60.8197 29.36C63.0197 29.36 64.7997 31.14 64.7997 33.34C64.7997 35.54 63.0197 37.32 60.8197 37.32C58.6197 37.32 56.8397 35.54 56.8397 33.34Z" fill="#221714"/>
<path d="M41.1403 33.01H37.5303V40.59V44.21H41.1403H52.9403V40.59H41.1403V33.01Z" fill="#221714"/>
<path d="M45.5998 33.01H49.2098C49.2098 26.99 54.0898 22.11 60.1098 22.11H72.2398V15.18H68.6298V18.5H60.1098C52.0898 18.5 45.5898 25 45.5898 33.02L45.5998 33.01Z" fill="#221714"/>
<path d="M15.41 26.97V23.36H3.61V11.56H0V23.36V26.97H3.61H15.41Z" fill="#221714"/>
<path d="M15.42 48.95V45.34H0V60.51H15.42V56.9V48.95ZM3.61 56.9V48.95H11.8V56.9H3.61Z" fill="#221714"/>
<path d="M26.5402 45.34C22.3502 45.34 18.9502 48.74 18.9502 52.93C18.9502 57.12 22.3502 60.52 26.5402 60.52C30.7302 60.52 34.1302 57.12 34.1302 52.93C34.1302 48.74 30.7302 45.34 26.5402 45.34ZM26.5402 56.9C24.3402 56.9 22.5602 55.12 22.5602 52.92C22.5602 50.72 24.3402 48.94 26.5402 48.94C28.7402 48.94 30.5202 50.72 30.5202 52.92C30.5202 55.12 28.7402 56.9 26.5402 56.9Z" fill="#221714"/>
<path d="M49.3302 0H37.5302V11.56H26.6902C22.4602 11.56 19.0202 14.99 19.0202 19.23V26.97H24.7302V34.23H15.4102V37.84H28.3402V26.97H34.0102V23.36H22.6302V19.24C22.6302 16.99 24.4502 15.17 26.7002 15.17H37.5202H37.5302H52.9302V0H49.3202H49.3302ZM49.3302 11.56H41.1402V3.61H49.3302V11.56Z" fill="#221714"/>
<path d="M80.42 32.01C74 32.01 68.79 37.22 68.79 43.64V49.26H62.64V44.2H59V52.88H72.26V43.56C72.26 39.18 75.81 35.62 80.2 35.62H83.83V32.01H80.43H80.42Z" fill="#221714"/>
</g>
<defs>
<clipPath id="clip0_73_9">
<rect width="283.46" height="63.49" fill="white"/>
</clipPath>
</defs>
</svg>
