<?xml version="1.0" encoding="utf-8"?>
<!-- Generator: Adobe Illustrator 16.0.0, SVG Export Plug-In . SVG Version: 6.00 Build 0)  -->
<!DOCTYPE svg PUBLIC "-//W3C//DTD SVG 1.1//EN" "http://www.w3.org/Graphics/SVG/1.1/DTD/svg11.dtd">
<svg version="1.1" id="레이어_1" xmlns="http://www.w3.org/2000/svg" xmlns:xlink="http://www.w3.org/1999/xlink" x="0px"
	 y="0px" width="260px" height="40px" viewBox="0 0 261.919 40" enable-background="new 0 0 261.919 40" xml:space="preserve">
<g>
	<defs>
		<rect id="SVGID_1_" width="261.919" height="40"/>
	</defs>
	<clipPath id="SVGID_2_">
		<use xlink:href="#SVGID_1_"  overflow="visible"/>
	</clipPath>
	<path clip-path="url(#SVGID_2_)" fill="#15C2EA" d="M60.537,16.074c-0.953-3-7.011-2.295-9.351-1.488l-6.696,2.047l-15.538-3.368
		c-0.155-0.07-0.33-0.078-0.49-0.023l-6.066,0.868c-0.231,0.081-0.398,0.283-0.434,0.525c-0.036,0.242,0.065,0.484,0.263,0.629
		l15.799,3.683l-7.025,1.973l-4.795-1.1c-0.162-0.083-0.352-0.096-0.524-0.034l-4.086,0.607c-0.227,0.082-0.391,0.281-0.428,0.521
		c-0.037,0.237,0.059,0.478,0.251,0.624l10.188,3.115c0.09,0.069,0.195,0.112,0.304,0.129c0.097,0.015,0.199,0.008,0.296-0.023
		l27.904-7.857c0.166-0.052,0.305-0.17,0.385-0.325C60.575,16.421,60.59,16.241,60.537,16.074"/>
	<path clip-path="url(#SVGID_2_)" fill="#002087" d="M11.451,20c0-1.308,0.156-2.577,0.429-3.802
		c2.018,1.758,3.139,1.818,3.139,1.818c1.256,0.457,1.212-0.673,0.673-1.615c-0.538-0.943-1.212-2.02,0.269-2.289
		c2.491-0.471,4.443-1.01,5.453-2.558c1.01-1.548,2.962-1.615,4.914-3.096S28.28,6.64,27.27,5.9
		c-1.01-0.741-2.894-0.875-2.894-0.875v0.471c0,0.471-1.481,1.01-1.708,0.942c-0.227-0.067-0.177-1.952-1.86-1.548
		c-0.193,0.046-0.439,0.072-0.717,0.084c2.579-1.51,5.572-2.39,8.776-2.39c4.129,0,7.916,1.443,10.9,3.843
		c-0.242,0.444-1.629,2.977-2.109,3.511c-0.526,0.585-1.13-0.115-2.15,2.465c-0.124,0.314-0.246,0.605-0.362,0.882l9.289,2.014
		l3.574-1.092C45.519,5.995,37.881,0,28.867,0c-11.028,0-20,8.972-20,20c0,3.165,0.743,6.159,2.057,8.822
		c0.808-0.143,1.688-0.313,2.64-0.517C12.219,25.837,11.451,23.01,11.451,20"/>
	<path clip-path="url(#SVGID_2_)" fill="#002087" d="M46.012,22.973c-1.292,7.496-7.362,13.344-14.97,14.294
		c0.484-0.906,1.676-2.029,2.7-2.644c1.766-1.06,2.972-2.357,3.002-3.267c0.088-2.704,2.119-3.885,2.031-5.298
		c-0.035-0.55-0.726-0.982-1.658-1.343l-4.522,1.272c-0.191,0.062-0.389,0.093-0.589,0.093c-0.096,0-0.192-0.009-0.287-0.022
		c-0.229-0.034-0.451-0.109-0.653-0.22l-10.027-3.067l-0.222-0.067l-0.184-0.142c-0.568-0.433-0.853-1.142-0.744-1.848
		c0.11-0.707,0.596-1.296,1.269-1.537l0.12-0.044l0.126-0.018l0.487-0.073c-1.715-0.404-5.983,0.646-5.983,0.646
		s-0.618,2.662,0,5.046c0.216,0.833,0.867,1.751,1.662,2.613c1.032-0.271,2.117-0.573,3.265-0.916
		c0.24-0.071,0.488-0.107,0.735-0.107c0.102,0,0.204,0.007,0.305,0.019c1.017,0.123,1.863,0.836,2.155,1.817
		c0.197,0.657,0.125,1.352-0.201,1.957c-0.324,0.597-0.859,1.032-1.506,1.231c0.406,1.004,0.415,2.824,1.05,4.407
		c0.131,0.328,0.296,0.633,0.477,0.919c-2.58-0.775-4.902-2.139-6.826-3.925c-1.026,0.238-2.028,0.455-2.991,0.648
		C17.696,37.449,22.989,40,28.867,40c10.549,0,19.211-8.211,19.944-18.576l-3.189,0.897C45.757,22.534,45.888,22.751,46.012,22.973"
		/>
	<path clip-path="url(#SVGID_2_)" fill="#002087" d="M13.563,28.306c-0.951,0.203-1.832,0.374-2.64,0.516
		c0.825,1.67,1.873,3.21,3.11,4.577c0.962-0.193,1.965-0.41,2.99-0.648C15.645,31.469,14.47,29.972,13.563,28.306"/>
	<polygon clip-path="url(#SVGID_2_)" fill="#002087" points="75.963,9.1 80.829,9.1 83.214,16.416 85.599,9.1 90.498,9.1 
		86.598,19.736 88.919,25.827 94.655,9.068 100.425,9.068 91.497,31.949 86.921,31.949 83.214,22.99 79.54,31.949 74.932,31.949 
		66.036,9.068 71.773,9.068 77.542,25.827 79.798,19.736 	"/>
	<path clip-path="url(#SVGID_2_)" fill="#002087" d="M107.45,32.272c-1.44,0-2.724-0.233-3.851-0.698
		c-1.128-0.466-2.079-1.102-2.853-1.906c-0.773-0.804-1.359-1.725-1.756-2.762c-0.398-1.038-0.596-2.128-0.596-3.271
		c0-1.164,0.198-2.265,0.596-3.303c0.397-1.037,0.983-1.958,1.756-2.763c0.774-0.804,1.725-1.439,2.853-1.905
		c1.127-0.466,2.411-0.698,3.851-0.698c1.439,0,2.718,0.232,3.835,0.698s2.063,1.101,2.836,1.905
		c0.773,0.805,1.364,1.726,1.773,2.763c0.408,1.038,0.612,2.139,0.612,3.303c0,1.144-0.204,2.233-0.612,3.271
		c-0.409,1.037-1,1.958-1.773,2.762c-0.773,0.805-1.719,1.44-2.836,1.906C110.167,32.039,108.889,32.272,107.45,32.272
		 M103.679,23.635c0,0.855,0.166,1.607,0.5,2.253c0.333,0.647,0.778,1.147,1.337,1.501c0.559,0.355,1.203,0.532,1.934,0.532
		c0.709,0,1.348-0.182,1.918-0.547c0.568-0.365,1.015-0.871,1.337-1.518c0.322-0.646,0.483-1.387,0.483-2.222
		c0-0.854-0.161-1.605-0.483-2.252c-0.322-0.646-0.769-1.147-1.337-1.502c-0.57-0.355-1.209-0.532-1.918-0.532
		c-0.731,0-1.375,0.177-1.934,0.532c-0.559,0.354-1.004,0.855-1.337,1.502C103.845,22.029,103.679,22.78,103.679,23.635"/>
	<path clip-path="url(#SVGID_2_)" fill="#002087" d="M135.037,31.95h-5.156v-9.315c0-1.071-0.221-1.861-0.661-2.368
		c-0.441-0.503-1.027-0.757-1.757-0.757c-0.387,0-0.821,0.119-1.305,0.357c-0.483,0.238-0.929,0.573-1.337,1.007
		c-0.409,0.434-0.721,0.941-0.935,1.52v9.557h-5.156V8.423h5.156v9.653c0.623-0.994,1.445-1.761,2.466-2.301
		c1.02-0.539,2.143-0.81,3.367-0.81c1.161,0,2.09,0.192,2.788,0.572c0.698,0.382,1.23,0.884,1.595,1.509
		c0.365,0.624,0.613,1.306,0.742,2.047c0.129,0.74,0.193,1.471,0.193,2.191V31.95z"/>
	<path clip-path="url(#SVGID_2_)" fill="#002087" d="M146.188,32.272c-1.438,0-2.723-0.233-3.851-0.698
		c-1.128-0.466-2.079-1.102-2.853-1.906c-0.773-0.804-1.358-1.725-1.757-2.762c-0.396-1.038-0.596-2.128-0.596-3.271
		c0-1.164,0.199-2.265,0.596-3.303c0.398-1.037,0.983-1.958,1.757-2.763c0.773-0.804,1.725-1.439,2.853-1.905
		s2.412-0.698,3.851-0.698c1.44,0,2.72,0.232,3.836,0.698c1.117,0.466,2.063,1.101,2.836,1.905c0.773,0.805,1.364,1.726,1.773,2.763
		c0.407,1.038,0.612,2.139,0.612,3.303c0,1.144-0.205,2.233-0.612,3.271c-0.409,1.037-1,1.958-1.773,2.762
		c-0.772,0.805-1.719,1.44-2.836,1.906C148.907,32.039,147.628,32.272,146.188,32.272 M142.418,23.635
		c0,0.855,0.166,1.607,0.5,2.253c0.332,0.647,0.777,1.147,1.337,1.501c0.558,0.355,1.203,0.532,1.933,0.532
		c0.71,0,1.35-0.182,1.918-0.547c0.569-0.365,1.016-0.871,1.338-1.518s0.483-1.387,0.483-2.222c0-0.854-0.161-1.605-0.483-2.252
		s-0.769-1.147-1.338-1.502c-0.568-0.355-1.208-0.532-1.918-0.532c-0.729,0-1.375,0.177-1.933,0.532
		c-0.56,0.354-1.005,0.855-1.337,1.502C142.584,22.029,142.418,22.78,142.418,23.635"/>
	<path clip-path="url(#SVGID_2_)" fill="#002087" d="M157.403,8.423h5.157v17.529c0,0.71,0.128,1.217,0.387,1.518
		c0.257,0.302,0.623,0.451,1.096,0.451c0.322,0,0.649-0.048,0.982-0.145s0.629-0.209,0.886-0.338l0.678,3.867
		c-0.645,0.302-1.386,0.537-2.224,0.709s-1.623,0.258-2.354,0.258c-1.461,0-2.594-0.393-3.399-1.178
		c-0.807-0.785-1.209-1.898-1.209-3.341V8.423z"/>
	<polygon clip-path="url(#SVGID_2_)" fill="#666" points="174.742,31.95 174.742,9.068 180.027,9.068 180.027,18.93 188.407,9.068 
		194.337,9.068 185.764,19.284 194.917,31.95 188.858,31.95 182.412,22.765 180.027,25.214 180.027,31.95 	"/>
	<path clip-path="url(#SVGID_2_)" fill="#666" d="M202.813,32.272c-1.438,0-2.723-0.233-3.851-0.698c-1.128-0.466-2.079-1.102-2.853-1.906
		c-0.773-0.804-1.358-1.725-1.757-2.762c-0.396-1.038-0.595-2.128-0.595-3.271c0-1.164,0.198-2.265,0.595-3.303
		c0.398-1.037,0.983-1.958,1.757-2.763c0.773-0.804,1.725-1.439,2.853-1.905s2.412-0.698,3.851-0.698
		c1.44,0,2.719,0.232,3.836,0.698s2.063,1.101,2.836,1.905c0.773,0.805,1.364,1.726,1.773,2.763
		c0.407,1.038,0.611,2.139,0.611,3.303c0,1.144-0.204,2.233-0.611,3.271c-0.409,1.037-1,1.958-1.773,2.762
		c-0.772,0.805-1.719,1.44-2.836,1.906C205.531,32.039,204.253,32.272,202.813,32.272 M199.043,23.635
		c0,0.855,0.166,1.607,0.5,2.253c0.332,0.647,0.777,1.147,1.337,1.501c0.558,0.355,1.203,0.532,1.933,0.532
		c0.71,0,1.349-0.182,1.918-0.547s1.015-0.871,1.338-1.518c0.322-0.646,0.483-1.387,0.483-2.222c0-0.854-0.161-1.605-0.483-2.252
		c-0.323-0.646-0.769-1.147-1.338-1.502c-0.569-0.355-1.208-0.532-1.918-0.532c-0.729,0-1.375,0.177-1.933,0.532
		c-0.56,0.354-1.005,0.855-1.337,1.502C199.209,22.029,199.043,22.78,199.043,23.635"/>
	<path clip-path="url(#SVGID_2_)" fill="#666" d="M224.824,19.445c-1.246,0-2.374,0.199-3.384,0.596c-1.01,0.398-1.74,0.983-2.191,1.757V31.95
		h-5.156V15.223h4.738v3.223c0.578-1.139,1.33-2.031,2.255-2.675c0.924-0.645,1.891-0.977,2.9-0.999h0.532
		c0.118,0,0.22,0.011,0.306,0.032V19.445z"/>
	<path clip-path="url(#SVGID_2_)" fill="#666" d="M234.623,32.271c-1.44,0-2.72-0.228-3.836-0.684c-1.117-0.457-2.068-1.079-2.853-1.865
		c-0.785-0.786-1.381-1.694-1.789-2.724c-0.407-1.031-0.611-2.109-0.611-3.235c0-1.603,0.358-3.064,1.08-4.383
		c0.719-1.319,1.756-2.384,3.109-3.197c1.354-0.812,2.986-1.218,4.899-1.218c1.912,0,3.539,0.401,4.882,1.205
		c1.342,0.804,2.369,1.857,3.078,3.157c0.709,1.301,1.063,2.714,1.063,4.236c0,0.297-0.015,0.587-0.048,0.873
		c-0.032,0.286-0.059,0.534-0.081,0.745h-12.504c0.064,0.731,0.274,1.349,0.628,1.85c0.355,0.501,0.812,0.882,1.37,1.144
		c0.559,0.261,1.149,0.391,1.773,0.391c0.772,0,1.498-0.182,2.175-0.548c0.677-0.365,1.144-0.858,1.401-1.481l4.384,1.225
		c-0.431,0.881-1.037,1.659-1.821,2.336s-1.708,1.209-2.771,1.596S235.912,32.271,234.623,32.271 M230.884,22.023h7.348
		c-0.086-0.676-0.29-1.266-0.611-1.768c-0.322-0.502-0.753-0.891-1.29-1.168c-0.537-0.278-1.127-0.416-1.772-0.416
		c-0.666,0-1.262,0.138-1.789,0.416c-0.525,0.277-0.95,0.666-1.272,1.168S230.97,21.348,230.884,22.023"/>
	<path clip-path="url(#SVGID_2_)" fill="#666" d="M244.612,26.97c0-1.102,0.312-2.064,0.935-2.891s1.483-1.477,2.578-1.953
		c1.096-0.477,2.354-0.715,3.771-0.715c0.687,0,1.363,0.06,2.029,0.177c0.666,0.119,1.246,0.285,1.741,0.5V21.35
		c0-0.895-0.28-1.579-0.838-2.057c-0.559-0.478-1.408-0.717-2.546-0.717c-0.946,0-1.832,0.161-2.659,0.483
		c-0.828,0.323-1.703,0.785-2.627,1.386l-1.547-3.287c1.117-0.73,2.283-1.278,3.497-1.644c1.214-0.365,2.498-0.548,3.852-0.548
		c2.534,0,4.506,0.595,5.913,1.785c1.407,1.19,2.111,2.912,2.111,5.164v4.328c0,0.506,0.081,0.858,0.242,1.059
		s0.445,0.321,0.854,0.362v4.287c-0.43,0.085-0.833,0.15-1.209,0.193c-0.375,0.043-0.703,0.064-0.981,0.064
		c-0.969,0-1.704-0.193-2.208-0.58c-0.505-0.387-0.822-0.914-0.951-1.58l-0.097-0.74c-0.753,0.967-1.649,1.703-2.691,2.208
		c-1.042,0.504-2.132,0.757-3.271,0.757c-1.116,0-2.121-0.233-3.013-0.698c-0.892-0.466-1.596-1.101-2.111-1.906
		C244.87,28.864,244.612,27.964,244.612,26.97 M254.861,27.572c0.236-0.186,0.429-0.393,0.58-0.62
		c0.149-0.228,0.226-0.446,0.226-0.653V24.84c-0.43-0.166-0.908-0.295-1.435-0.388c-0.526-0.094-1.016-0.14-1.466-0.14
		c-0.946,0-1.73,0.201-2.353,0.604c-0.624,0.404-0.935,0.938-0.935,1.6c0,0.373,0.106,0.715,0.321,1.024
		c0.216,0.312,0.511,0.56,0.887,0.745c0.376,0.188,0.821,0.28,1.338,0.28c0.515,0,1.031-0.093,1.547-0.28
		C254.087,28.101,254.518,27.862,254.861,27.572"/>
	<path clip-path="url(#SVGID_2_)" fill="#15C2EA" d="M2.988,33.32c-2.139-0.259-2.666-1.119-2.876-1.746
		c-0.692-2.059,1.956-3.97,4.636-5.567c0.246-0.146,0.525-0.205,0.807-0.171c0.396,0.048,0.741,0.271,0.945,0.615
		c0.361,0.604,0.161,1.391-0.444,1.752c-0.787,0.469-1.47,0.919-2.029,1.339c-0.249,0.187-0.35,0.513-0.25,0.808
		c0.09,0.266,0.323,0.451,0.596,0.484c0.031,0.004,0.062,0.005,0.094,0.005c1.633-0.015,7.31-0.356,16.736-3.169
		c0.17-0.05,0.344-0.066,0.518-0.045c0.505,0.062,0.926,0.417,1.071,0.903c0.098,0.328,0.063,0.674-0.099,0.974
		c-0.163,0.3-0.432,0.519-0.759,0.617c-5.16,1.54-10.845,2.625-14.444,3.056C6.151,33.335,4.432,33.496,2.988,33.32"/>
</g>
</svg>
