<?xml version="1.0" encoding="UTF-8"?><svg id="_레이어_2" xmlns="http://www.w3.org/2000/svg" viewBox="0 0 208.55 55.33" width="151" height="40"><defs><style>.cls-1{fill:#fff;}.cls-2{fill:#aaa;}.cls-3{fill:#d7000f;}</style></defs><g id="_레이어_1-2"><g><path class="cls-2" d="m147.3,40.9c-.35,3.6-2.43,7.45-7.22,7.45-6.39,0-8.65-5.87-8.65-10.91s2.27-10.91,8.65-10.91c3.73,0,6.1,1.9,7.06,5.64l.04.17h5.55l-.02-.25c-.6-6.15-5.56-10.15-12.64-10.2-8.38,0-14.23,6.39-14.23,15.54s5.85,15.54,14.23,15.54c7.16,0,12.25-4.84,12.68-12.05v-.24s-5.43,0-5.43,0l-.02.21Z"/><path class="cls-2" d="m178.19,38.13l.03-.26h-4.56l-.02.21c-.17,1.57-.46,2.62-.76,3.49-.45-.54-3.81-4.6-4.11-4.96,3.32-1.86,5.16-4.5,5.16-7.47,0-4.97-3.9-7.23-7.52-7.23-4.28,0-7.4,3.02-7.4,7.19,0,2.61,1.53,4.66,2.83,6.32-4.43,2.33-6.6,5.12-6.6,8.54,0,5.41,3.71,8.91,9.44,8.91,3.42,0,6.03-1.19,8.18-3.72.3.37,2.56,3.15,2.56,3.15h6.33s-5.63-6.82-5.82-7.05c1.15-1.85,1.93-4.3,2.25-7.11Zm-11.65-12.28c1.62,0,2.76,1.29,2.76,3.13,0,2.07-1.36,3.21-3.16,4.44-.18-.23-.6-.78-.6-.78-.92-1.15-1.88-2.35-1.88-3.78,0-1.74,1.21-3,2.88-3Zm3.43,20.01c-.89,1.21-2.11,2.87-5.11,2.87-2.72,0-4.48-1.84-4.48-4.68s1.89-3.88,3.56-4.81c0,0,.44-.25.66-.38.23.29,5.29,6.57,5.5,6.83-.06.08-.13.17-.13.17Z"/><path class="cls-2" d="m203.1,40.69l-.02.21c-.35,3.6-2.43,7.45-7.22,7.45-6.39,0-8.65-5.87-8.65-10.91s2.27-10.91,8.65-10.91c3.73,0,6.11,1.9,7.07,5.64l.04.17h5.55l-.02-.25c-.6-6.15-5.56-10.15-12.63-10.2-8.38,0-14.23,6.39-14.23,15.54s5.85,15.54,14.23,15.54c7.16,0,12.25-4.84,12.68-12.05l.02-.24h-5.45Z"/></g><g><path class="cls-2" d="m180.96,5.72v-1.22h2.57v-2.08h-7.7v2.08h2.57v1.22c0,4.55-2.42,6.25-3.33,6.94l1.63,1.65c2.14-1.21,2.99-3.55,2.98-3.58,0,0,.71,2.24,2.93,3.64l1.66-1.63c-1-.71-3.31-2.23-3.31-7.01Z"/><path class="cls-2" d="m139.64,5.92v-3.69h-13.51v2.21h10.8v1.91c.01,1.15-.31,1.71-.32,1.72h-11.49v2.11h6.74v3.22h2.69v-3.22h6.46v-2.11h-1.75s.38-.92.38-2.15Z"/><polygon class="cls-2" points="128.95 12.08 126.25 12.08 126.25 17.16 140.37 17.16 140.37 15.09 128.95 15.09 128.95 12.08"/><polygon class="cls-2" points="146.28 12.06 143.59 12.06 143.59 17.16 157.2 17.16 157.2 15.1 146.28 15.1 146.28 12.06"/><rect class="cls-2" x="154.22" y="1.77" width="2.69" height="11.38"/><path class="cls-2" d="m170.21,5.45c0,1.24-.4,2.04-.4,2.04h2.48s.71-.83.71-2.36v-2.89h-12.99v2.06h10.21s0,1.13,0,1.15Z"/><polygon class="cls-2" points="167.1 5.83 164.5 5.83 164.5 8.06 158.75 8.06 158.75 10.12 174.49 10.12 174.49 8.06 167.1 8.06 167.1 5.83"/><polygon class="cls-2" points="185.23 6.73 182.9 6.73 182.9 8.79 185.23 8.79 185.23 17.3 187.62 17.3 187.62 1.75 185.23 1.75 185.23 6.73"/><rect class="cls-2" x="189.01" y="1.75" width="2.38" height="15.56"/><rect class="cls-2" x="205.39" y="1.75" width="2.46" height="15.56"/><path class="cls-2" d="m166.51,10.84c-5.07,0-6.88,1.49-6.88,3.41s1.8,3.41,6.88,3.41,6.88-1.48,6.88-3.41-1.81-3.41-6.88-3.41Zm0,4.82c-3.38,0-4.19-.65-4.19-1.41s.81-1.41,4.19-1.41,4.19.65,4.19,1.41-.81,1.41-4.19,1.41Z"/><path class="cls-2" d="m152.64,6.12c0-2.39-1.92-4.6-5.27-4.6s-5.27,2.21-5.27,4.6,1.92,4.6,5.27,4.6,5.27-2.21,5.27-4.6Zm-7.94,0c0-1.22.77-2.48,2.68-2.48s2.67,1.25,2.67,2.48-.77,2.48-2.67,2.48-2.68-1.25-2.68-2.48Z"/><path class="cls-2" d="m200.17,11.54c2.48-.49,3.52-2.4,3.52-3.91,0-1.11-.46-2.48-1.65-3h2.23v-2h-4.12V.93h-2.46v1.71h-4.37v2h2.23c-1.13.63-1.59,1.88-1.59,3,0,1.59,1.1,3.53,3.75,3.94v2.12h-4.49v2.08h11.18s0-2.13,0-2.13h-4.22s0-2.11,0-2.11Zm-3.83-3.96c0-1.23,1.1-2.22,2.46-2.22s2.47.99,2.47,2.22-1.11,2.22-2.47,2.22-2.46-.99-2.46-2.22Z"/></g><polygon class="cls-3" points="70 0 55.46 22.1 40.94 0 0 0 0 55.33 32.21 55.33 32.21 31.71 46.2 52.81 64.74 52.81 78.73 31.71 78.73 55.33 110.93 55.33 110.93 0 70 0"/><g><path class="cls-1" d="m86.34,35.96l1.19-1.79c.52-.78.79-1.53.79-2.24,0-1.22-.74-2.34-2.24-3.34-1.32-.88-2.43-1.17-3.43-.97-.82.17-1.76.88-2.38,1.8-2.54,3.8-2.67,3.99-2.68,4l12.49,8.23s0,0,0,0l1.45-2.3-5.19-3.39Zm-.78-2.43l-.89,1.31-3.86-2.58.75-1.2c.76-1.12,1.96-.98,3.08-.17.87.62,1.49,1.78.91,2.64Z"/><polygon class="cls-1" points="95.1 30.05 84.48 23.06 82.99 25.32 95.45 33.57 98.76 28.49 96.89 27.27 95.1 30.05"/><path class="cls-1" d="m100.57,18.12l-8.85-5.91-1.49,2.27,8.69,5.74c.82.55,1.66,1.22,1.65,2.07,0,.32-.11.64-.34.99-.27.4-.59.64-.97.72-.59.12-1.32-.14-2.32-.81l-8.69-5.8-1.48,2.29,8.87,5.85c2.49,1.66,4.58,1.25,6.23-1.22.63-.94.95-1.85.96-2.69,0-1.33-.74-2.51-2.24-3.51Z"/><path class="cls-1" d="m108.25,12.85c-.19-.95-.87-1.81-2.09-2.62-2.16-1.44-3.99-.62-5.6.1-1.29.58-2.51,1.13-3.64.37-.58-.39-.88-.75-.96-1.15-.06-.33.03-.68.28-1.06.21-.32.46-.51.76-.56.58-.12,1.25.35,1.89.78,0,0-.02-.02.01,0l1.44-2.23c-1.26-.86-2.32-1.23-3.22-1.08-.86.14-1.65.77-2.41,1.91-.86,1.29-1.19,2.39-.99,3.35.18.91.82,1.71,2.02,2.51,2.05,1.37,3.94.58,5.6-.11,1.32-.55,2.58-1.07,3.65-.36.65.43.98.82,1.06,1.23.06.32-.02.65-.26,1.01-.3.46-.63.71-1,.78-.61.12-1.2-.29-1.89-.76,0,0-.24-.16-.28-.19l-1.48,2.31c.75.56,2.3,1.45,3.52,1.25.9-.15,1.7-.79,2.48-1.94.69-1.04,1.36-2.27,1.11-3.54Z"/></g></g></svg>