<?xml version="1.0" encoding="utf-8"?>
<!-- Generator: Adobe Illustrator 16.0.0, SVG Export Plug-In . SVG Version: 6.00 Build 0)  -->
<!DOCTYPE svg PUBLIC "-//W3C//DTD SVG 1.1//EN" "http://www.w3.org/Graphics/SVG/1.1/DTD/svg11.dtd">
<svg version="1.1" id="레이어_1" xmlns="http://www.w3.org/2000/svg" xmlns:xlink="http://www.w3.org/1999/xlink" x="0px"
	 y="0px" width="150px" height="53px" viewBox="0 0 150 53" enable-background="new 0 0 150 53" xml:space="preserve">
<g>
	<g opacity="0.2">
		<path fill="#555" d="M37.396,49.119c0,1.718-7.744,3.108-17.292,3.108c-9.561,0-17.306-1.391-17.306-3.108c0-1.718,7.745-3.127,17.306-3.127
			C29.653,45.992,37.396,47.4,37.396,49.119z"/>
	</g>
	<g>
		<g>
			<path fill="#E72A10" d="M36.135,11.315c-1.078-2.181-2.277-3.862-3.437-5.163l0,0c-3.923-4.705-10.119-5.75-10.119-5.75l0,0
				c-1.599-0.348-3.262-0.479-4.957-0.361C7.12,0.789-0.74,10.618,0.055,22.01c0.797,11.394,9.95,20.021,20.469,19.272
				c6.286-0.437,11.62-4.161,14.721-9.511l0.016,0.002c6.719-9.405,10.607-9.639,10.607-9.639S39.435,17.961,36.135,11.315z"/>
			<g>
				<path fill="#E72A10" d="M34.181,15.644c1.582,4.884,1.381,9.863-0.208,14.088c-0.275,0.731-0.592,1.426-0.932,2.105
					c-0.43,0.839-0.923,1.627-1.455,2.364c-0.921,1.263-1.997,2.398-3.197,3.344c-0.96,0.75-1.988,1.387-3.099,1.89
					c-1.009,0.477-2.078,0.826-3.152,1.055c-1.946,0.416-3.957,0.435-5.935,0.091c-2.013-0.355-3.988-1.089-5.829-2.174
					c-2.919-1.738-5.511-4.367-7.341-7.775C-2.085,21.124,0.308,8.988,8.986,3.913c0.288-0.164,0.573-0.32,0.856-0.46
					C19.429-1.402,30.586,4.579,34.181,15.644z"/>
				<path fill="#E72C10" d="M8.962,4.018c0.278-0.165,0.559-0.321,0.851-0.472c0.647-0.325,1.293-0.606,1.953-0.834
					c1.319-0.471,2.672-0.745,4.015-0.824c1.662-0.101,3.304,0.074,4.896,0.5c3.911,1.044,7.517,3.581,10.16,7.211
					c0.798,1.107,1.522,2.299,2.122,3.588c0.382,0.828,0.728,1.686,1.02,2.586c1.182,3.582,1.397,7.215,0.8,10.565
					c-0.209,1.182-0.52,2.329-0.92,3.43c-0.261,0.719-0.573,1.413-0.909,2.082c-0.418,0.838-0.896,1.618-1.423,2.349
					c-0.859,1.203-1.884,2.26-3.013,3.183c-0.07,0.043-0.134,0.101-0.216,0.153c-0.944,0.749-1.978,1.375-3.089,1.875
					c-1.026,0.465-2.073,0.809-3.148,1.024c-1.938,0.413-3.939,0.426-5.907,0.083c-2.004-0.36-3.962-1.1-5.796-2.18
					c-2.905-1.718-5.477-4.343-7.297-7.739c-0.407-0.788-0.784-1.589-1.107-2.409c-1.532-3.91-1.908-8.096-1.195-11.98
					C1.71,11.162,4.498,6.646,8.962,4.018z"/>
				<path fill="#E72E11" d="M8.927,4.119C9.209,3.951,9.497,3.801,9.79,3.65c0.633-0.333,1.28-0.609,1.931-0.836
					c1.324-0.477,2.678-0.749,4.003-0.821c1.651-0.089,3.27,0.101,4.839,0.521c3.866,1.06,7.432,3.611,10.072,7.241
					c0.793,1.098,1.498,2.289,2.114,3.575c0.385,0.816,0.723,1.677,1.026,2.567c1.195,3.575,1.42,7.181,0.862,10.507
					c-0.205,1.175-0.507,2.311-0.896,3.393c-0.25,0.713-0.546,1.403-0.889,2.071c-0.4,0.814-0.868,1.595-1.388,2.33
					c-0.842,1.206-1.892,2.267-3.021,3.165c-0.057,0.057-0.139,0.107-0.203,0.166c-0.949,0.733-1.994,1.354-3.106,1.847
					c-1.035,0.461-2.084,0.801-3.159,1.008c-1.933,0.399-3.921,0.413-5.875,0.063c-1.991-0.359-3.941-1.093-5.75-2.172
					c-2.901-1.728-5.446-4.329-7.265-7.703c-0.404-0.791-0.776-1.582-1.085-2.4c-1.532-3.885-1.905-8.058-1.188-11.913
					C1.735,11.235,4.5,6.74,8.927,4.119z"/>
				<path fill="#E73012" d="M8.91,4.217C9.183,4.06,9.456,3.889,9.744,3.753c0.64-0.332,1.281-0.62,1.937-0.847
					c1.313-0.474,2.663-0.744,3.995-0.808c1.633-0.081,3.226,0.117,4.791,0.556c3.818,1.075,7.346,3.629,9.966,7.243
					c0.795,1.099,1.5,2.292,2.107,3.571c0.391,0.821,0.741,1.667,1.016,2.562c1.203,3.558,1.473,7.144,0.923,10.44
					c-0.187,1.159-0.482,2.288-0.85,3.365c-0.258,0.705-0.541,1.386-0.864,2.049c-0.397,0.801-0.843,1.581-1.37,2.316
					c-0.811,1.201-1.909,2.262-3.019,3.149c-0.076,0.059-0.142,0.105-0.211,0.163c-0.963,0.728-2.001,1.346-3.118,1.833
					c-1.026,0.458-2.081,0.775-3.149,0.98c-1.932,0.395-3.902,0.399-5.846,0.053c-1.974-0.362-3.909-1.094-5.719-2.171
					c-2.876-1.722-5.41-4.315-7.205-7.668c-0.419-0.773-0.788-1.58-1.1-2.38c-1.503-3.87-1.884-8.02-1.168-11.862
					C1.776,11.315,4.503,6.837,8.91,4.217z"/>
				<path fill="#E73112" d="M8.874,4.321c0.273-0.172,0.552-0.325,0.848-0.47c0.628-0.334,1.263-0.613,1.91-0.853
					c1.302-0.476,2.658-0.738,3.986-0.794c1.625-0.071,3.209,0.143,4.74,0.579c3.777,1.086,7.273,3.657,9.871,7.27
					c0.789,1.09,1.5,2.282,2.101,3.556c0.384,0.822,0.734,1.668,1.034,2.549c1.197,3.539,1.483,7.109,0.966,10.375
					c-0.18,1.16-0.463,2.264-0.823,3.337c-0.245,0.695-0.512,1.372-0.823,2.027c-0.386,0.799-0.837,1.576-1.342,2.305
					c-0.793,1.206-1.917,2.264-3.033,3.136c-0.074,0.059-0.138,0.11-0.213,0.159c-0.958,0.733-2.01,1.34-3.129,1.823
					c-1.027,0.44-2.088,0.762-3.157,0.957c-1.905,0.387-3.885,0.387-5.81,0.04c-1.96-0.375-3.88-1.103-5.674-2.178
					c-2.865-1.71-5.379-4.289-7.164-7.632c-0.409-0.776-0.78-1.564-1.09-2.371c-1.509-3.841-1.877-7.97-1.183-11.787
					C1.806,11.393,4.507,6.93,8.874,4.321z"/>
				<path fill="#E83312" d="M8.853,4.423c0.275-0.167,0.551-0.321,0.839-0.482c0.623-0.33,1.257-0.612,1.9-0.845
					c1.306-0.478,2.646-0.741,3.956-0.788c1.631-0.067,3.187,0.166,4.704,0.613c3.725,1.101,7.178,3.681,9.777,7.285
					c0.785,1.086,1.479,2.272,2.094,3.542c0.383,0.818,0.736,1.665,1.035,2.545c1.204,3.517,1.516,7.068,1.02,10.296
					c-0.171,1.156-0.438,2.255-0.786,3.305c-0.229,0.696-0.498,1.367-0.813,2.014c-0.361,0.796-0.793,1.557-1.293,2.284
					c-0.789,1.207-1.93,2.268-3.059,3.138c-0.058,0.053-0.123,0.103-0.194,0.151c-0.98,0.724-2.023,1.33-3.152,1.808
					c-1.024,0.437-2.083,0.743-3.156,0.931c-1.903,0.38-3.859,0.376-5.771,0.016c-1.956-0.359-3.862-1.092-5.649-2.158
					c-2.825-1.72-5.328-4.282-7.111-7.598c-0.407-0.775-0.769-1.559-1.084-2.366c-1.492-3.817-1.862-7.922-1.164-11.72
					C1.839,11.472,4.52,7.022,8.853,4.423z"/>
				<path fill="#E83412" d="M8.821,4.526C9.096,4.362,9.369,4.198,9.65,4.051c0.63-0.338,1.261-0.622,1.891-0.857
					c1.306-0.483,2.656-0.742,3.946-0.777c1.619-0.048,3.158,0.18,4.654,0.64c3.688,1.11,7.103,3.702,9.684,7.294
					c0.786,1.091,1.478,2.279,2.078,3.535c0.391,0.813,0.743,1.658,1.05,2.531c1.208,3.497,1.548,7.033,1.079,10.238
					c-0.168,1.145-0.422,2.232-0.748,3.276c-0.235,0.686-0.493,1.354-0.793,1.993c-0.357,0.791-0.772,1.542-1.264,2.272
					c-0.78,1.206-1.948,2.266-3.069,3.119c-0.059,0.057-0.129,0.105-0.196,0.16c-0.977,0.71-2.035,1.31-3.162,1.777
					c-1.031,0.432-2.098,0.733-3.164,0.917c-1.894,0.369-3.836,0.359-5.739,0c-1.931-0.371-3.838-1.098-5.604-2.152
					c-2.82-1.708-5.307-4.27-7.066-7.568c-0.406-0.771-0.767-1.553-1.093-2.348C0.665,24.3,0.296,20.218,0.973,16.448
					C1.868,11.555,4.525,7.125,8.821,4.526z"/>
				<path fill="#E83513" d="M8.792,4.628c0.271-0.174,0.546-0.333,0.834-0.479c0.615-0.339,1.242-0.622,1.874-0.858
					c1.293-0.484,2.651-0.74,3.943-0.772c1.596-0.041,3.118,0.208,4.597,0.671c3.631,1.131,7.01,3.722,9.576,7.313
					c0.768,1.087,1.487,2.268,2.085,3.525c0.395,0.809,0.742,1.655,1.049,2.52c1.21,3.486,1.584,6.993,1.127,10.177
					c-0.152,1.13-0.4,2.208-0.715,3.244c-0.207,0.679-0.475,1.337-0.763,1.975c-0.342,0.778-0.744,1.528-1.231,2.26
					c-0.762,1.206-1.965,2.25-3.077,3.105c-0.061,0.054-0.137,0.105-0.195,0.155c-0.986,0.713-2.053,1.301-3.173,1.76
					c-1.032,0.422-2.104,0.721-3.177,0.889c-1.881,0.362-3.802,0.35-5.706-0.006c-1.921-0.374-3.805-1.097-5.56-2.161
					c-2.814-1.699-5.26-4.242-7.021-7.53c-0.404-0.761-0.772-1.54-1.068-2.334c-1.482-3.778-1.844-7.835-1.171-11.587
					C1.9,11.631,4.537,7.222,8.792,4.628z"/>
				<path fill="#E83714" d="M8.764,4.731C9.033,4.563,9.305,4.4,9.584,4.249c0.616-0.338,1.24-0.624,1.875-0.864
					c1.277-0.482,2.634-0.736,3.928-0.76c1.584-0.021,3.092,0.227,4.542,0.693c3.583,1.15,6.932,3.75,9.491,7.335
					c0.765,1.092,1.477,2.26,2.066,3.516c0.393,0.797,0.75,1.646,1.057,2.511c1.216,3.466,1.602,6.952,1.188,10.106
					c-0.146,1.129-0.385,2.193-0.686,3.219c-0.211,0.673-0.446,1.321-0.733,1.95c-0.33,0.777-0.738,1.527-1.214,2.248
					c-0.737,1.208-1.97,2.251-3.078,3.095c-0.078,0.049-0.134,0.105-0.211,0.153c-0.975,0.701-2.037,1.292-3.166,1.746
					c-1.037,0.413-2.102,0.701-3.183,0.869c-1.858,0.356-3.787,0.337-5.654-0.029c-1.928-0.367-3.789-1.098-5.545-2.157
					c-2.786-1.696-5.231-4.226-6.965-7.485c-0.414-0.762-0.764-1.537-1.074-2.33c-1.466-3.753-1.833-7.791-1.167-11.529
					C1.923,11.709,4.548,7.312,8.764,4.731z"/>
				<path fill="#E83814" d="M8.732,4.83c0.266-0.171,0.539-0.333,0.818-0.477c0.61-0.344,1.226-0.636,1.864-0.874
					c1.28-0.482,2.627-0.735,3.913-0.747c1.585-0.015,3.063,0.248,4.499,0.724c3.529,1.163,6.842,3.774,9.377,7.35
					c0.778,1.083,1.481,2.257,2.085,3.502c0.383,0.808,0.744,1.636,1.046,2.5c1.236,3.444,1.646,6.913,1.248,10.055
					c-0.138,1.104-0.358,2.16-0.65,3.173c-0.197,0.671-0.44,1.311-0.704,1.931c-0.331,0.778-0.712,1.517-1.191,2.235
					c-0.725,1.209-1.976,2.259-3.085,3.083c-0.062,0.049-0.141,0.102-0.215,0.157c-0.98,0.696-2.047,1.28-3.183,1.721
					c-1.041,0.407-2.099,0.691-3.181,0.854c-1.851,0.344-3.751,0.314-5.632-0.043c-1.898-0.377-3.762-1.104-5.491-2.161
					c-2.778-1.687-5.203-4.211-6.927-7.455c-0.401-0.752-0.757-1.524-1.059-2.307c-1.458-3.745-1.817-7.748-1.158-11.47
					C1.958,11.791,4.545,7.409,8.732,4.83z"/>
				<path fill="#E83914" d="M8.706,4.928C8.975,4.76,9.242,4.593,9.523,4.448c0.604-0.338,1.227-0.636,1.856-0.877
					c1.264-0.478,2.61-0.728,3.885-0.729c1.585-0.008,3.033,0.268,4.46,0.744c3.487,1.18,6.75,3.8,9.279,7.363
					c0.765,1.08,1.475,2.255,2.077,3.499c0.382,0.806,0.735,1.627,1.046,2.494c1.244,3.429,1.68,6.872,1.309,9.977
					c-0.129,1.104-0.345,2.142-0.629,3.15c-0.186,0.657-0.412,1.293-0.686,1.908c-0.301,0.766-0.677,1.5-1.14,2.224
					c-0.711,1.205-1.992,2.253-3.094,3.07c-0.075,0.052-0.14,0.101-0.222,0.15c-0.984,0.693-2.055,1.274-3.188,1.706
					c-1.033,0.404-2.11,0.687-3.188,0.832c-1.838,0.337-3.736,0.315-5.582-0.055c-1.903-0.375-3.75-1.104-5.482-2.156
					c-2.743-1.686-5.152-4.191-6.863-7.417c-0.406-0.758-0.76-1.514-1.057-2.298c-1.445-3.719-1.806-7.702-1.155-11.403
					C1.989,11.865,4.553,7.508,8.706,4.928z"/>
				<path fill="#E83A15" d="M8.682,5.03c0.259-0.17,0.527-0.324,0.8-0.491c0.609-0.338,1.232-0.626,1.846-0.867
					c1.277-0.489,2.616-0.736,3.883-0.73c1.563,0.001,3.013,0.295,4.405,0.777c3.432,1.198,6.67,3.83,9.182,7.383
					c0.776,1.085,1.467,2.248,2.066,3.488c0.396,0.797,0.76,1.626,1.06,2.48c1.243,3.416,1.708,6.83,1.363,9.919
					c-0.12,1.082-0.323,2.121-0.582,3.114c-0.192,0.65-0.408,1.28-0.664,1.894c-0.301,0.755-0.672,1.482-1.125,2.197
					c-0.677,1.217-2.001,2.26-3.113,3.068c-0.063,0.051-0.135,0.102-0.203,0.151c-1,0.69-2.063,1.256-3.2,1.681
					c-1.038,0.399-2.117,0.672-3.195,0.815c-1.838,0.326-3.71,0.289-5.558-0.078c-1.879-0.379-3.71-1.107-5.431-2.15
					c-2.732-1.68-5.119-4.174-6.826-7.381c-0.403-0.753-0.75-1.51-1.047-2.288c-1.431-3.698-1.801-7.654-1.157-11.334
					C2.027,11.948,4.564,7.602,8.682,5.03z"/>
				<path fill="#E83C16" d="M8.666,5.134c0.255-0.17,0.513-0.331,0.786-0.485c0.604-0.345,1.212-0.636,1.826-0.874
					c1.275-0.501,2.615-0.739,3.875-0.728c1.559,0.02,2.975,0.318,4.35,0.814c3.403,1.2,6.596,3.841,9.093,7.394
					c0.767,1.072,1.46,2.248,2.059,3.48c0.394,0.788,0.751,1.612,1.064,2.463c1.244,3.399,1.73,6.797,1.417,9.859
					c-0.12,1.071-0.297,2.1-0.544,3.078c-0.185,0.647-0.393,1.274-0.638,1.874c-0.29,0.756-0.653,1.477-1.098,2.188
					c-0.682,1.222-2.018,2.255-3.112,3.056c-0.077,0.059-0.145,0.098-0.214,0.143c-1,0.687-2.081,1.25-3.208,1.67
					c-1.052,0.387-2.127,0.657-3.201,0.785c-1.816,0.326-3.695,0.283-5.524-0.084c-1.867-0.381-3.692-1.103-5.393-2.152
					c-2.717-1.668-5.092-4.157-6.791-7.347c-0.38-0.742-0.735-1.503-1.027-2.276c-1.42-3.667-1.789-7.609-1.16-11.266
					C2.053,12.024,4.555,7.7,8.666,5.134z"/>
				<path fill="#E83D17" d="M8.625,5.238c0.266-0.175,0.519-0.337,0.789-0.495c0.606-0.346,1.208-0.634,1.825-0.874
					c1.263-0.5,2.609-0.737,3.859-0.723c1.543,0.027,2.949,0.344,4.311,0.844c3.329,1.225,6.497,3.868,8.985,7.417
					c0.765,1.071,1.443,2.233,2.067,3.464c0.381,0.793,0.729,1.615,1.053,2.453c1.253,3.387,1.771,6.759,1.479,9.788
					c-0.103,1.069-0.29,2.084-0.518,3.062c-0.167,0.634-0.377,1.256-0.626,1.849c-0.267,0.75-0.61,1.461-1.053,2.17
					c-0.652,1.217-2.038,2.255-3.128,3.045c-0.067,0.055-0.134,0.101-0.208,0.152c-1.008,0.673-2.086,1.23-3.226,1.646
					c-1.045,0.386-2.127,0.646-3.201,0.763c-1.81,0.313-3.665,0.272-5.487-0.107c-1.855-0.377-3.667-1.104-5.35-2.141
					c-2.703-1.679-5.061-4.144-6.746-7.31c-0.389-0.742-0.729-1.497-1.031-2.259c-1.412-3.657-1.782-7.571-1.149-11.211
					C2.082,12.103,4.568,7.792,8.625,5.238z"/>
				<path fill="#E83E16" d="M8.597,5.336c0.246-0.172,0.517-0.332,0.787-0.479c0.592-0.36,1.203-0.649,1.812-0.893
					c1.253-0.499,2.601-0.733,3.836-0.709c1.54,0.048,2.925,0.362,4.265,0.873c3.293,1.238,6.418,3.884,8.897,7.429
					c0.752,1.077,1.436,2.231,2.049,3.457c0.38,0.786,0.743,1.607,1.062,2.442c1.268,3.373,1.81,6.717,1.527,9.725
					c-0.096,1.062-0.259,2.066-0.489,3.028c-0.153,0.633-0.341,1.239-0.582,1.826c-0.257,0.739-0.59,1.459-1.019,2.166
					c-0.648,1.219-2.049,2.254-3.139,3.027c-0.079,0.054-0.14,0.099-0.219,0.152c-1.001,0.671-2.086,1.215-3.224,1.624
					c-1.05,0.373-2.138,0.618-3.212,0.739c-1.795,0.309-3.654,0.265-5.46-0.113c-1.84-0.381-3.631-1.108-5.311-2.15
					c-2.681-1.666-5.026-4.124-6.687-7.271c-0.383-0.737-0.733-1.486-1.026-2.253c-1.415-3.629-1.771-7.518-1.153-11.133
					C2.121,12.179,4.578,7.894,8.597,5.336z"/>
				<path fill="#E83F17" d="M8.567,5.444C8.824,5.271,9.081,5.107,9.36,4.946c0.58-0.343,1.178-0.645,1.805-0.891
					c1.24-0.497,2.583-0.729,3.829-0.69c1.511,0.049,2.881,0.38,4.195,0.892c3.258,1.256,6.33,3.913,8.813,7.448
					c0.733,1.065,1.43,2.227,2.03,3.447c0.4,0.785,0.748,1.596,1.071,2.438c1.268,3.347,1.832,6.677,1.589,9.663
					c-0.096,1.042-0.254,2.034-0.454,2.987c-0.156,0.625-0.337,1.225-0.569,1.817c-0.245,0.73-0.574,1.437-0.997,2.145
					c-0.616,1.211-2.052,2.245-3.145,3.018c-0.064,0.056-0.134,0.098-0.211,0.151c-1.011,0.663-2.097,1.199-3.243,1.604
					c-1.052,0.37-2.14,0.614-3.216,0.721c-1.777,0.295-3.612,0.244-5.424-0.136c-1.821-0.381-3.604-1.105-5.272-2.137
					c-2.668-1.659-4.983-4.109-6.642-7.241c-0.376-0.733-0.724-1.479-1.016-2.235c-1.398-3.613-1.764-7.486-1.148-11.071
					C2.151,12.262,4.587,7.985,8.567,5.444z"/>
				<path fill="#E84018" d="M8.538,5.544c0.254-0.176,0.521-0.34,0.784-0.495c0.582-0.346,1.177-0.648,1.785-0.893
					c1.25-0.502,2.589-0.742,3.819-0.688c1.528,0.055,2.858,0.402,4.15,0.927c3.209,1.268,6.247,3.937,8.709,7.459
					c0.743,1.07,1.436,2.221,2.038,3.437c0.396,0.787,0.752,1.594,1.071,2.422c1.28,3.333,1.869,6.643,1.644,9.598
					c-0.084,1.047-0.224,2.022-0.424,2.965c-0.137,0.617-0.307,1.214-0.534,1.791c-0.237,0.731-0.551,1.426-0.964,2.134
					c-0.607,1.219-2.073,2.236-3.156,3.012c-0.065,0.053-0.145,0.092-0.213,0.139c-1.018,0.654-2.1,1.203-3.245,1.592
					c-1.067,0.362-2.157,0.602-3.232,0.701c-1.768,0.284-3.597,0.229-5.37-0.149c-1.819-0.393-3.6-1.109-5.255-2.137
					c-2.648-1.665-4.947-4.095-6.597-7.209c-0.379-0.727-0.709-1.462-1.012-2.218c-1.386-3.594-1.75-7.439-1.142-11.01
					C2.169,12.338,4.597,8.081,8.538,5.544z"/>
				<path fill="#E84219" d="M8.517,5.641c0.25-0.173,0.496-0.332,0.762-0.494c0.587-0.348,1.184-0.657,1.791-0.893
					c1.234-0.508,2.578-0.742,3.799-0.687c1.517,0.074,2.826,0.43,4.12,0.963c3.145,1.281,6.154,3.953,8.602,7.473
					c0.733,1.075,1.419,2.222,2.027,3.427c0.387,0.776,0.751,1.59,1.075,2.419c1.283,3.309,1.899,6.597,1.691,9.527
					c-0.06,1.024-0.201,1.992-0.376,2.924c-0.139,0.612-0.308,1.201-0.525,1.783c-0.211,0.72-0.512,1.416-0.923,2.109
					c-0.587,1.221-2.073,2.247-3.161,3.008c-0.074,0.041-0.158,0.094-0.225,0.138c-1.012,0.656-2.112,1.183-3.256,1.57
					c-1.063,0.357-2.137,0.582-3.227,0.674c-1.759,0.291-3.583,0.232-5.349-0.157c-1.806-0.387-3.563-1.109-5.206-2.138
					c-2.625-1.651-4.919-4.073-6.542-7.174c-0.386-0.715-0.724-1.46-1.013-2.206c-1.383-3.565-1.757-7.391-1.153-10.945
					C2.203,12.414,4.602,8.183,8.517,5.641z"/>
				<path fill="#E94319" d="M8.488,5.746c0.245-0.172,0.503-0.339,0.77-0.5c0.578-0.35,1.165-0.654,1.775-0.898
					c1.224-0.51,2.565-0.736,3.776-0.67c1.511,0.078,2.804,0.45,4.069,0.98c3.107,1.305,6.076,3.987,8.508,7.492
					c0.728,1.071,1.421,2.217,2.025,3.421c0.374,0.781,0.758,1.58,1.072,2.403c1.287,3.299,1.93,6.563,1.764,9.467
					c-0.077,1.019-0.189,1.979-0.348,2.896c-0.14,0.606-0.299,1.191-0.5,1.765c-0.212,0.712-0.509,1.398-0.902,2.091
					c-0.581,1.229-2.101,2.25-3.173,2.996c-0.079,0.049-0.143,0.093-0.218,0.14c-1.028,0.648-2.119,1.167-3.281,1.55
					c-1.058,0.348-2.133,0.56-3.214,0.657c-1.767,0.27-3.562,0.21-5.331-0.18c-1.778-0.396-3.524-1.111-5.158-2.143
					c-2.614-1.627-4.88-4.05-6.512-7.13c-0.364-0.715-0.695-1.45-0.987-2.19c-1.373-3.551-1.742-7.354-1.146-10.884
					C2.233,12.498,4.611,8.271,8.488,5.746z"/>
				<path fill="#E94419" d="M8.461,5.847C8.699,5.671,8.962,5.51,9.224,5.344c0.578-0.36,1.16-0.648,1.764-0.905
					c1.222-0.501,2.555-0.732,3.768-0.657c1.493,0.091,2.766,0.47,4.012,1c3.054,1.328,5.99,4.016,8.417,7.525
					c0.734,1.07,1.41,2.211,2.017,3.404c0.388,0.775,0.761,1.577,1.088,2.396c1.286,3.279,1.953,6.518,1.81,9.404
					c-0.057,1.012-0.18,1.952-0.324,2.867c-0.122,0.592-0.285,1.173-0.462,1.738c-0.208,0.709-0.477,1.389-0.88,2.079
					c-0.554,1.224-2.103,2.242-3.168,2.984c-0.087,0.053-0.163,0.092-0.242,0.138c-1.015,0.643-2.108,1.165-3.279,1.532
					c-1.057,0.34-2.14,0.55-3.216,0.634c-1.755,0.267-3.535,0.199-5.289-0.19c-1.77-0.4-3.515-1.116-5.137-2.134
					c-2.584-1.644-4.846-4.04-6.452-7.103c-0.376-0.706-0.709-1.435-0.99-2.181c-1.364-3.529-1.733-7.297-1.141-10.812
					C2.261,12.576,4.617,8.373,8.461,5.847z"/>
				<path fill="#E9451A" d="M8.422,5.946C8.68,5.769,8.927,5.606,9.188,5.45c0.568-0.361,1.165-0.659,1.752-0.91
					c1.213-0.514,2.557-0.735,3.765-0.649c1.481,0.1,2.73,0.487,3.952,1.033c3.008,1.333,5.92,4.031,8.314,7.528
					c0.732,1.069,1.419,2.206,2.024,3.396c0.382,0.775,0.747,1.57,1.08,2.388c1.299,3.261,1.987,6.48,1.862,9.334
					c-0.036,0.998-0.142,1.939-0.273,2.832c-0.12,0.593-0.259,1.17-0.448,1.726c-0.183,0.696-0.45,1.375-0.829,2.06
					c-0.556,1.235-2.132,2.244-3.214,2.976c-0.063,0.055-0.137,0.096-0.213,0.14c-1.021,0.637-2.142,1.148-3.293,1.513
					c-1.064,0.334-2.144,0.54-3.232,0.613c-1.731,0.257-3.498,0.176-5.24-0.208c-1.779-0.395-3.498-1.118-5.103-2.131
					c-2.572-1.639-4.813-4.021-6.405-7.064c-0.377-0.71-0.694-1.432-0.985-2.169c-1.36-3.511-1.722-7.261-1.147-10.752
					C2.298,12.654,4.628,8.465,8.422,5.946z"/>
				<path fill="#E9461B" d="M8.409,6.047c0.235-0.172,0.483-0.342,0.746-0.5C9.718,5.19,10.3,4.883,10.897,4.635
					c1.215-0.514,2.552-0.737,3.755-0.645c1.461,0.124,2.7,0.515,3.904,1.069c2.96,1.356,5.822,4.055,8.21,7.541
					c0.731,1.061,1.408,2.211,2.012,3.394c0.396,0.77,0.757,1.561,1.088,2.377c1.311,3.237,2.025,6.437,1.92,9.267
					c-0.024,0.995-0.121,1.915-0.24,2.806c-0.102,0.583-0.245,1.143-0.422,1.705c-0.175,0.688-0.432,1.361-0.804,2.046
					c-0.531,1.225-2.133,2.237-3.201,2.958c-0.079,0.056-0.151,0.098-0.23,0.143c-1.028,0.625-2.141,1.131-3.301,1.487
					c-1.058,0.338-2.153,0.532-3.243,0.592c-1.72,0.261-3.484,0.175-5.209-0.217c-1.754-0.398-3.468-1.119-5.064-2.132
					c-2.553-1.629-4.767-4.009-6.355-7.026c-0.363-0.703-0.689-1.427-0.97-2.159c-1.352-3.487-1.727-7.208-1.153-10.688
					C2.331,12.73,4.627,8.559,8.409,6.047z"/>
				<path fill="#E9471B" d="M8.373,6.146c0.24-0.17,0.489-0.34,0.743-0.496c0.577-0.363,1.153-0.671,1.73-0.923
					C12.064,4.213,13.404,4,14.58,4.094c1.462,0.124,2.689,0.542,3.872,1.093c2.905,1.376,5.733,4.084,8.116,7.573
					c0.719,1.056,1.411,2.189,2.018,3.378c0.377,0.764,0.75,1.55,1.076,2.356c1.313,3.225,2.053,6.399,1.981,9.21
					c-0.021,0.978-0.114,1.893-0.21,2.77c-0.096,0.579-0.228,1.14-0.388,1.686c-0.18,0.683-0.412,1.352-0.791,2.034
					c-0.503,1.232-2.145,2.242-3.208,2.953c-0.071,0.042-0.155,0.087-0.227,0.132c-1.029,0.631-2.148,1.129-3.308,1.476
					c-1.075,0.325-2.167,0.513-3.245,0.572c-1.712,0.238-3.47,0.155-5.179-0.241c-1.743-0.395-3.449-1.121-5.021-2.124
					c-2.543-1.632-4.755-3.986-6.318-6.99c-0.37-0.704-0.687-1.425-0.971-2.149c-1.325-3.466-1.704-7.167-1.132-10.625
					C2.357,12.81,4.634,8.654,8.373,6.146z"/>
				<path fill="#E9491B" d="M8.347,6.254c0.236-0.18,0.486-0.35,0.748-0.513c0.554-0.35,1.126-0.659,1.714-0.916
					c1.206-0.515,2.548-0.732,3.725-0.621c1.446,0.128,2.651,0.563,3.804,1.113c2.878,1.393,5.654,4.119,8.024,7.595
					c0.711,1.055,1.401,2.179,2.007,3.358c0.382,0.767,0.761,1.55,1.09,2.353c1.327,3.213,2.089,6.361,2.041,9.14
					c-0.022,0.976-0.087,1.877-0.185,2.749c-0.09,0.564-0.211,1.121-0.367,1.662c-0.156,0.676-0.396,1.339-0.748,2.017
					c-0.503,1.229-2.158,2.235-3.22,2.943c-0.078,0.042-0.16,0.086-0.239,0.136c-1.04,0.625-2.152,1.109-3.317,1.453
					c-1.076,0.315-2.162,0.498-3.242,0.544c-1.708,0.239-3.436,0.144-5.135-0.242c-1.74-0.418-3.437-1.118-4.999-2.132
					c-2.527-1.618-4.708-3.97-6.271-6.962c-0.354-0.689-0.686-1.401-0.961-2.121c-1.318-3.444-1.69-7.137-1.136-10.563
					C2.391,12.889,4.644,8.757,8.347,6.254z"/>
				<path fill="#E94A1C" d="M8.324,6.352c0.229-0.179,0.466-0.35,0.725-0.511c0.559-0.359,1.131-0.664,1.722-0.917
					c1.19-0.519,2.535-0.736,3.699-0.619c1.447,0.144,2.625,0.588,3.77,1.152c2.815,1.401,5.571,4.137,7.91,7.605
					c0.727,1.047,1.396,2.177,2.006,3.355c0.398,0.752,0.764,1.535,1.098,2.338c1.323,3.194,2.11,6.323,2.097,9.084
					c-0.014,0.955-0.064,1.847-0.156,2.709c-0.075,0.559-0.189,1.106-0.338,1.639c-0.144,0.664-0.367,1.322-0.721,2.001
					c-0.489,1.235-2.166,2.242-3.229,2.928c-0.077,0.044-0.157,0.098-0.228,0.139c-1.049,0.622-2.162,1.097-3.339,1.438
					c-1.071,0.308-2.173,0.484-3.248,0.525c-1.691,0.23-3.415,0.129-5.105-0.27c-1.723-0.408-3.397-1.125-4.958-2.121
					c-2.493-1.613-4.672-3.955-6.217-6.917c-0.358-0.697-0.679-1.403-0.958-2.121c-1.306-3.427-1.693-7.079-1.134-10.489
					C2.424,12.971,4.646,8.851,8.324,6.352z"/>
				<path fill="#E94B1D" d="M8.287,6.45c0.24-0.17,0.471-0.339,0.733-0.499c0.546-0.365,1.129-0.678,1.704-0.931
					c1.189-0.519,2.524-0.736,3.693-0.603c1.429,0.156,2.591,0.598,3.707,1.174c2.777,1.417,5.49,4.153,7.836,7.621
					c0.708,1.05,1.383,2.175,1.986,3.346c0.389,0.752,0.756,1.534,1.101,2.332c1.324,3.166,2.137,6.275,2.142,9.009
					c0.008,0.948-0.035,1.829-0.109,2.674c-0.072,0.557-0.173,1.099-0.314,1.633c-0.139,0.658-0.345,1.309-0.688,1.983
					c-0.477,1.238-2.186,2.234-3.236,2.922c-0.091,0.053-0.156,0.086-0.225,0.132c-1.052,0.611-2.176,1.088-3.363,1.414
					c-1.059,0.304-2.159,0.476-3.243,0.51c-1.683,0.223-3.394,0.118-5.077-0.287c-1.706-0.407-3.384-1.125-4.925-2.111
					c-2.472-1.62-4.635-3.943-6.165-6.892c-0.364-0.687-0.671-1.396-0.951-2.106c-1.305-3.395-1.672-7.035-1.129-10.433
					C2.453,13.045,4.658,8.943,8.287,6.45z"/>
				<path fill="#E94C1E" d="M8.263,6.556c0.23-0.177,0.475-0.347,0.723-0.503c0.552-0.372,1.108-0.683,1.688-0.936
					c1.196-0.526,2.521-0.733,3.693-0.602c1.412,0.167,2.556,0.628,3.662,1.203c2.723,1.443,5.383,4.188,7.715,7.643
					c0.714,1.048,1.39,2.17,1.993,3.332c0.394,0.753,0.757,1.539,1.096,2.33c1.342,3.149,2.184,6.228,2.208,8.946
					c0.012,0.935-0.031,1.805-0.083,2.644c-0.059,0.554-0.15,1.083-0.289,1.606c-0.117,0.655-0.314,1.302-0.655,1.982
					c-0.451,1.229-2.192,2.217-3.247,2.894c-0.077,0.05-0.15,0.092-0.225,0.133c-1.069,0.606-2.186,1.082-3.354,1.401
					c-1.085,0.298-2.185,0.458-3.272,0.484c-1.654,0.208-3.368,0.109-5.026-0.298c-1.704-0.407-3.358-1.124-4.888-2.11
					c-2.472-1.612-4.598-3.926-6.12-6.858c-0.362-0.681-0.671-1.378-0.949-2.092c-1.29-3.381-1.663-6.991-1.119-10.365
					C2.489,13.133,4.67,9.037,8.263,6.556z"/>
				<path fill="#E94D1E" d="M8.231,6.658c0.235-0.183,0.47-0.349,0.719-0.512c0.544-0.365,1.104-0.679,1.692-0.94
					c1.179-0.521,2.512-0.725,3.658-0.587c1.421,0.182,2.532,0.651,3.619,1.242c2.675,1.447,5.31,4.198,7.629,7.646
					c0.705,1.046,1.385,2.166,1.985,3.331c0.39,0.745,0.77,1.52,1.102,2.308c1.341,3.146,2.208,6.194,2.265,8.886
					c0.002,0.919-0.015,1.783-0.057,2.609c-0.055,0.545-0.134,1.074-0.27,1.594c-0.104,0.646-0.29,1.298-0.62,1.958
					c-0.42,1.242-2.217,2.227-3.258,2.896c-0.072,0.048-0.144,0.088-0.235,0.135c-1.05,0.599-2.186,1.065-3.358,1.374
					c-1.088,0.291-2.182,0.442-3.265,0.459c-1.66,0.209-3.357,0.096-5-0.315c-1.689-0.402-3.329-1.12-4.852-2.113
					c-2.445-1.594-4.56-3.895-6.082-6.81c-0.349-0.676-0.657-1.374-0.927-2.084c-1.283-3.352-1.659-6.946-1.131-10.295
					C2.513,13.2,4.669,9.134,8.231,6.658z"/>
				<path fill="#EA4E1E" d="M8.21,6.763c0.223-0.187,0.47-0.364,0.709-0.517c0.539-0.372,1.1-0.681,1.67-0.937
					c1.172-0.53,2.514-0.732,3.664-0.577c1.395,0.189,2.491,0.667,3.563,1.255c2.633,1.467,5.229,4.226,7.528,7.673
					c0.704,1.047,1.374,2.161,1.977,3.316c0.395,0.748,0.764,1.516,1.108,2.301c1.349,3.125,2.231,6.16,2.313,8.82
					c0.031,0.915,0.019,1.767-0.02,2.58c-0.041,0.536-0.117,1.055-0.235,1.569c-0.088,0.634-0.275,1.277-0.592,1.944
					c-0.422,1.248-2.237,2.228-3.274,2.888c-0.072,0.045-0.153,0.086-0.223,0.132c-1.066,0.589-2.209,1.053-3.378,1.358
					c-1.086,0.283-2.18,0.43-3.272,0.442c-1.643,0.193-3.314,0.077-4.972-0.331c-1.663-0.415-3.301-1.134-4.797-2.11
					c-2.441-1.599-4.541-3.889-6.041-6.777c-0.349-0.685-0.652-1.372-0.921-2.077c-1.279-3.333-1.651-6.897-1.125-10.234
					C2.548,13.284,4.67,9.233,8.21,6.763z"/>
				<path fill="#EA4F1F" d="M8.174,6.863c0.229-0.182,0.465-0.357,0.709-0.514c0.542-0.367,1.094-0.69,1.668-0.942
					c1.169-0.524,2.506-0.742,3.631-0.575c1.397,0.205,2.488,0.695,3.521,1.293c2.586,1.482,5.139,4.245,7.425,7.684
					c0.707,1.044,1.378,2.158,1.994,3.308c0.38,0.748,0.76,1.514,1.095,2.292c1.366,3.105,2.274,6.114,2.381,8.75
					c0.037,0.902,0.022,1.743,0.017,2.555c-0.042,0.527-0.114,1.044-0.21,1.552c-0.087,0.627-0.254,1.26-0.573,1.92
					c-0.398,1.252-2.236,2.227-3.286,2.883c-0.063,0.043-0.139,0.086-0.218,0.125c-1.079,0.592-2.215,1.043-3.389,1.344
					c-1.093,0.272-2.188,0.411-3.276,0.417c-1.635,0.188-3.31,0.064-4.93-0.335c-1.659-0.419-3.271-1.136-4.767-2.114
					c-2.416-1.593-4.496-3.873-5.992-6.745c-0.344-0.671-0.657-1.36-0.918-2.059c-1.275-3.313-1.638-6.854-1.122-10.178
					C2.58,13.364,4.678,9.33,8.174,6.863z"/>
				<path fill="#EA5020" d="M8.146,6.959c0.232-0.182,0.462-0.351,0.701-0.514c0.542-0.369,1.092-0.686,1.656-0.942
					c1.165-0.538,2.5-0.736,3.632-0.557c1.373,0.205,2.441,0.706,3.462,1.317c2.553,1.5,5.054,4.269,7.341,7.696
					c0.692,1.043,1.359,2.148,1.968,3.298c0.396,0.743,0.76,1.504,1.109,2.279c1.369,3.091,2.308,6.073,2.431,8.692
					c0.053,0.893,0.058,1.722,0.062,2.518c-0.038,0.522-0.101,1.034-0.201,1.535c-0.069,0.621-0.23,1.254-0.53,1.913
					c-0.388,1.244-2.249,2.222-3.299,2.866c-0.077,0.049-0.157,0.086-0.222,0.128c-1.081,0.586-2.222,1.029-3.391,1.317
					c-1.096,0.269-2.201,0.402-3.292,0.396c-1.614,0.185-3.274,0.058-4.887-0.354c-1.649-0.422-3.252-1.132-4.731-2.11
					c-2.401-1.588-4.47-3.849-5.941-6.708c-0.353-0.668-0.651-1.349-0.921-2.042c-1.257-3.295-1.619-6.815-1.12-10.108
					C2.611,13.443,4.681,9.425,8.146,6.959z"/>
				<path fill="#EA5120" d="M8.121,7.064C8.342,6.88,8.579,6.711,8.814,6.543c0.535-0.366,1.074-0.686,1.654-0.949
					c1.155-0.535,2.485-0.727,3.611-0.553c1.367,0.227,2.411,0.74,3.402,1.35c2.505,1.522,4.985,4.301,7.258,7.715
					c0.678,1.039,1.349,2.152,1.956,3.293c0.388,0.736,0.771,1.496,1.112,2.264c1.384,3.071,2.339,6.036,2.49,8.627
					c0.053,0.884,0.077,1.698,0.086,2.494c-0.022,0.512-0.077,1.008-0.172,1.511c-0.054,0.62-0.201,1.237-0.491,1.897
					c-0.369,1.243-2.269,2.219-3.302,2.854c-0.08,0.043-0.155,0.087-0.238,0.125c-1.068,0.577-2.215,1.018-3.406,1.303
					c-1.085,0.26-2.188,0.393-3.283,0.372c-1.609,0.172-3.253,0.036-4.854-0.364c-1.638-0.425-3.225-1.136-4.704-2.115
					c-2.377-1.578-4.419-3.84-5.892-6.672c-0.342-0.658-0.648-1.341-0.903-2.034c-1.254-3.271-1.626-6.758-1.119-10.034
					C2.64,13.521,4.694,9.521,8.121,7.064z"/>
				<path fill="#EA5220" d="M8.088,7.167c0.23-0.186,0.46-0.357,0.707-0.521c0.513-0.367,1.069-0.695,1.631-0.952
					c1.152-0.528,2.477-0.732,3.596-0.549c1.359,0.24,2.38,0.765,3.36,1.38c2.453,1.535,4.887,4.321,7.151,7.732
					c0.682,1.036,1.351,2.145,1.952,3.281c0.4,0.735,0.771,1.49,1.117,2.253c1.388,3.057,2.366,6,2.545,8.566
					c0.067,0.878,0.101,1.684,0.129,2.458c-0.021,0.502-0.071,0.999-0.156,1.491c-0.043,0.608-0.178,1.226-0.467,1.895
					c-0.352,1.242-2.277,2.204-3.31,2.831c-0.079,0.046-0.153,0.083-0.235,0.129c-1.069,0.565-2.231,0.998-3.417,1.283
					c-1.091,0.253-2.181,0.369-3.284,0.354c-1.6,0.161-3.233,0.023-4.822-0.387c-1.63-0.429-3.204-1.131-4.671-2.109
					c-2.356-1.576-4.393-3.816-5.843-6.633c-0.34-0.663-0.643-1.333-0.899-2.021c-1.232-3.253-1.62-6.716-1.112-9.973
					C2.673,13.599,4.691,9.618,8.088,7.167z"/>
				<path fill="#EA5321" d="M8.058,7.272c0.23-0.188,0.465-0.371,0.7-0.526c0.519-0.38,1.047-0.692,1.618-0.958
					c1.147-0.537,2.477-0.733,3.59-0.53c1.352,0.246,2.353,0.775,3.315,1.402c2.405,1.552,4.802,4.348,7.045,7.753
					c0.688,1.032,1.342,2.143,1.949,3.271c0.405,0.73,0.78,1.475,1.134,2.24c1.38,3.039,2.387,5.961,2.596,8.496
					c0.072,0.866,0.112,1.657,0.144,2.429c-0.002,0.497-0.033,0.989-0.105,1.476c-0.045,0.6-0.163,1.209-0.453,1.871
					c-0.328,1.244-2.291,2.208-3.311,2.825c-0.085,0.054-0.157,0.086-0.227,0.127c-1.095,0.57-2.25,1-3.435,1.261
					c-1.1,0.256-2.198,0.364-3.298,0.334c-1.594,0.157-3.207,0.021-4.783-0.4c-1.614-0.423-3.185-1.138-4.635-2.099
					c-2.34-1.572-4.35-3.801-5.795-6.603c-0.337-0.659-0.631-1.333-0.888-2.007c-1.234-3.229-1.599-6.672-1.116-9.913
					C2.697,13.68,4.704,9.719,8.058,7.272z"/>
				<path fill="#EA5422" d="M8.035,7.37c0.218-0.186,0.453-0.355,0.684-0.527c0.514-0.372,1.058-0.693,1.626-0.958
					c1.132-0.541,2.454-0.733,3.562-0.521c1.342,0.245,2.324,0.798,3.264,1.43c2.363,1.564,4.713,4.366,6.951,7.768
					c0.68,1.033,1.346,2.134,1.949,3.256c0.398,0.733,0.767,1.478,1.124,2.244c1.385,3.014,2.42,5.908,2.651,8.424
					c0.087,0.853,0.14,1.645,0.193,2.396c-0.001,0.495-0.023,0.973-0.091,1.454c-0.025,0.6-0.138,1.207-0.416,1.849
					c-0.312,1.261-2.301,2.218-3.327,2.828c-0.082,0.048-0.158,0.083-0.239,0.126c-1.084,0.557-2.242,0.981-3.433,1.24
					c-1.1,0.248-2.208,0.346-3.296,0.31c-1.572,0.143-3.188,0.006-4.743-0.415c-1.618-0.429-3.161-1.142-4.614-2.1
					c-2.319-1.567-4.309-3.784-5.743-6.564c-0.333-0.661-0.63-1.316-0.887-1.992c-1.215-3.215-1.594-6.641-1.109-9.85
					C2.738,13.762,4.717,9.805,8.035,7.37z"/>
				<path fill="#EA5522" d="M8.011,7.471c0.218-0.182,0.431-0.356,0.678-0.527c0.513-0.38,1.05-0.702,1.601-0.963
					c1.133-0.538,2.459-0.726,3.564-0.511c1.327,0.26,2.286,0.822,3.221,1.46c2.291,1.589,4.62,4.395,6.841,7.783
					c0.68,1.031,1.341,2.12,1.941,3.244c0.397,0.728,0.77,1.475,1.129,2.231c1.398,2.997,2.46,5.869,2.714,8.367
					c0.082,0.837,0.156,1.61,0.23,2.359c-0.012,0.489-0.019,0.958-0.086,1.435c-0.005,0.597-0.1,1.2-0.368,1.841
					c-0.31,1.248-2.319,2.21-3.342,2.818c-0.077,0.04-0.163,0.075-0.237,0.113c-1.089,0.556-2.253,0.973-3.44,1.226
					c-1.101,0.242-2.216,0.332-3.313,0.289c-1.565,0.143-3.149-0.004-4.727-0.424c-1.575-0.435-3.113-1.152-4.544-2.102
					c-2.307-1.563-4.293-3.772-5.692-6.539c-0.349-0.635-0.637-1.301-0.898-1.975c-1.199-3.188-1.568-6.591-1.099-9.778
					C2.767,13.835,4.725,9.907,8.011,7.471z"/>
				<path fill="#EA5623" d="M7.975,7.571c0.227-0.185,0.449-0.36,0.684-0.53c0.507-0.378,1.032-0.701,1.595-0.963
					c1.117-0.544,2.457-0.729,3.534-0.504c1.327,0.271,2.271,0.847,3.176,1.491c2.256,1.601,4.538,4.411,6.747,7.797
					c0.663,1.035,1.332,2.124,1.943,3.235c0.394,0.727,0.763,1.467,1.133,2.223c1.407,2.988,2.479,5.824,2.766,8.304
					c0.091,0.834,0.17,1.594,0.26,2.325c0.003,0.485-0.005,0.955-0.049,1.418c-0.008,0.579-0.095,1.181-0.353,1.829
					c-0.29,1.244-2.339,2.205-3.341,2.802c-0.084,0.041-0.167,0.072-0.242,0.121c-1.097,0.543-2.26,0.948-3.449,1.192
					c-1.107,0.242-2.223,0.321-3.32,0.272c-1.558,0.13-3.14-0.021-4.675-0.442c-1.578-0.433-3.11-1.142-4.534-2.098
					c-2.278-1.552-4.245-3.752-5.646-6.492c-0.335-0.645-0.616-1.304-0.875-1.971c-1.196-3.167-1.559-6.547-1.107-9.713
					C2.8,13.911,4.732,10.003,7.975,7.571z"/>
				<path fill="#EA5723" d="M7.945,7.674C8.162,7.49,8.38,7.312,8.617,7.145c0.508-0.381,1.043-0.706,1.583-0.967
					c1.124-0.55,2.453-0.736,3.542-0.507c1.308,0.29,2.242,0.878,3.115,1.523c2.212,1.622,4.458,4.438,6.658,7.816
					c0.66,1.026,1.326,2.127,1.928,3.233c0.399,0.721,0.775,1.457,1.142,2.206c1.407,2.966,2.512,5.781,2.816,8.233
					c0.108,0.822,0.189,1.574,0.285,2.302c0.029,0.468,0.026,0.935-0.021,1.396c0.019,0.574-0.059,1.164-0.316,1.81
					c-0.259,1.249-2.347,2.206-3.353,2.793c-0.075,0.038-0.154,0.077-0.235,0.113c-1.109,0.549-2.271,0.946-3.473,1.193
					c-1.101,0.218-2.219,0.3-3.315,0.237c-1.541,0.131-3.124-0.031-4.64-0.456c-1.56-0.43-3.087-1.146-4.49-2.096
					c-2.27-1.551-4.208-3.737-5.609-6.46c-0.326-0.636-0.605-1.287-0.858-1.95c-1.195-3.145-1.57-6.506-1.104-9.649
					C2.832,13.991,4.747,10.096,7.945,7.674z"/>
				<path fill="#EA5824" d="M7.923,7.78c0.2-0.19,0.435-0.374,0.661-0.538c0.503-0.37,1.021-0.701,1.57-0.968
					c1.117-0.554,2.452-0.739,3.534-0.488c1.292,0.287,2.204,0.89,3.058,1.547c2.179,1.631,4.385,4.46,6.563,7.83
					c0.658,1.021,1.323,2.113,1.918,3.214c0.406,0.724,0.791,1.454,1.143,2.205c1.413,2.948,2.548,5.733,2.883,8.163
					c0.105,0.809,0.216,1.561,0.321,2.27c0.034,0.47,0.034,0.927,0.007,1.385c0.021,0.56-0.039,1.15-0.29,1.784
					c-0.254,1.26-2.356,2.208-3.365,2.783c-0.082,0.041-0.167,0.082-0.24,0.115c-1.112,0.545-2.272,0.94-3.482,1.168
					c-1.105,0.223-2.213,0.291-3.31,0.225c-1.524,0.119-3.099-0.049-4.617-0.475c-1.549-0.443-3.058-1.138-4.442-2.085
					c-2.25-1.552-4.192-3.718-5.572-6.432c-0.319-0.63-0.597-1.283-0.854-1.939C2.23,24.419,1.861,21.09,2.298,17.96
					C2.86,14.075,4.747,10.188,7.923,7.78z"/>
				<path fill="#EB5925" d="M7.898,7.878c0.206-0.189,0.434-0.364,0.646-0.536C9.048,6.967,9.57,6.639,10.113,6.37
					c1.12-0.548,2.438-0.736,3.511-0.483c1.294,0.309,2.179,0.917,3.025,1.575c2.119,1.657,4.29,4.486,6.452,7.849
					c0.665,1.022,1.318,2.108,1.922,3.209c0.397,0.72,0.785,1.449,1.148,2.181c1.419,2.935,2.57,5.71,2.931,8.107
					c0.115,0.811,0.226,1.535,0.353,2.24c0.041,0.465,0.062,0.91,0.029,1.369c0.031,0.556-0.021,1.135-0.252,1.776
					c-0.235,1.257-2.375,2.204-3.379,2.761c-0.074,0.046-0.156,0.081-0.235,0.121c-1.108,0.535-2.289,0.918-3.496,1.148
					c-1.104,0.214-2.223,0.278-3.318,0.205c-1.519,0.105-3.061-0.067-4.577-0.491c-1.53-0.438-3.031-1.145-4.402-2.094
					c-2.241-1.539-4.155-3.693-5.529-6.382c-0.316-0.631-0.606-1.276-0.848-1.933c-1.17-3.104-1.542-6.409-1.098-9.522
					C2.888,14.154,4.749,10.283,7.898,7.878z"/>
				<path fill="#EB5A25" d="M7.865,7.975c0.206-0.181,0.432-0.358,0.647-0.528c0.503-0.385,1.023-0.717,1.566-0.985
					c1.105-0.544,2.427-0.735,3.491-0.471c1.292,0.316,2.144,0.937,2.974,1.604c2.079,1.679,4.202,4.507,6.362,7.869
					c0.646,1.022,1.308,2.101,1.918,3.202c0.392,0.709,0.779,1.437,1.139,2.176c1.431,2.903,2.61,5.65,2.991,8.038
					c0.125,0.791,0.242,1.51,0.391,2.201c0.041,0.459,0.071,0.908,0.05,1.347c0.054,0.549,0.005,1.126-0.228,1.763
					c-0.223,1.257-2.378,2.19-3.379,2.76c-0.079,0.043-0.171,0.079-0.246,0.115c-1.107,0.527-2.297,0.912-3.486,1.124
					c-1.119,0.211-2.241,0.266-3.336,0.181c-1.512,0.102-3.046-0.075-4.544-0.5c-1.516-0.442-2.996-1.154-4.364-2.093
					c-2.224-1.536-4.125-3.68-5.474-6.351C4.016,28.801,3.73,28.16,3.492,27.51c-1.166-3.081-1.537-6.368-1.099-9.462
					C2.928,14.231,4.762,10.383,7.865,7.975z"/>
				<path fill="#EB5B25" d="M7.836,8.078C8.054,7.892,8.263,7.72,8.479,7.544c0.494-0.386,1.01-0.714,1.545-0.983
					c1.108-0.562,2.434-0.736,3.485-0.47c1.277,0.334,2.116,0.962,2.928,1.638c2.034,1.688,4.121,4.536,6.264,7.887
					c0.652,1.018,1.299,2.097,1.906,3.188c0.4,0.707,0.791,1.43,1.155,2.165c1.426,2.889,2.624,5.619,3.032,7.981
					c0.143,0.778,0.285,1.486,0.43,2.17c0.059,0.442,0.097,0.88,0.08,1.319c0.058,0.549,0.024,1.122-0.187,1.753
					c-0.209,1.258-2.407,2.193-3.406,2.748c-0.067,0.042-0.156,0.072-0.236,0.114c-1.128,0.519-2.297,0.895-3.505,1.106
					c-1.127,0.2-2.241,0.25-3.332,0.153c-1.51,0.096-3.022-0.084-4.511-0.518c-1.51-0.438-2.981-1.149-4.338-2.079
					c-2.199-1.532-4.076-3.672-5.43-6.314c-0.308-0.629-0.591-1.259-0.828-1.914c-1.16-3.053-1.517-6.317-1.104-9.391
					C2.955,14.316,4.765,10.481,7.836,8.078z"/>
				<path fill="#EB5C26" d="M7.811,8.182c0.203-0.188,0.422-0.365,0.644-0.538c0.491-0.38,0.996-0.714,1.528-0.99
					c1.106-0.562,2.419-0.733,3.469-0.451c1.268,0.341,2.087,0.979,2.876,1.661c1.982,1.711,4.038,4.554,6.162,7.898
					c0.65,1.022,1.302,2.086,1.908,3.181c0.4,0.708,0.785,1.432,1.146,2.152c1.455,2.876,2.663,5.579,3.121,7.917
					c0.137,0.772,0.28,1.464,0.453,2.14c0.061,0.435,0.093,0.869,0.093,1.308c0.071,0.538,0.055,1.101-0.156,1.73
					c-0.189,1.259-2.414,2.194-3.413,2.732c-0.073,0.049-0.153,0.079-0.241,0.115c-1.118,0.518-2.292,0.886-3.523,1.087
					c-1.116,0.194-2.23,0.242-3.328,0.141c-1.493,0.088-3.009-0.096-4.476-0.536c-1.495-0.44-2.948-1.151-4.301-2.084
					c-2.179-1.52-4.042-3.642-5.37-6.281c-0.313-0.613-0.596-1.249-0.833-1.894c-1.143-3.032-1.515-6.275-1.104-9.326
					C2.982,14.394,4.775,10.57,7.811,8.182z"/>
				<path fill="#EB5D27" d="M7.788,8.28c0.194-0.182,0.411-0.367,0.634-0.54c0.482-0.382,0.984-0.715,1.531-0.987
					c1.082-0.561,2.409-0.739,3.449-0.447c1.251,0.351,2.057,1.01,2.821,1.693c1.939,1.719,3.953,4.576,6.069,7.913
					c0.647,1.014,1.295,2.092,1.889,3.171c0.412,0.699,0.796,1.419,1.169,2.145c1.448,2.859,2.687,5.532,3.16,7.85
					c0.144,0.756,0.301,1.445,0.483,2.105c0.079,0.438,0.127,0.863,0.132,1.287c0.09,0.531,0.077,1.097-0.137,1.72
					c-0.175,1.266-2.423,2.188-3.415,2.729c-0.073,0.043-0.158,0.073-0.236,0.104c-1.136,0.514-2.324,0.877-3.532,1.071
					c-1.112,0.188-2.238,0.218-3.338,0.118c-1.482,0.083-2.984-0.108-4.438-0.55c-1.487-0.442-2.938-1.148-4.269-2.085
					c-2.159-1.515-4.001-3.618-5.328-6.235c-0.303-0.618-0.577-1.245-0.823-1.885c-1.136-3.018-1.5-6.231-1.093-9.262
					C3.022,14.473,4.772,10.667,7.788,8.28z"/>
				<path fill="#EB5E28" d="M7.751,8.388c0.203-0.186,0.414-0.371,0.638-0.541C8.867,7.454,9.37,7.121,9.909,6.849
					c1.084-0.562,2.396-0.733,3.437-0.436c1.238,0.359,2.021,1.034,2.767,1.718c1.898,1.743,3.867,4.609,5.978,7.928
					c0.631,1.016,1.286,2.086,1.895,3.166c0.392,0.702,0.78,1.414,1.157,2.131c1.45,2.847,2.721,5.491,3.208,7.791
					c0.163,0.742,0.335,1.417,0.53,2.073c0.077,0.429,0.132,0.844,0.148,1.266c0.101,0.527,0.091,1.076-0.096,1.705
					c-0.158,1.257-2.438,2.188-3.43,2.715c-0.091,0.036-0.158,0.077-0.239,0.107c-1.134,0.507-2.325,0.866-3.539,1.05
					c-1.118,0.177-2.245,0.208-3.347,0.095c-1.467,0.075-2.957-0.115-4.401-0.558c-1.471-0.448-2.904-1.156-4.225-2.083
					C7.601,34,5.777,31.9,4.46,29.309c-0.313-0.612-0.579-1.237-0.812-1.861c-1.129-3-1.492-6.198-1.09-9.211
					C3.052,14.548,4.785,10.766,7.751,8.388z"/>
				<path fill="#EB5E29" d="M7.728,8.487c0.202-0.19,0.405-0.368,0.611-0.538c0.491-0.396,0.992-0.729,1.52-1.004
					c1.08-0.567,2.404-0.737,3.423-0.428c1.236,0.369,1.998,1.054,2.723,1.748c1.848,1.754,3.795,4.619,5.875,7.949
					c0.644,1.01,1.286,2.075,1.897,3.143c0.4,0.7,0.786,1.416,1.155,2.124c1.462,2.833,2.749,5.447,3.271,7.724
					c0.169,0.735,0.358,1.405,0.556,2.053c0.094,0.415,0.148,0.826,0.18,1.239c0.103,0.526,0.124,1.066-0.067,1.693
					c-0.146,1.259-2.442,2.181-3.435,2.702c-0.084,0.041-0.157,0.067-0.237,0.108c-1.136,0.496-2.333,0.852-3.564,1.036
					c-1.122,0.167-2.234,0.188-3.346,0.074c-1.462,0.063-2.931-0.145-4.366-0.581c-1.465-0.446-2.877-1.153-4.196-2.08
					c-2.125-1.507-3.932-3.593-5.228-6.174c-0.311-0.607-0.581-1.22-0.813-1.853c-1.128-2.979-1.486-6.142-1.096-9.139
					C3.083,14.627,4.792,10.871,7.728,8.487z"/>
				<path fill="#EB5F29" d="M7.692,8.59c0.207-0.188,0.406-0.371,0.625-0.55c0.472-0.391,0.958-0.726,1.496-1
					c1.074-0.569,2.396-0.737,3.416-0.42c1.221,0.386,1.965,1.077,2.679,1.782c1.8,1.782,3.693,4.65,5.777,7.961
					c0.627,1.009,1.274,2.079,1.887,3.14c0.392,0.695,0.78,1.4,1.159,2.113c1.465,2.819,2.78,5.405,3.321,7.658
					c0.175,0.728,0.373,1.378,0.599,2.013c0.099,0.416,0.171,0.817,0.207,1.229c0.113,0.517,0.141,1.055-0.055,1.668
					c-0.123,1.271-2.459,2.19-3.435,2.701c-0.092,0.037-0.167,0.068-0.243,0.096c-1.142,0.504-2.343,0.85-3.567,1.019
					c-1.123,0.171-2.25,0.181-3.351,0.054c-1.445,0.056-2.912-0.161-4.331-0.587c-1.459-0.457-2.857-1.156-4.157-2.084
					c-2.115-1.508-3.908-3.569-5.197-6.136c-0.295-0.601-0.567-1.215-0.791-1.844c-1.11-2.952-1.481-6.094-1.093-9.064
					C3.11,14.707,4.797,10.969,7.692,8.59z"/>
				<path fill="#EB6029" d="M7.672,8.689c0.194-0.188,0.401-0.373,0.61-0.551c0.475-0.385,0.963-0.732,1.491-0.996
					c1.065-0.574,2.383-0.744,3.401-0.415c1.212,0.391,1.933,1.101,2.622,1.802c1.761,1.8,3.608,4.672,5.691,7.979
					c0.625,1.015,1.257,2.072,1.875,3.129c0.393,0.705,0.783,1.401,1.163,2.106c1.472,2.799,2.802,5.362,3.383,7.592
					c0.186,0.714,0.393,1.358,0.621,1.989c0.104,0.406,0.186,0.803,0.233,1.201c0.13,0.513,0.159,1.046-0.007,1.653
					c-0.119,1.277-2.489,2.185-3.46,2.687c-0.078,0.047-0.162,0.076-0.243,0.108c-1.147,0.499-2.34,0.83-3.559,0.996
					c-1.14,0.159-2.271,0.164-3.375,0.032c-1.434,0.043-2.888-0.166-4.295-0.612c-1.434-0.449-2.835-1.15-4.128-2.068
					c-2.078-1.505-3.852-3.568-5.13-6.1c-0.306-0.602-0.562-1.215-0.799-1.837c-1.096-2.931-1.46-6.048-1.087-8.999
					C3.143,14.787,4.809,11.053,7.672,8.689z"/>
				<path fill="#EB612A" d="M7.631,8.79c0.209-0.193,0.406-0.368,0.617-0.546c0.474-0.396,0.966-0.731,1.483-1.019
					c1.056-0.567,2.375-0.726,3.379-0.394c1.211,0.394,1.916,1.127,2.58,1.834c1.706,1.818,3.524,4.699,5.584,7.996
					c0.617,1.005,1.262,2.066,1.873,3.121c0.396,0.695,0.798,1.392,1.164,2.095c1.487,2.778,2.838,5.323,3.452,7.526
					c0.186,0.701,0.399,1.341,0.65,1.96c0.109,0.396,0.204,0.781,0.255,1.176c0.137,0.512,0.181,1.034,0.021,1.65
					c-0.095,1.268-2.486,2.176-3.477,2.675c-0.067,0.041-0.157,0.068-0.239,0.104c-1.146,0.485-2.352,0.808-3.579,0.968
					c-1.139,0.157-2.255,0.152-3.37,0.015c-1.421,0.038-2.855-0.174-4.25-0.629c-1.437-0.448-2.825-1.153-4.093-2.063
					c-2.077-1.498-3.833-3.556-5.091-6.071c-0.293-0.593-0.562-1.2-0.787-1.814c-1.09-2.912-1.464-6.006-1.081-8.941
					C3.177,14.857,4.812,11.146,7.631,8.79z"/>
				<path fill="#EB622B" d="M7.616,8.893c0.191-0.187,0.398-0.377,0.602-0.546c0.459-0.398,0.948-0.738,1.462-1.016
					c1.064-0.572,2.38-0.746,3.377-0.391c1.198,0.406,1.89,1.146,2.53,1.857c1.672,1.836,3.443,4.724,5.48,8.019
					c0.617,1.004,1.268,2.058,1.872,3.108c0.404,0.691,0.796,1.377,1.174,2.081c1.479,2.763,2.877,5.273,3.491,7.458
					c0.209,0.697,0.436,1.325,0.699,1.924c0.122,0.396,0.213,0.779,0.271,1.171c0.163,0.489,0.219,1.02,0.06,1.632
					c-0.084,1.271-2.514,2.175-3.485,2.66c-0.074,0.042-0.161,0.073-0.243,0.104c-1.15,0.476-2.357,0.797-3.592,0.958
					c-1.134,0.139-2.262,0.139-3.369-0.012c-1.406,0.029-2.839-0.199-4.224-0.649c-1.419-0.455-2.786-1.153-4.048-2.06
					c-2.059-1.492-3.794-3.525-5.04-6.036c-0.302-0.586-0.551-1.188-0.782-1.8c-1.085-2.893-1.457-5.969-1.088-8.872
					C3.21,14.936,4.825,11.246,7.616,8.893z"/>
				<path fill="#EC632C" d="M7.585,9.002c0.193-0.199,0.399-0.381,0.604-0.559c0.447-0.39,0.944-0.739,1.444-1.02
					c1.061-0.575,2.38-0.737,3.365-0.38c1.191,0.418,1.855,1.168,2.487,1.889c1.614,1.853,3.352,4.747,5.377,8.033
					c0.63,1.004,1.263,2.054,1.865,3.097c0.403,0.689,0.796,1.378,1.186,2.072c1.489,2.743,2.892,5.237,3.546,7.401
					c0.216,0.684,0.443,1.301,0.724,1.882c0.137,0.386,0.245,0.767,0.305,1.153c0.163,0.489,0.23,1.005,0.083,1.612
					c-0.06,1.274-2.525,2.169-3.486,2.656c-0.078,0.037-0.163,0.072-0.242,0.104c-1.164,0.471-2.371,0.791-3.608,0.936
					c-1.125,0.133-2.266,0.126-3.366-0.035c-1.402,0.021-2.812-0.203-4.19-0.653c-1.405-0.468-2.768-1.159-4.012-2.066
					c-2.04-1.487-3.766-3.509-5.009-6c-0.292-0.583-0.55-1.178-0.77-1.782c-1.074-2.877-1.438-5.927-1.079-8.816
					C3.233,15.02,4.825,11.345,7.585,9.002z"/>
				<path fill="#EC642C" d="M7.558,9.098c0.185-0.193,0.388-0.377,0.594-0.551c0.453-0.399,0.93-0.746,1.438-1.021
					c1.055-0.583,2.366-0.736,3.358-0.38c1.172,0.435,1.819,1.197,2.427,1.925c1.569,1.867,3.268,4.77,5.288,8.039
					c0.617,1.01,1.257,2.052,1.864,3.098c0.392,0.686,0.789,1.368,1.181,2.058c1.493,2.721,2.917,5.193,3.6,7.332
					c0.217,0.674,0.467,1.281,0.762,1.857c0.134,0.383,0.258,0.752,0.329,1.127c0.176,0.488,0.251,0.999,0.115,1.604
					c-0.05,1.275-2.545,2.17-3.502,2.643c-0.085,0.032-0.163,0.069-0.247,0.104c-1.158,0.468-2.375,0.78-3.607,0.914
					c-1.134,0.128-2.278,0.115-3.375-0.049c-1.395,0.01-2.803-0.228-4.163-0.672c-1.39-0.467-2.732-1.165-3.979-2.063
					c-2.003-1.488-3.725-3.497-4.952-5.963c-0.288-0.578-0.544-1.178-0.765-1.777c-1.065-2.85-1.427-5.879-1.081-8.746
					C3.266,15.095,4.829,11.442,7.558,9.098z"/>
				<path fill="#EC652D" d="M7.532,9.199c0.187-0.195,0.396-0.38,0.585-0.554c0.455-0.401,0.922-0.744,1.431-1.024
					c1.055-0.58,2.362-0.739,3.343-0.367c1.155,0.448,1.781,1.215,2.38,1.947c1.526,1.891,3.182,4.795,5.184,8.065
					c0.614,0.999,1.251,2.039,1.855,3.081c0.408,0.674,0.805,1.362,1.183,2.047c1.512,2.705,2.961,5.148,3.67,7.267
					c0.228,0.661,0.477,1.258,0.789,1.829c0.142,0.373,0.256,0.737,0.353,1.113c0.187,0.476,0.288,0.975,0.144,1.592
					c-0.034,1.266-2.55,2.162-3.506,2.628c-0.076,0.041-0.167,0.056-0.246,0.092c-1.168,0.467-2.382,0.766-3.63,0.9
					c-1.134,0.124-2.282,0.101-3.362-0.077c-1.398,0.006-2.793-0.229-4.138-0.683c-1.378-0.473-2.708-1.158-3.936-2.066
					c-1.991-1.479-3.696-3.477-4.909-5.92c-0.285-0.574-0.532-1.17-0.76-1.772c-1.05-2.821-1.415-5.824-1.076-8.675
					C3.304,15.174,4.842,11.539,7.532,9.199z"/>
				<path fill="#EC662D" d="M7.509,9.297c0.186-0.184,0.375-0.376,0.577-0.554c0.451-0.397,0.92-0.75,1.421-1.03
					c1.045-0.589,2.35-0.739,3.317-0.356c1.159,0.453,1.763,1.242,2.334,1.978c1.486,1.913,3.107,4.815,5.096,8.074
					c0.61,1.011,1.244,2.043,1.843,3.081c0.406,0.673,0.804,1.355,1.201,2.033c1.5,2.692,2.977,5.104,3.713,7.205
					c0.229,0.646,0.512,1.238,0.833,1.794c0.148,0.362,0.283,0.727,0.379,1.092c0.191,0.467,0.293,0.968,0.17,1.57
					c-0.023,1.282-2.577,2.163-3.517,2.623c-0.087,0.043-0.166,0.068-0.26,0.095c-1.161,0.46-2.382,0.755-3.631,0.881
					c-1.126,0.12-2.27,0.086-3.377-0.105c-1.382,0.005-2.759-0.231-4.082-0.69c-1.377-0.472-2.695-1.164-3.914-2.059
					c-1.973-1.48-3.655-3.458-4.866-5.888c-0.274-0.57-0.527-1.161-0.748-1.752c-1.03-2.808-1.4-5.793-1.073-8.63
					C3.33,15.25,4.852,11.631,7.509,9.297z"/>
				<path fill="#EC672E" d="M7.477,9.402c0.182-0.191,0.372-0.38,0.58-0.562C8.5,8.439,8.96,8.095,9.466,7.813
					c1.023-0.583,2.347-0.746,3.315-0.359c1.138,0.473,1.723,1.28,2.282,2.011c1.427,1.936,3.009,4.839,4.99,8.099
					c0.602,0.996,1.233,2.035,1.842,3.062c0.405,0.676,0.803,1.348,1.197,2.027c1.51,2.681,3.008,5.066,3.762,7.142
					c0.246,0.64,0.537,1.211,0.864,1.763c0.172,0.356,0.302,0.714,0.411,1.072c0.195,0.465,0.319,0.959,0.205,1.56
					c-0.003,1.277-2.583,2.162-3.53,2.606c-0.082,0.033-0.168,0.069-0.249,0.102c-1.182,0.454-2.405,0.744-3.64,0.857
					c-1.147,0.109-2.278,0.063-3.388-0.124c-1.361-0.012-2.734-0.256-4.048-0.712c-1.36-0.472-2.663-1.157-3.875-2.058
					c-1.963-1.463-3.621-3.439-4.815-5.854c-0.281-0.57-0.53-1.148-0.743-1.74c-1.036-2.788-1.4-5.739-1.076-8.553
					C3.361,15.336,4.849,11.725,7.477,9.402z"/>
				<path fill="#EC682E" d="M7.443,9.499c0.182-0.188,0.379-0.38,0.573-0.553c0.446-0.409,0.912-0.752,1.407-1.038
					c1.015-0.591,2.341-0.741,3.295-0.337c1.134,0.475,1.694,1.291,2.226,2.023c1.401,1.957,2.932,4.87,4.91,8.124
					c0.596,0.99,1.229,2.034,1.838,3.046c0.402,0.672,0.797,1.341,1.182,2.019c1.536,2.656,3.044,5.017,3.842,7.07
					c0.242,0.632,0.553,1.199,0.891,1.743c0.163,0.349,0.315,0.69,0.423,1.055c0.228,0.446,0.348,0.942,0.242,1.529
					c0.006,1.286-2.601,2.16-3.533,2.603c-0.085,0.041-0.18,0.065-0.261,0.102c-1.165,0.438-2.399,0.729-3.653,0.836
					c-1.148,0.099-2.282,0.054-3.386-0.149c-1.346-0.011-2.709-0.261-4.019-0.723c-1.339-0.476-2.639-1.172-3.832-2.056
					c-1.948-1.458-3.585-3.424-4.766-5.821c-0.282-0.553-0.526-1.14-0.747-1.724c-1.015-2.77-1.383-5.701-1.069-8.488
					C3.395,15.409,4.854,11.82,7.443,9.499z"/>
				<path fill="#EC692F" d="M7.418,9.606c0.181-0.199,0.365-0.381,0.565-0.564c0.437-0.4,0.891-0.748,1.384-1.038
					c1.034-0.583,2.345-0.738,3.294-0.332c1.126,0.484,1.676,1.316,2.176,2.059c1.341,1.974,2.85,4.892,4.804,8.138
					c0.601,0.99,1.221,2.021,1.841,3.036c0.393,0.672,0.805,1.338,1.184,2.013c1.537,2.634,3.07,4.971,3.887,7.006
					c0.269,0.625,0.566,1.171,0.935,1.694c0.177,0.355,0.333,0.694,0.452,1.044c0.241,0.446,0.375,0.939,0.27,1.521
					c0.028,1.284-2.607,2.157-3.543,2.588c-0.082,0.036-0.176,0.075-0.256,0.097c-1.186,0.434-2.415,0.714-3.67,0.819
					c-1.133,0.091-2.283,0.044-3.395-0.162c-1.331-0.025-2.679-0.281-3.969-0.744c-1.337-0.471-2.62-1.167-3.809-2.052
					c-1.926-1.456-3.548-3.41-4.706-5.788c-0.284-0.554-0.53-1.129-0.741-1.707C3.1,24.49,2.734,21.577,3.059,18.813
					C3.431,15.489,4.867,11.917,7.418,9.606z"/>
				<path fill="#EC6A30" d="M7.393,9.706c0.18-0.194,0.363-0.38,0.559-0.56C8.384,8.737,8.844,8.388,9.339,8.1
					c1.015-0.596,2.322-0.733,3.262-0.318c1.124,0.493,1.649,1.333,2.133,2.086c1.299,1.997,2.764,4.912,4.708,8.146
					c0.589,0.993,1.219,2.018,1.829,3.035c0.404,0.664,0.803,1.325,1.195,1.99c1.541,2.626,3.1,4.927,3.946,6.948
					c0.259,0.608,0.586,1.148,0.968,1.674c0.18,0.335,0.339,0.671,0.481,1.018c0.245,0.429,0.386,0.913,0.287,1.5
					c0.056,1.286-2.623,2.16-3.564,2.58c-0.068,0.037-0.157,0.068-0.243,0.105c-1.186,0.426-2.421,0.696-3.666,0.791
					c-1.154,0.091-2.298,0.031-3.407-0.185c-1.331-0.033-2.651-0.29-3.953-0.757c-1.314-0.479-2.591-1.156-3.754-2.047
					c-1.907-1.451-3.51-3.395-4.679-5.749c-0.265-0.557-0.507-1.126-0.715-1.698c-1.011-2.733-1.371-5.615-1.079-8.367
					C3.455,15.571,4.881,12.015,7.393,9.706z"/>
				<path fill="#EC6B31" d="M7.36,9.811C7.539,9.61,7.716,9.425,7.915,9.245c0.437-0.408,0.893-0.758,1.388-1.048
					c0.995-0.595,2.311-0.743,3.246-0.312c1.109,0.508,1.614,1.358,2.079,2.12c1.256,2.01,2.677,4.934,4.612,8.161
					c0.597,0.984,1.22,2.017,1.831,3.019c0.396,0.659,0.791,1.327,1.191,1.988c1.546,2.606,3.116,4.887,3.998,6.88
					c0.276,0.598,0.611,1.132,1.004,1.641c0.177,0.331,0.354,0.659,0.499,0.998c0.256,0.429,0.418,0.904,0.321,1.493
					c0.072,1.285-2.629,2.15-3.555,2.562c-0.081,0.041-0.167,0.066-0.255,0.103c-1.2,0.424-2.437,0.685-3.688,0.78
					c-1.153,0.084-2.301,0.01-3.41-0.212c-1.317-0.039-2.629-0.307-3.914-0.767c-1.298-0.484-2.568-1.177-3.716-2.048
					c-1.902-1.451-3.482-3.381-4.627-5.716c-0.265-0.554-0.504-1.122-0.724-1.69c-0.993-2.701-1.355-5.561-1.061-8.295
					C3.493,15.651,4.876,12.112,7.36,9.811z"/>
				<path fill="#ED6C32" d="M7.331,9.911C7.517,9.709,7.699,9.523,7.877,9.35C8.301,8.94,8.76,8.581,9.255,8.291
					c0.991-0.596,2.298-0.731,3.233-0.297c1.105,0.516,1.59,1.385,2.03,2.143c1.21,2.027,2.603,4.96,4.513,8.182
					c0.595,0.986,1.223,2.004,1.827,3.009c0.396,0.656,0.793,1.317,1.197,1.973c1.55,2.594,3.146,4.846,4.066,6.815
					c0.262,0.591,0.62,1.115,1.029,1.61c0.188,0.323,0.381,0.645,0.515,0.985c0.265,0.416,0.447,0.892,0.369,1.475
					c0.082,1.286-2.654,2.147-3.584,2.555c-0.079,0.037-0.166,0.057-0.242,0.093c-1.201,0.423-2.45,0.681-3.708,0.756
					c-1.153,0.087-2.303,0.003-3.402-0.223c-1.307-0.053-2.606-0.317-3.873-0.789c-1.304-0.48-2.549-1.172-3.703-2.049
					c-1.868-1.439-3.44-3.355-4.574-5.674c-0.261-0.545-0.502-1.111-0.705-1.679c-0.996-2.676-1.347-5.515-1.062-8.225
					C3.522,15.728,4.888,12.206,7.331,9.911z"/>
				<path fill="#ED6D32" d="M7.309,10.009c0.175-0.194,0.35-0.381,0.545-0.562c0.418-0.41,0.864-0.774,1.353-1.062
					c0.992-0.593,2.296-0.737,3.229-0.29c1.088,0.526,1.56,1.407,1.984,2.174c1.16,2.05,2.505,4.984,4.415,8.204
					c0.584,0.979,1.214,1.995,1.806,2.999c0.405,0.65,0.812,1.307,1.212,1.964c1.548,2.567,3.168,4.8,4.109,6.748
					c0.283,0.571,0.656,1.093,1.068,1.579c0.204,0.318,0.4,0.632,0.548,0.958c0.28,0.416,0.454,0.888,0.385,1.459
					c0.107,1.295-2.655,2.144-3.582,2.551c-0.072,0.034-0.167,0.058-0.25,0.089c-1.206,0.424-2.446,0.671-3.705,0.745
					c-1.154,0.076-2.314-0.012-3.412-0.256c-1.298-0.055-2.593-0.327-3.842-0.794c-1.284-0.48-2.517-1.178-3.658-2.046
					c-1.86-1.438-3.417-3.338-4.535-5.639c-0.256-0.55-0.494-1.104-0.697-1.672c-0.978-2.653-1.35-5.468-1.064-8.159
					C3.553,15.808,4.892,12.304,7.309,10.009z"/>
				<path fill="#ED6D32" d="M7.271,10.114c0.175-0.198,0.356-0.387,0.544-0.569C8.24,9.133,8.68,8.778,9.164,8.487
					c0.98-0.599,2.311-0.742,3.213-0.289c1.087,0.539,1.528,1.433,1.939,2.208c1.104,2.068,2.417,5.008,4.312,8.218
					c0.579,0.978,1.195,1.991,1.813,2.988c0.398,0.65,0.806,1.298,1.196,1.956c1.575,2.548,3.203,4.75,4.176,6.687
					c0.287,0.556,0.677,1.062,1.106,1.535c0.206,0.316,0.41,0.621,0.571,0.945c0.292,0.408,0.492,0.87,0.416,1.438
					c0.119,1.298-2.675,2.152-3.585,2.545c-0.085,0.036-0.166,0.06-0.264,0.089c-1.193,0.415-2.458,0.659-3.71,0.728
					c-1.162,0.059-2.312-0.028-3.421-0.274c-1.29-0.06-2.571-0.345-3.813-0.814c-1.268-0.488-2.485-1.178-3.614-2.041
					c-1.833-1.434-3.368-3.328-4.476-5.617c-0.271-0.534-0.496-1.084-0.696-1.646c-0.971-2.639-1.337-5.425-1.059-8.104
					C3.586,15.891,4.895,12.4,7.271,10.114z"/>
				<path fill="#ED6E33" d="M7.247,10.214c0.178-0.2,0.357-0.391,0.533-0.564c0.414-0.417,0.864-0.778,1.341-1.069
					c0.992-0.606,2.294-0.741,3.189-0.277c1.081,0.551,1.508,1.452,1.892,2.235c1.057,2.1,2.354,5.023,4.221,8.233
					c0.58,0.98,1.194,1.993,1.803,2.977c0.41,0.659,0.808,1.302,1.209,1.945c1.578,2.542,3.229,4.712,4.226,6.625
					c0.303,0.55,0.696,1.036,1.137,1.511c0.218,0.303,0.435,0.598,0.59,0.92c0.315,0.403,0.515,0.864,0.467,1.433
					c0.125,1.295-2.696,2.131-3.622,2.527c-0.069,0.033-0.168,0.06-0.25,0.082c-1.202,0.405-2.464,0.646-3.716,0.708
					c-1.173,0.057-2.324-0.041-3.43-0.288c-1.272-0.077-2.541-0.366-3.768-0.828c-1.261-0.496-2.469-1.187-3.58-2.047
					c-1.824-1.426-3.345-3.3-4.436-5.569c-0.266-0.538-0.491-1.089-0.689-1.64c-0.963-2.618-1.329-5.388-1.058-8.038
					C3.61,15.968,4.907,12.496,7.247,10.214z"/>
				<path fill="#ED6F34" d="M7.218,10.32c0.174-0.201,0.35-0.395,0.538-0.58c0.407-0.415,0.842-0.774,1.322-1.065
					c0.982-0.601,2.288-0.738,3.185-0.271c1.061,0.56,1.463,1.487,1.838,2.268c1.01,2.108,2.25,5.046,4.118,8.242
					c0.574,0.978,1.198,1.991,1.798,2.977c0.406,0.646,0.821,1.291,1.222,1.929c1.566,2.524,3.233,4.675,4.278,6.556
					c0.292,0.547,0.708,1.028,1.167,1.486c0.223,0.296,0.446,0.594,0.624,0.902c0.316,0.396,0.528,0.842,0.483,1.408
					c0.138,1.307-2.712,2.143-3.621,2.526c-0.074,0.031-0.167,0.048-0.249,0.089c-1.21,0.396-2.479,0.63-3.743,0.684
					c-1.163,0.052-2.316-0.058-3.43-0.315c-1.258-0.081-2.518-0.376-3.73-0.847c-1.244-0.492-2.453-1.178-3.55-2.041
					c-1.8-1.417-3.305-3.289-4.379-5.538c-0.26-0.527-0.488-1.069-0.683-1.618c-0.954-2.596-1.317-5.345-1.05-7.98
					C3.663,16.044,4.91,12.591,7.218,10.32z"/>
				<path fill="#ED7034" d="M7.205,10.415c0.154-0.201,0.33-0.392,0.518-0.567c0.41-0.423,0.831-0.782,1.303-1.072
					c0.977-0.606,2.282-0.743,3.176-0.255c1.052,0.56,1.441,1.5,1.792,2.281c0.958,2.143,2.169,5.081,4.022,8.269
					c0.574,0.972,1.192,1.988,1.788,2.958c0.415,0.648,0.82,1.291,1.22,1.923c1.587,2.504,3.273,4.627,4.345,6.493
					c0.31,0.531,0.729,1.005,1.199,1.446c0.232,0.289,0.457,0.58,0.647,0.888c0.332,0.392,0.559,0.837,0.511,1.402
					c0.165,1.295-2.713,2.136-3.622,2.511c-0.079,0.027-0.177,0.054-0.258,0.078c-1.213,0.393-2.487,0.624-3.747,0.667
					c-1.163,0.045-2.317-0.066-3.438-0.331c-1.24-0.087-2.496-0.387-3.699-0.87c-1.227-0.487-2.421-1.17-3.5-2.032
					c-1.791-1.416-3.278-3.267-4.354-5.494c-0.247-0.532-0.468-1.071-0.661-1.618c-0.953-2.569-1.311-5.289-1.06-7.903
					C3.676,16.123,4.921,12.688,7.205,10.415z"/>
				<path fill="#ED7135" d="M7.165,10.52c0.167-0.202,0.333-0.393,0.522-0.582c0.405-0.413,0.839-0.772,1.299-1.067
					c0.966-0.61,2.284-0.738,3.164-0.247c1.047,0.575,1.41,1.528,1.734,2.316c0.924,2.156,2.085,5.097,3.934,8.28
					c0.556,0.971,1.184,1.98,1.781,2.95c0.401,0.644,0.823,1.281,1.222,1.912c1.582,2.487,3.3,4.59,4.396,6.431
					c0.3,0.519,0.748,0.978,1.242,1.414c0.232,0.289,0.475,0.57,0.662,0.874c0.345,0.376,0.584,0.808,0.551,1.374
					c0.18,1.307-2.74,2.14-3.643,2.499c-0.085,0.04-0.169,0.056-0.252,0.088c-1.22,0.391-2.49,0.613-3.758,0.651
					c-1.17,0.03-2.325-0.09-3.442-0.363c-1.234-0.094-2.476-0.391-3.658-0.871c-1.227-0.499-2.396-1.192-3.474-2.035
					c-1.77-1.417-3.239-3.256-4.291-5.468c-0.252-0.527-0.487-1.05-0.681-1.608c-0.925-2.538-1.285-5.243-1.045-7.828
					C3.716,16.2,4.925,12.777,7.165,10.52z"/>
				<path fill="#ED7236" d="M7.131,10.624c0.163-0.202,0.35-0.397,0.518-0.584c0.405-0.417,0.839-0.785,1.292-1.075
					c0.968-0.617,2.264-0.741,3.147-0.238c1.032,0.587,1.377,1.553,1.692,2.343c0.87,2.181,2.008,5.129,3.832,8.302
					c0.568,0.971,1.179,1.972,1.777,2.942c0.406,0.631,0.815,1.272,1.235,1.895c1.594,2.476,3.313,4.551,4.449,6.372
					c0.304,0.499,0.762,0.961,1.261,1.383c0.251,0.278,0.501,0.554,0.688,0.851c0.36,0.373,0.614,0.8,0.59,1.367
					c0.179,1.295-2.759,2.126-3.649,2.482c-0.083,0.037-0.17,0.053-0.263,0.087c-1.225,0.382-2.489,0.601-3.767,0.627
					c-1.164,0.027-2.33-0.095-3.44-0.376c-1.222-0.112-2.448-0.415-3.626-0.894c-1.217-0.499-2.369-1.185-3.444-2.031
					c-1.738-1.412-3.192-3.243-4.246-5.425c-0.243-0.525-0.468-1.055-0.655-1.594c-0.923-2.529-1.285-5.201-1.06-7.776
					C3.745,16.271,4.936,12.878,7.131,10.624z"/>
				<path fill="#ED7337" d="M7.11,10.723c0.166-0.201,0.333-0.396,0.51-0.579c0.394-0.421,0.815-0.792,1.287-1.083
					C9.856,8.451,11.16,8.318,12.04,8.83c1.013,0.601,1.337,1.585,1.637,2.372c0.824,2.197,1.911,5.151,3.724,8.317
					c0.567,0.972,1.185,1.974,1.78,2.938c0.406,0.63,0.813,1.264,1.234,1.887c1.597,2.451,3.341,4.503,4.502,6.297
					c0.33,0.49,0.796,0.942,1.304,1.358c0.268,0.267,0.514,0.538,0.718,0.827c0.364,0.372,0.628,0.795,0.608,1.351
					c0.212,1.303-2.766,2.131-3.652,2.473c-0.094,0.036-0.175,0.062-0.264,0.09c-1.223,0.381-2.494,0.588-3.777,0.607
					c-1.177,0.029-2.332-0.111-3.443-0.399c-1.22-0.119-2.429-0.427-3.589-0.912c-1.208-0.495-2.356-1.18-3.408-2.03
					c-1.726-1.4-3.164-3.217-4.208-5.386c-0.237-0.517-0.458-1.04-0.646-1.577c-0.912-2.509-1.271-5.163-1.044-7.711
					C3.773,16.362,4.943,12.973,7.11,10.723z"/>
				<path fill="#ED7437" d="M7.081,10.829c0.158-0.208,0.335-0.398,0.507-0.586c0.39-0.416,0.799-0.789,1.271-1.084
					c0.946-0.611,2.25-0.738,3.121-0.219c1.012,0.606,1.318,1.602,1.584,2.402c0.771,2.215,1.834,5.175,3.637,8.328
					c0.56,0.976,1.173,1.968,1.777,2.92c0.4,0.63,0.801,1.267,1.221,1.885c1.624,2.434,3.382,4.455,4.565,6.231
					c0.34,0.485,0.814,0.916,1.337,1.328c0.259,0.259,0.525,0.523,0.745,0.803c0.381,0.367,0.654,0.784,0.646,1.343
					c0.221,1.304-2.786,2.114-3.673,2.466c-0.086,0.03-0.161,0.054-0.258,0.074c-1.231,0.38-2.513,0.578-3.781,0.593
					c-1.187,0.02-2.347-0.121-3.462-0.425c-1.192-0.118-2.403-0.429-3.553-0.918c-1.187-0.501-2.327-1.187-3.37-2.029
					c-1.707-1.398-3.123-3.201-4.146-5.357c-0.247-0.504-0.465-1.033-0.662-1.553c-0.896-2.497-1.25-5.129-1.031-7.657
					C3.812,16.439,4.948,13.065,7.081,10.829z"/>
				<path fill="#EE7538" d="M7.067,10.924c0.151-0.201,0.309-0.393,0.486-0.582c0.38-0.423,0.804-0.79,1.262-1.088
					c0.948-0.62,2.25-0.742,3.105-0.212c1.008,0.62,1.283,1.623,1.544,2.43c0.726,2.241,1.74,5.199,3.534,8.348
					c0.562,0.966,1.166,1.958,1.77,2.912c0.408,0.633,0.817,1.249,1.229,1.872c1.621,2.416,3.389,4.417,4.619,6.17
					c0.34,0.475,0.828,0.891,1.371,1.29c0.275,0.254,0.556,0.511,0.766,0.781c0.398,0.368,0.675,0.773,0.672,1.339
					c0.247,1.304-2.785,2.11-3.667,2.443c-0.091,0.037-0.174,0.063-0.265,0.084c-1.231,0.365-2.515,0.569-3.803,0.57
					c-1.176,0.013-2.346-0.129-3.458-0.446c-1.188-0.125-2.38-0.443-3.517-0.931c-1.182-0.502-2.304-1.188-3.334-2.03
					c-1.689-1.39-3.089-3.188-4.108-5.318c-0.237-0.507-0.453-1.025-0.644-1.551c-0.881-2.462-1.253-5.069-1.042-7.577
					C3.843,16.524,4.962,13.161,7.067,10.924z"/>
				<path fill="#EE7538" d="M7.028,11.026c0.157-0.198,0.309-0.393,0.487-0.581c0.374-0.424,0.8-0.801,1.26-1.098
					c0.942-0.617,2.246-0.741,3.097-0.202c0.985,0.63,1.249,1.649,1.491,2.463c0.667,2.264,1.66,5.216,3.439,8.365
					c0.546,0.958,1.155,1.948,1.762,2.906c0.404,0.62,0.817,1.241,1.226,1.859c1.625,2.393,3.417,4.367,4.686,6.101
					c0.338,0.464,0.847,0.874,1.398,1.262c0.285,0.246,0.561,0.493,0.783,0.76c0.409,0.363,0.702,0.764,0.707,1.319
					c0.265,1.3-2.804,2.107-3.678,2.442c-0.086,0.031-0.188,0.055-0.264,0.077c-1.244,0.366-2.526,0.544-3.814,0.554
					c-1.176,0-2.34-0.156-3.455-0.475c-1.187-0.132-2.362-0.453-3.487-0.945c-1.165-0.5-2.272-1.19-3.293-2.022
					c-1.678-1.385-3.059-3.171-4.064-5.288c-0.227-0.5-0.446-1.015-0.639-1.538c-0.87-2.439-1.243-5.03-1.035-7.519
					C3.861,16.595,4.963,13.263,7.028,11.026z"/>
				<path fill="#EE7639" d="M6.995,11.132c0.156-0.201,0.319-0.394,0.488-0.588c0.384-0.424,0.797-0.798,1.249-1.095
					c0.929-0.624,2.232-0.746,3.076-0.2c0.987,0.642,1.222,1.676,1.438,2.49c0.628,2.282,1.582,5.244,3.351,8.381
					c0.551,0.97,1.153,1.954,1.762,2.891c0.405,0.625,0.805,1.239,1.237,1.848c1.62,2.384,3.438,4.337,4.731,6.046
					c0.335,0.457,0.865,0.858,1.423,1.231c0.304,0.237,0.588,0.48,0.835,0.748c0.409,0.351,0.707,0.747,0.724,1.298
					c0.264,1.31-2.822,2.104-3.694,2.429c-0.085,0.035-0.182,0.053-0.266,0.077c-1.241,0.362-2.537,0.538-3.814,0.538
					c-1.186-0.014-2.355-0.169-3.47-0.494c-1.18-0.14-2.334-0.467-3.456-0.961c-1.15-0.501-2.238-1.194-3.25-2.018
					c-1.67-1.388-3.034-3.162-4.021-5.252c-0.221-0.502-0.439-1.017-0.619-1.529c-0.879-2.426-1.234-4.984-1.046-7.452
					C3.905,16.68,4.974,13.353,6.995,11.132z"/>
				<path fill="#EE773A" d="M6.966,11.235c0.158-0.208,0.313-0.404,0.479-0.587c0.373-0.435,0.786-0.799,1.247-1.106
					c0.921-0.615,2.222-0.743,3.057-0.182c0.979,0.646,1.197,1.693,1.391,2.521c0.58,2.292,1.5,5.252,3.257,8.389
					c0.531,0.962,1.133,1.947,1.753,2.884c0.398,0.617,0.817,1.238,1.241,1.843c1.627,2.357,3.451,4.282,4.78,5.973
					c0.356,0.443,0.893,0.838,1.48,1.192c0.281,0.236,0.582,0.471,0.834,0.733c0.427,0.338,0.745,0.738,0.752,1.285
					c0.293,1.313-2.828,2.102-3.692,2.42c-0.095,0.032-0.186,0.057-0.264,0.074c-1.26,0.358-2.541,0.532-3.835,0.51
					c-1.182-0.006-2.35-0.169-3.469-0.51c-1.167-0.147-2.313-0.482-3.408-0.977c-1.144-0.5-2.229-1.191-3.221-2.019
					c-1.656-1.376-2.991-3.129-3.979-5.213c-0.225-0.496-0.431-1.004-0.623-1.514c-0.849-2.405-1.216-4.941-1.032-7.384
					C3.937,16.75,4.974,13.459,6.966,11.235z"/>
				<path fill="#EE783A" d="M6.953,11.335c0.141-0.212,0.303-0.407,0.464-0.588c0.367-0.435,0.784-0.81,1.225-1.105
					c0.919-0.623,2.227-0.749,3.059-0.175c0.954,0.655,1.152,1.714,1.341,2.531c0.52,2.334,1.399,5.297,3.14,8.424
					c0.537,0.963,1.15,1.935,1.754,2.876c0.4,0.611,0.826,1.222,1.246,1.823c1.642,2.349,3.478,4.25,4.839,5.91
					c0.354,0.433,0.907,0.814,1.503,1.17c0.304,0.229,0.611,0.462,0.859,0.714c0.445,0.33,0.78,0.719,0.799,1.268
					c0.316,1.305-2.85,2.095-3.707,2.405c-0.099,0.035-0.181,0.045-0.27,0.074c-1.25,0.348-2.548,0.519-3.84,0.5
					c-1.181-0.017-2.358-0.2-3.478-0.53c-1.145-0.169-2.292-0.503-3.378-0.992c-1.12-0.521-2.206-1.206-3.182-2.033
					c-1.63-1.369-2.955-3.115-3.918-5.174c-0.237-0.485-0.432-0.989-0.621-1.5c-0.851-2.384-1.202-4.894-1.025-7.327
					C3.963,16.835,4.98,13.544,6.953,11.335z"/>
				<path fill="#EE793B" d="M6.911,11.438c0.153-0.208,0.313-0.401,0.481-0.593c0.364-0.43,0.768-0.804,1.21-1.108
					c0.899-0.627,2.215-0.741,3.039-0.17c0.952,0.667,1.134,1.741,1.284,2.572c0.48,2.347,1.324,5.316,3.057,8.432
					c0.532,0.959,1.137,1.937,1.742,2.864c0.41,0.612,0.818,1.227,1.251,1.819c1.651,2.331,3.504,4.21,4.899,5.843
					c0.348,0.432,0.922,0.798,1.532,1.139c0.321,0.217,0.63,0.444,0.889,0.69c0.463,0.33,0.789,0.714,0.82,1.255
					c0.335,1.314-2.854,2.094-3.708,2.396c-0.091,0.034-0.177,0.052-0.278,0.078c-1.248,0.334-2.543,0.503-3.844,0.47
					c-1.192-0.018-2.354-0.205-3.468-0.554c-1.153-0.167-2.281-0.503-3.355-1.002c-1.115-0.516-2.178-1.201-3.149-2.016
					c-1.611-1.367-2.917-3.107-3.873-5.15c-0.213-0.482-0.424-0.977-0.604-1.482c-0.843-2.362-1.206-4.846-1.033-7.262
					C3.999,16.912,4.985,13.643,6.911,11.438z"/>
				<path fill="#EE7A3C" d="M6.889,11.533c0.142-0.205,0.29-0.4,0.453-0.591c0.37-0.43,0.779-0.813,1.222-1.112
					c0.896-0.628,2.208-0.747,3.015-0.16c0.957,0.686,1.098,1.772,1.248,2.602c0.414,2.375,1.236,5.337,2.954,8.451
					c0.522,0.953,1.129,1.926,1.733,2.861c0.416,0.604,0.832,1.209,1.249,1.8c1.658,2.311,3.537,4.162,4.961,5.78
					c0.362,0.414,0.944,0.767,1.571,1.101c0.331,0.222,0.65,0.427,0.919,0.68c0.463,0.319,0.809,0.694,0.849,1.235
					c0.344,1.308-2.865,2.09-3.732,2.382c-0.084,0.034-0.177,0.053-0.266,0.082c-1.251,0.329-2.56,0.489-3.858,0.451
					c-1.186-0.03-2.365-0.219-3.478-0.575c-1.136-0.175-2.258-0.525-3.319-1.022c-1.094-0.518-2.146-1.201-3.113-2.012
					c-1.585-1.364-2.886-3.084-3.823-5.106c-0.223-0.49-0.426-0.977-0.61-1.486c-0.817-2.33-1.178-4.8-1.024-7.187
					C4.03,16.997,4.997,13.742,6.889,11.533z"/>
				<path fill="#EE7B3D" d="M6.849,11.639c0.152-0.207,0.302-0.401,0.465-0.596c0.369-0.429,0.767-0.81,1.196-1.118
					c0.906-0.628,2.209-0.748,3.01-0.143c0.937,0.685,1.066,1.792,1.192,2.624c0.373,2.385,1.154,5.363,2.865,8.471
					c0.52,0.949,1.126,1.922,1.738,2.837c0.396,0.604,0.821,1.209,1.239,1.797c1.671,2.298,3.558,4.131,5.025,5.711
					c0.368,0.405,0.966,0.75,1.603,1.08c0.326,0.207,0.664,0.418,0.932,0.656c0.477,0.304,0.841,0.682,0.887,1.222
					c0.355,1.31-2.888,2.09-3.734,2.374c-0.09,0.031-0.185,0.043-0.278,0.071c-1.264,0.334-2.56,0.48-3.856,0.438
					c-1.203-0.031-2.374-0.236-3.497-0.597c-1.112-0.192-2.22-0.531-3.274-1.035c-1.084-0.521-2.125-1.2-3.074-2.014
					c-1.571-1.36-2.853-3.064-3.783-5.075c-0.216-0.482-0.412-0.96-0.584-1.465c-0.832-2.316-1.189-4.76-1.039-7.122
					C4.061,17.071,4.998,13.841,6.849,11.639z"/>
				<path fill="#EE7C3E" d="M6.83,11.741c0.148-0.205,0.299-0.41,0.455-0.598c0.364-0.435,0.755-0.808,1.179-1.114
					c0.904-0.635,2.212-0.75,3.011-0.145c0.922,0.701,1.03,1.812,1.141,2.655c0.317,2.417,1.057,5.387,2.755,8.485
					c0.518,0.947,1.128,1.921,1.734,2.829c0.398,0.612,0.829,1.209,1.259,1.788c1.66,2.285,3.561,4.088,5.068,5.658
					c0.372,0.387,0.98,0.726,1.63,1.035c0.338,0.202,0.681,0.401,0.963,0.637c0.489,0.303,0.856,0.674,0.925,1.203
					c0.366,1.324-2.902,2.097-3.746,2.372c-0.101,0.031-0.188,0.046-0.28,0.062c-1.266,0.335-2.582,0.476-3.875,0.426
					c-1.189-0.042-2.373-0.254-3.5-0.625c-1.103-0.192-2.195-0.538-3.24-1.047c-1.083-0.524-2.1-1.197-3.041-2.01
					c-1.542-1.353-2.81-3.046-3.729-5.038c-0.213-0.473-0.418-0.956-0.588-1.451c-0.819-2.288-1.174-4.711-1.022-7.067
					C4.104,17.149,5.01,13.928,6.83,11.741z"/>
				<path fill="#EF7C3E" d="M6.801,11.836c0.144-0.205,0.297-0.407,0.451-0.597c0.352-0.433,0.74-0.814,1.173-1.115
					c0.901-0.641,2.199-0.744,2.989-0.135c0.916,0.712,1.005,1.843,1.089,2.691c0.266,2.421,0.988,5.404,2.669,8.492
					c0.515,0.951,1.116,1.918,1.72,2.816c0.407,0.61,0.824,1.2,1.253,1.782c1.673,2.262,3.595,4.05,5.125,5.584
					c0.394,0.386,1.013,0.705,1.674,1.015c0.354,0.195,0.69,0.395,1,0.626c0.487,0.286,0.875,0.656,0.942,1.177
					c0.382,1.324-2.912,2.083-3.761,2.356c-0.083,0.037-0.177,0.051-0.273,0.078c-1.278,0.313-2.575,0.442-3.885,0.393
					c-1.196-0.049-2.38-0.265-3.504-0.64c-1.088-0.2-2.175-0.559-3.202-1.064c-1.062-0.526-2.088-1.198-3.001-2.006
					c-1.532-1.352-2.788-3.038-3.686-5.006c-0.226-0.465-0.41-0.952-0.587-1.44c-0.791-2.272-1.16-4.667-1.018-6.994
					C4.128,17.228,5.012,14.028,6.801,11.836z"/>
				<path fill="#EF7D3F" d="M6.772,11.942c0.144-0.208,0.288-0.399,0.436-0.597c0.362-0.44,0.741-0.823,1.182-1.132
					c0.893-0.633,2.18-0.738,2.968-0.12c0.9,0.722,0.972,1.865,1.045,2.711c0.214,2.459,0.895,5.439,2.56,8.524
					c0.521,0.942,1.116,1.904,1.714,2.816c0.416,0.591,0.84,1.186,1.27,1.758c1.681,2.245,3.606,4.011,5.178,5.524
					c0.387,0.378,1.021,0.685,1.706,0.975c0.358,0.19,0.711,0.38,1.015,0.606c0.511,0.285,0.9,0.64,0.968,1.166
					c0.413,1.32-2.913,2.082-3.76,2.35c-0.094,0.031-0.177,0.043-0.273,0.068c-1.281,0.319-2.591,0.439-3.891,0.377
					c-1.201-0.062-2.391-0.278-3.5-0.66c-1.085-0.216-2.163-0.574-3.183-1.084c-1.057-0.525-2.054-1.198-2.958-2.002
					c-1.526-1.34-2.749-3.022-3.636-4.965C5.39,27.781,5.2,27.311,5.027,26.833c-0.784-2.259-1.143-4.632-1.016-6.935
					C4.169,17.304,5.024,14.125,6.772,11.942z"/>
				<path fill="#EF7E40" d="M6.75,12.044c0.127-0.204,0.278-0.405,0.428-0.602c0.354-0.435,0.734-0.819,1.156-1.131
					c0.887-0.63,2.188-0.746,2.965-0.114c0.896,0.733,0.935,1.895,0.995,2.744c0.17,2.471,0.82,5.455,2.47,8.535
					c0.501,0.942,1.106,1.898,1.72,2.801c0.397,0.603,0.827,1.181,1.266,1.756c1.688,2.229,3.624,3.968,5.225,5.458
					c0.399,0.363,1.044,0.662,1.741,0.945c0.361,0.181,0.729,0.364,1.048,0.584c0.519,0.272,0.92,0.632,0.993,1.159
					c0.424,1.32-2.934,2.077-3.768,2.334c-0.096,0.021-0.185,0.042-0.283,0.067c-1.267,0.308-2.598,0.429-3.902,0.355
					c-1.206-0.063-2.387-0.284-3.514-0.683c-1.071-0.212-2.124-0.587-3.137-1.092c-1.037-0.537-2.028-1.207-2.934-2.004
					c-1.494-1.342-2.705-2.998-3.587-4.926c-0.205-0.471-0.392-0.942-0.553-1.42c-0.789-2.224-1.146-4.58-1.023-6.865
					C4.186,17.385,5.024,14.221,6.75,12.044z"/>
				<path fill="#EF7F40" d="M6.718,12.148c0.137-0.216,0.287-0.411,0.438-0.609c0.332-0.43,0.722-0.818,1.144-1.128
					c0.879-0.648,2.176-0.75,2.945-0.109c0.885,0.742,0.901,1.917,0.943,2.778c0.109,2.489,0.723,5.473,2.38,8.547
					c0.496,0.939,1.095,1.903,1.701,2.788c0.405,0.599,0.832,1.178,1.27,1.744c1.699,2.211,3.654,3.938,5.286,5.4
					c0.405,0.352,1.057,0.644,1.782,0.91c0.363,0.172,0.738,0.356,1.054,0.565c0.536,0.269,0.946,0.621,1.044,1.143
					c0.432,1.324-2.961,2.071-3.783,2.324c-0.102,0.03-0.185,0.047-0.284,0.062c-1.276,0.308-2.605,0.426-3.92,0.346
					c-1.196-0.068-2.38-0.301-3.498-0.709c-1.075-0.217-2.113-0.596-3.115-1.112c-1.027-0.531-2.008-1.202-2.895-1.997
					c-1.486-1.33-2.67-2.982-3.54-4.892c-0.206-0.462-0.403-0.924-0.557-1.4c-0.773-2.211-1.128-4.538-1.018-6.805
					C4.214,17.463,5.038,14.316,6.718,12.148z"/>
				<path fill="#EF8041" d="M6.693,12.251c0.134-0.218,0.271-0.415,0.427-0.607c0.338-0.443,0.709-0.825,1.126-1.131
					c0.878-0.653,2.186-0.756,2.942-0.105c0.871,0.749,0.874,1.937,0.893,2.799c0.057,2.512,0.647,5.504,2.278,8.575
					c0.495,0.932,1.09,1.886,1.703,2.775c0.405,0.592,0.824,1.168,1.273,1.733c1.702,2.197,3.669,3.901,5.347,5.333
					c0.403,0.345,1.079,0.627,1.794,0.885c0.375,0.164,0.772,0.336,1.093,0.544c0.553,0.261,0.972,0.609,1.075,1.129
					c0.452,1.327-2.973,2.066-3.801,2.305c-0.085,0.03-0.176,0.054-0.276,0.075c-1.287,0.289-2.612,0.396-3.931,0.316
					c-1.201-0.078-2.387-0.316-3.516-0.728c-1.057-0.231-2.077-0.612-3.061-1.124c-1.011-0.539-1.979-1.208-2.857-1.997
					c-1.464-1.328-2.646-2.968-3.503-4.863c-0.202-0.456-0.387-0.917-0.555-1.39c-0.761-2.191-1.122-4.479-1.012-6.742
					C4.265,17.543,5.042,14.413,6.693,12.251z"/>
				<path fill="#EF8142" d="M6.667,12.353c0.13-0.217,0.266-0.416,0.419-0.609c0.325-0.442,0.702-0.834,1.124-1.138
					c0.86-0.65,2.174-0.749,2.923-0.094c0.869,0.762,0.838,1.965,0.844,2.836c0.003,2.526,0.545,5.522,2.175,8.573
					c0.501,0.936,1.091,1.889,1.693,2.773c0.421,0.594,0.847,1.162,1.284,1.728c1.697,2.177,3.694,3.854,5.398,5.263
					c0.406,0.338,1.099,0.599,1.83,0.849c0.396,0.167,0.785,0.332,1.129,0.525c0.561,0.261,0.989,0.597,1.099,1.113
					c0.468,1.323-2.985,2.062-3.81,2.301c-0.086,0.027-0.182,0.044-0.28,0.063c-1.285,0.295-2.62,0.394-3.941,0.311
					c-1.206-0.084-2.396-0.334-3.516-0.756c-1.042-0.232-2.063-0.616-3.032-1.136c-1.001-0.539-1.956-1.207-2.827-1.992
					c-1.443-1.329-2.594-2.95-3.444-4.823c-0.198-0.456-0.377-0.916-0.544-1.385c-0.756-2.166-1.114-4.441-1.014-6.673
					C4.293,17.621,5.046,14.508,6.667,12.353z"/>
				<path fill="#EF8242" d="M6.635,12.453c0.134-0.211,0.266-0.413,0.411-0.61c0.339-0.447,0.707-0.832,1.129-1.144
					c0.848-0.648,2.144-0.746,2.901-0.079c0.86,0.774,0.803,1.985,0.795,2.855c-0.041,2.546,0.472,5.558,2.078,8.602
					c0.489,0.936,1.081,1.884,1.694,2.76c0.398,0.585,0.832,1.161,1.268,1.717c1.723,2.156,3.716,3.823,5.469,5.193
					c0.413,0.334,1.122,0.581,1.877,0.821c0.398,0.152,0.784,0.321,1.126,0.508c0.573,0.249,1.019,0.584,1.134,1.1
					c0.486,1.328-2.996,2.058-3.821,2.292c-0.08,0.023-0.171,0.041-0.275,0.063c-1.299,0.29-2.625,0.385-3.945,0.288
					c-1.219-0.089-2.411-0.348-3.521-0.772c-1.028-0.246-2.044-0.636-3.003-1.155c-0.986-0.542-1.927-1.21-2.785-2
					c-1.426-1.314-2.571-2.929-3.408-4.788c-0.186-0.446-0.373-0.892-0.539-1.354c-0.741-2.156-1.098-4.41-1.007-6.615
					C4.321,17.698,5.058,14.609,6.635,12.453z"/>
				<path fill="#EF8343" d="M6.609,12.551c0.122-0.208,0.259-0.418,0.41-0.605c0.329-0.441,0.693-0.841,1.113-1.146
					c0.845-0.655,2.146-0.757,2.893-0.072c0.845,0.78,0.773,2.005,0.739,2.881c-0.097,2.573,0.385,5.579,1.983,8.614
					c0.494,0.94,1.078,1.872,1.684,2.76c0.407,0.579,0.839,1.15,1.282,1.693c1.718,2.141,3.731,3.788,5.515,5.141
					c0.432,0.314,1.145,0.555,1.913,0.786c0.402,0.146,0.809,0.305,1.157,0.485c0.586,0.248,1.039,0.574,1.164,1.091
					c0.494,1.328-3.022,2.053-3.837,2.28c-0.082,0.021-0.167,0.04-0.273,0.063c-1.294,0.278-2.639,0.372-3.962,0.264
					c-1.206-0.101-2.39-0.369-3.528-0.799c-1.01-0.246-2.013-0.652-2.952-1.168c-0.991-0.534-1.918-1.209-2.76-1.994
					c-1.404-1.314-2.519-2.911-3.353-4.751c-0.201-0.441-0.369-0.893-0.532-1.343c-0.734-2.128-1.088-4.362-1.004-6.554
					C4.351,17.776,5.061,14.703,6.609,12.551z"/>
				<path fill="#F08444" d="M6.58,12.655c0.12-0.209,0.259-0.413,0.404-0.611c0.322-0.448,0.683-0.838,1.097-1.157
					c0.844-0.655,2.148-0.743,2.882-0.061c0.83,0.789,0.749,2.031,0.698,2.915c-0.146,2.588,0.296,5.606,1.877,8.642
					c0.486,0.928,1.071,1.87,1.685,2.736c0.411,0.581,0.838,1.146,1.297,1.691c1.716,2.125,3.741,3.754,5.561,5.068
					c0.422,0.321,1.159,0.541,1.942,0.756c0.409,0.143,0.828,0.293,1.183,0.47c0.599,0.238,1.062,0.565,1.193,1.072
					c0.53,1.328-3.024,2.048-3.835,2.267c-0.096,0.037-0.182,0.046-0.278,0.066c-1.306,0.272-2.651,0.362-3.969,0.243
					c-1.215-0.104-2.409-0.376-3.549-0.814c-0.984-0.256-1.982-0.652-2.911-1.183c-0.966-0.542-1.89-1.213-2.721-1.989
					c-1.39-1.311-2.49-2.901-3.303-4.723c-0.2-0.436-0.364-0.88-0.53-1.333c-0.719-2.109-1.075-4.314-1.002-6.482
					C4.39,17.861,5.074,14.8,6.58,12.655z"/>
				<path fill="#F08444" d="M6.554,12.754c0.122-0.211,0.253-0.416,0.396-0.609c0.319-0.454,0.677-0.848,1.077-1.156
					c0.857-0.657,2.154-0.755,2.871-0.055c0.848,0.799,0.725,2.061,0.661,2.942c-0.207,2.604,0.213,5.622,1.786,8.655
					c0.474,0.925,1.071,1.864,1.673,2.727c0.413,0.573,0.841,1.141,1.285,1.683c1.729,2.106,3.768,3.718,5.637,5.008
					c0.422,0.301,1.177,0.514,1.968,0.729c0.414,0.129,0.846,0.272,1.213,0.44c0.602,0.235,1.079,0.552,1.215,1.055
					c0.537,1.34-3.042,2.055-3.842,2.261c-0.09,0.031-0.185,0.042-0.278,0.06c-1.303,0.272-2.663,0.345-3.983,0.229
					c-1.218-0.111-2.404-0.392-3.533-0.839c-1.002-0.262-1.966-0.676-2.899-1.198c-0.953-0.546-1.852-1.213-2.674-1.984
					c-1.369-1.31-2.466-2.881-3.267-4.68c-0.182-0.438-0.353-0.886-0.524-1.321c-0.703-2.092-1.061-4.272-0.99-6.427
					C4.419,17.938,5.077,14.891,6.554,12.754z"/>
				<path fill="#F08545" d="M6.519,12.85c0.122-0.204,0.265-0.411,0.396-0.605c0.321-0.454,0.676-0.842,1.079-1.153
					c0.836-0.667,2.138-0.762,2.848-0.047c0.816,0.799,0.69,2.073,0.604,2.97c-0.248,2.62,0.139,5.645,1.689,8.666
					c0.469,0.917,1.06,1.859,1.67,2.715c0.413,0.579,0.838,1.133,1.291,1.677c1.734,2.084,3.795,3.682,5.685,4.936
					c0.435,0.3,1.202,0.498,2.01,0.699c0.426,0.125,0.853,0.255,1.234,0.428c0.624,0.216,1.113,0.531,1.249,1.044
					c0.556,1.328-3.054,2.035-3.849,2.252c-0.098,0.021-0.187,0.033-0.279,0.055c-1.317,0.261-2.665,0.331-3.994,0.204
					c-1.225-0.118-2.418-0.402-3.542-0.852c-0.985-0.289-1.947-0.695-2.854-1.218c-0.949-0.55-1.841-1.224-2.639-1.989
					c-1.36-1.297-2.434-2.867-3.219-4.647c-0.196-0.429-0.352-0.86-0.515-1.313c-0.705-2.059-1.061-4.221-0.999-6.35
					C4.447,18.019,5.089,14.982,6.519,12.85z"/>
				<path fill="#F08646" d="M6.499,12.962c0.116-0.216,0.254-0.427,0.379-0.621c0.325-0.453,0.678-0.847,1.069-1.16
					c0.836-0.664,2.137-0.751,2.843-0.037c0.815,0.822,0.652,2.105,0.549,3c-0.3,2.644,0.053,5.67,1.584,8.679
					c0.49,0.929,1.065,1.864,1.678,2.716c0.408,0.572,0.834,1.128,1.294,1.667c1.745,2.066,3.82,3.646,5.738,4.872
					c0.442,0.282,1.225,0.476,2.044,0.667c0.432,0.109,0.863,0.242,1.268,0.402c0.621,0.216,1.129,0.52,1.277,1.027
					c0.556,1.336-3.063,2.034-3.868,2.235c-0.1,0.034-0.193,0.044-0.276,0.066c-1.319,0.256-2.675,0.323-4.01,0.186
					c-1.22-0.122-2.415-0.415-3.54-0.881c-0.973-0.275-1.921-0.703-2.836-1.229c-0.915-0.55-1.794-1.217-2.595-1.983
					c-1.33-1.294-2.396-2.847-3.163-4.61c-0.2-0.432-0.369-0.852-0.509-1.304c-0.69-2.038-1.052-4.172-0.997-6.283
					C4.483,18.099,5.087,15.079,6.499,12.962z"/>
				<path fill="#F08747" d="M6.465,13.065c0.12-0.223,0.243-0.422,0.381-0.625c0.317-0.452,0.664-0.846,1.064-1.162
					c0.83-0.663,2.124-0.749,2.821-0.027c0.803,0.836,0.63,2.127,0.513,3.026c-0.364,2.669-0.048,5.692,1.479,8.708
					c0.475,0.916,1.056,1.84,1.666,2.695c0.403,0.563,0.839,1.119,1.294,1.648c1.755,2.053,3.837,3.617,5.798,4.812
					c0.453,0.277,1.244,0.453,2.084,0.636c0.436,0.113,0.888,0.228,1.276,0.391c0.642,0.208,1.15,0.506,1.32,1.007
					c0.579,1.333-3.093,2.024-3.874,2.224c-0.091,0.021-0.192,0.045-0.287,0.058c-1.324,0.259-2.685,0.318-4.013,0.17
					c-1.221-0.133-2.418-0.429-3.546-0.9c-0.963-0.29-1.903-0.715-2.793-1.245c-0.92-0.548-1.787-1.219-2.561-1.981
					c-1.321-1.292-2.363-2.832-3.13-4.573c-0.179-0.42-0.348-0.85-0.494-1.293c-0.69-2.021-1.041-4.129-1.003-6.221
					C4.503,18.178,5.1,15.184,6.465,13.065z"/>
				<path fill="#F08847" d="M6.438,13.161c0.121-0.217,0.248-0.419,0.379-0.617c0.304-0.455,0.646-0.853,1.048-1.171
					c0.815-0.665,2.123-0.755,2.809-0.02c0.796,0.84,0.592,2.158,0.456,3.057c-0.417,2.686-0.126,5.711,1.39,8.724
					c0.472,0.92,1.054,1.838,1.661,2.693c0.411,0.553,0.851,1.102,1.299,1.629c1.759,2.044,3.852,3.587,5.851,4.752
					c0.467,0.263,1.263,0.434,2.117,0.602c0.443,0.102,0.902,0.215,1.311,0.367c0.647,0.208,1.174,0.496,1.341,0.997
					c0.597,1.34-3.093,2.029-3.885,2.22c-0.086,0.015-0.187,0.038-0.28,0.049c-1.328,0.25-2.692,0.297-4.02,0.157
					c-1.238-0.141-2.438-0.452-3.561-0.927c-0.953-0.301-1.883-0.731-2.76-1.259c-0.896-0.556-1.757-1.215-2.529-1.975
					c-1.292-1.283-2.325-2.813-3.068-4.544c-0.185-0.421-0.352-0.838-0.496-1.274c-0.677-2.007-1.026-4.085-0.995-6.16
					C4.543,18.255,5.102,15.269,6.438,13.161z"/>
				<path fill="#F08948" d="M6.419,13.27c0.108-0.224,0.227-0.434,0.362-0.629c0.3-0.453,0.647-0.85,1.041-1.166
					c0.81-0.675,2.109-0.761,2.794-0.012c0.797,0.851,0.563,2.174,0.405,3.083c-0.46,2.706-0.21,5.739,1.293,8.733
					c0.471,0.914,1.048,1.842,1.662,2.683c0.412,0.563,0.839,1.105,1.308,1.63c1.758,2.018,3.87,3.547,5.895,4.683
					c0.465,0.253,1.29,0.404,2.15,0.568c0.451,0.101,0.925,0.21,1.331,0.351c0.666,0.2,1.208,0.482,1.38,0.977
					c0.61,1.347-3.109,2.018-3.896,2.214c-0.092,0.017-0.189,0.034-0.277,0.053c-1.332,0.24-2.708,0.276-4.043,0.121
					c-1.225-0.14-2.428-0.449-3.559-0.942c-0.943-0.303-1.853-0.738-2.715-1.27c-0.899-0.558-1.728-1.224-2.495-1.978
					c-1.281-1.281-2.29-2.796-3.027-4.503c-0.18-0.415-0.335-0.834-0.478-1.26c-0.686-1.981-1.023-4.048-0.998-6.095
					C4.583,18.329,5.102,15.366,6.419,13.27z"/>
				<path fill="#F08A49" d="M6.381,13.36c0.112-0.207,0.238-0.416,0.372-0.619c0.298-0.453,0.645-0.86,1.03-1.173
					c0.794-0.672,2.094-0.758,2.78-0.001c0.77,0.857,0.522,2.193,0.348,3.113c-0.513,2.722-0.291,5.761,1.208,8.75
					c0.46,0.911,1.033,1.836,1.646,2.676c0.415,0.555,0.842,1.095,1.3,1.608c1.784,2.007,3.903,3.525,5.982,4.625
					c0.451,0.247,1.293,0.383,2.167,0.531c0.462,0.096,0.944,0.2,1.354,0.335c0.678,0.192,1.234,0.476,1.409,0.974
					c0.635,1.334-3.132,2.012-3.899,2.186c-0.104,0.019-0.194,0.043-0.287,0.055c-1.333,0.236-2.702,0.274-4.044,0.114
					c-1.222-0.161-2.44-0.478-3.566-0.971c-0.924-0.315-1.823-0.751-2.689-1.286c-0.871-0.563-1.707-1.225-2.445-1.975
					c-1.27-1.269-2.256-2.778-2.981-4.464c-0.175-0.413-0.338-0.825-0.48-1.25c-0.665-1.96-1.009-4.001-0.986-6.03
					C4.621,18.415,5.116,15.472,6.381,13.36z"/>
				<path fill="#F08A4A" d="M6.355,13.467c0.116-0.218,0.235-0.43,0.361-0.625c0.305-0.457,0.631-0.863,1.01-1.178
					c0.811-0.677,2.107-0.759,2.78,0.012c0.769,0.863,0.496,2.211,0.31,3.138c-0.575,2.741-0.39,5.791,1.1,8.767
					c0.455,0.913,1.03,1.825,1.638,2.657c0.411,0.563,0.85,1.1,1.318,1.612c1.77,1.987,3.914,3.486,6.014,4.561
					c0.476,0.227,1.319,0.364,2.213,0.498c0.471,0.095,0.954,0.183,1.383,0.314c0.69,0.177,1.238,0.466,1.436,0.944
					c0.644,1.348-3.145,2.019-3.917,2.194c-0.086,0.02-0.182,0.036-0.283,0.049c-1.343,0.232-2.711,0.264-4.051,0.095
					c-1.23-0.162-2.448-0.483-3.567-0.991c-0.923-0.325-1.811-0.762-2.652-1.298c-0.869-0.563-1.68-1.23-2.431-1.981
					c-1.243-1.267-2.208-2.755-2.934-4.426c-0.168-0.406-0.327-0.82-0.456-1.239c-0.654-1.939-1.004-3.956-1-5.969
					C4.639,18.492,5.125,15.562,6.355,13.467z"/>
				<path fill="#F18B4B" d="M6.319,13.568c0.114-0.218,0.235-0.422,0.362-0.625c0.303-0.458,0.624-0.87,1.007-1.188
					c0.798-0.672,2.1-0.755,2.764,0.021c0.752,0.877,0.465,2.237,0.249,3.169c-0.62,2.756-0.465,5.815,1.014,8.78
					c0.448,0.918,1.026,1.825,1.632,2.649c0.41,0.554,0.852,1.087,1.301,1.601c1.798,1.968,3.962,3.454,6.089,4.49
					c0.473,0.231,1.343,0.348,2.247,0.472c0.475,0.081,0.972,0.174,1.405,0.302c0.71,0.167,1.274,0.447,1.472,0.931
					c0.652,1.341-3.153,2.012-3.926,2.171c-0.099,0.016-0.189,0.041-0.283,0.055c-1.342,0.228-2.724,0.244-4.071,0.064
					c-1.23-0.162-2.441-0.494-3.578-1.002c-0.896-0.333-1.782-0.774-2.6-1.315c-0.848-0.569-1.663-1.229-2.392-1.975
					c-1.222-1.264-2.188-2.743-2.885-4.396c-0.166-0.402-0.321-0.808-0.459-1.232c-0.65-1.909-0.997-3.9-0.991-5.895
					C4.673,18.565,5.13,15.662,6.319,13.568z"/>
				<path fill="#F18C4B" d="M6.307,13.67c0.093-0.216,0.212-0.427,0.335-0.63c0.297-0.46,0.623-0.865,1-1.184
					c0.79-0.674,2.089-0.758,2.753,0.023c0.743,0.889,0.434,2.266,0.206,3.207c-0.683,2.766-0.556,5.828,0.906,8.788
					c0.445,0.92,1.021,1.831,1.626,2.646c0.411,0.557,0.857,1.086,1.322,1.588c1.79,1.952,3.962,3.429,6.131,4.419
					c0.484,0.233,1.367,0.334,2.277,0.446c0.491,0.078,0.985,0.161,1.433,0.281c0.713,0.167,1.302,0.435,1.5,0.92
					c0.681,1.341-3.165,2.009-3.931,2.158c-0.103,0.025-0.196,0.037-0.288,0.054c-1.349,0.222-2.725,0.242-4.076,0.048
					c-1.237-0.167-2.447-0.514-3.579-1.024c-0.9-0.335-1.754-0.793-2.578-1.337c-0.843-0.556-1.632-1.22-2.346-1.97
					c-1.223-1.256-2.157-2.72-2.843-4.355c-0.167-0.399-0.319-0.803-0.462-1.215c-0.633-1.893-0.965-3.863-0.979-5.832
					C4.708,18.646,5.141,15.754,6.307,13.67z"/>
				<path fill="#F18D4C" d="M6.266,13.772c0.108-0.217,0.226-0.429,0.35-0.634c0.28-0.456,0.606-0.867,0.982-1.183
					c0.79-0.69,2.078-0.757,2.728,0.03c0.755,0.899,0.41,2.287,0.168,3.229c-0.726,2.786-0.638,5.855,0.81,8.814
					c0.441,0.905,1.016,1.821,1.63,2.634c0.404,0.554,0.84,1.074,1.323,1.583c1.786,1.928,3.975,3.382,6.173,4.354
					c0.493,0.213,1.393,0.307,2.326,0.412c0.491,0.068,1.004,0.14,1.449,0.253c0.723,0.164,1.316,0.424,1.531,0.906
					c0.695,1.351-3.176,2.007-3.94,2.156c-0.092,0.017-0.201,0.033-0.292,0.053c-1.348,0.204-2.725,0.222-4.091,0.027
					c-1.232-0.176-2.44-0.527-3.575-1.042c-0.878-0.358-1.744-0.813-2.529-1.361c-0.847-0.562-1.621-1.224-2.327-1.958
					c-1.197-1.256-2.113-2.712-2.791-4.327c-0.169-0.396-0.309-0.796-0.446-1.205c-0.628-1.863-0.968-3.815-0.982-5.765
					C4.746,18.731,5.146,15.848,6.266,13.772z"/>
				<path fill="#F18E4D" d="M6.242,13.883c0.103-0.228,0.218-0.442,0.34-0.636c0.27-0.465,0.611-0.871,0.976-1.206
					c0.791-0.669,2.085-0.754,2.719,0.054c0.732,0.907,0.363,2.306,0.109,3.254c-0.786,2.81-0.724,5.883,0.717,8.832
					c0.438,0.913,1.009,1.814,1.615,2.618c0.412,0.551,0.862,1.075,1.323,1.563c1.803,1.928,4.017,3.367,6.25,4.3
					c0.487,0.211,1.4,0.286,2.339,0.378c0.506,0.059,1.023,0.131,1.477,0.242c0.743,0.155,1.352,0.415,1.572,0.888
					c0.709,1.347-3.197,1.999-3.954,2.145c-0.095,0.012-0.193,0.029-0.301,0.048c-1.342,0.203-2.729,0.212-4.084,0.007
					c-1.25-0.184-2.451-0.533-3.588-1.065c-0.874-0.359-1.714-0.822-2.512-1.369c-0.823-0.567-1.585-1.227-2.272-1.969
					c-1.177-1.244-2.081-2.68-2.749-4.281c-0.157-0.386-0.307-0.79-0.438-1.187c-0.621-1.852-0.97-3.775-0.984-5.712
					C4.772,18.8,5.159,15.949,6.242,13.883z"/>
				<path fill="#F18F4E" d="M6.213,13.977c0.108-0.222,0.211-0.432,0.338-0.64c0.273-0.462,0.598-0.873,0.966-1.196
					c0.779-0.688,2.066-0.755,2.705,0.057c0.719,0.919,0.339,2.333,0.053,3.283c-0.82,2.826-0.802,5.905,0.623,8.851
					c0.445,0.902,0.997,1.804,1.617,2.608c0.412,0.539,0.851,1.065,1.318,1.565c1.821,1.9,4.038,3.329,6.308,4.226
					c0.499,0.2,1.417,0.261,2.38,0.349c0.511,0.054,1.039,0.116,1.504,0.213c0.741,0.154,1.363,0.406,1.592,0.881
					c0.722,1.348-3.204,1.994-3.966,2.133c-0.095,0.017-0.191,0.031-0.277,0.043c-1.366,0.2-2.77,0.201-4.116-0.005
					c-1.247-0.194-2.466-0.555-3.593-1.095c-0.869-0.36-1.697-0.833-2.465-1.381c-0.813-0.57-1.563-1.232-2.254-1.959
					c-1.141-1.241-2.037-2.671-2.677-4.254c-0.172-0.388-0.324-0.783-0.446-1.172c-0.604-1.833-0.936-3.729-0.98-5.646
					C4.81,18.88,5.154,16.046,6.213,13.977z"/>
				<path fill="#F1904F" d="M6.182,14.078c0.105-0.223,0.213-0.432,0.324-0.637c0.283-0.467,0.607-0.881,0.965-1.203
					c0.771-0.682,2.061-0.76,2.692,0.067c0.712,0.929,0.305,2.354,0.012,3.31c-0.884,2.84-0.887,5.931,0.524,8.866
					c0.425,0.905,0.997,1.8,1.597,2.606c0.427,0.537,0.863,1.055,1.334,1.542c1.823,1.885,4.059,3.303,6.357,4.162
					c0.508,0.202,1.446,0.25,2.41,0.318c0.524,0.053,1.058,0.109,1.533,0.205c0.762,0.144,1.388,0.384,1.627,0.858
					c0.743,1.351-3.219,1.984-3.974,2.12c-0.094,0.012-0.193,0.028-0.295,0.041c-1.356,0.206-2.751,0.193-4.112-0.018
					c-1.238-0.198-2.471-0.565-3.599-1.121c-0.853-0.37-1.667-0.835-2.43-1.388c-0.801-0.573-1.543-1.239-2.221-1.962
					C7.803,30.6,6.922,29.194,6.29,27.624c-0.161-0.377-0.302-0.767-0.434-1.159c-0.597-1.807-0.924-3.687-0.966-5.578
					C4.838,18.964,5.165,16.138,6.182,14.078z"/>
				<path fill="#F1904F" d="M6.156,14.183c0.108-0.221,0.208-0.435,0.33-0.643c0.263-0.466,0.588-0.876,0.944-1.202
					c0.761-0.688,2.063-0.764,2.686,0.07c0.705,0.937,0.269,2.377-0.05,3.34c-0.931,2.862-0.969,5.951,0.424,8.882
					c0.427,0.908,0.989,1.795,1.611,2.597c0.412,0.532,0.855,1.047,1.32,1.534c1.824,1.867,4.082,3.263,6.421,4.096
					c0.516,0.183,1.46,0.218,2.447,0.283c0.535,0.044,1.074,0.09,1.548,0.185c0.774,0.138,1.415,0.379,1.666,0.839
					c0.75,1.354-3.24,1.991-3.987,2.12c-0.097,0.017-0.203,0.03-0.298,0.044c-1.356,0.191-2.756,0.171-4.127-0.044
					c-1.241-0.203-2.46-0.582-3.598-1.138c-0.832-0.382-1.637-0.865-2.404-1.41c-0.784-0.578-1.505-1.233-2.169-1.963
					c-1.107-1.228-1.968-2.638-2.593-4.174c-0.167-0.38-0.302-0.756-0.437-1.144c-0.582-1.794-0.908-3.647-0.964-5.527
					C4.864,19.037,5.168,16.23,6.156,14.183z"/>
				<path fill="#F19150" d="M6.131,14.281c0.092-0.224,0.205-0.438,0.33-0.639c0.249-0.47,0.569-0.882,0.925-1.209
					c0.756-0.689,2.057-0.763,2.673,0.081c0.692,0.949,0.244,2.396-0.096,3.369c-0.985,2.877-1.058,5.981,0.327,8.896
					c0.421,0.905,0.988,1.794,1.603,2.583c0.408,0.535,0.855,1.044,1.32,1.531c1.836,1.844,4.113,3.23,6.479,4.032
					c0.527,0.175,1.478,0.202,2.479,0.252c0.536,0.037,1.089,0.075,1.58,0.167c0.784,0.128,1.428,0.36,1.691,0.826
					c0.776,1.352-3.257,1.981-3.999,2.104c-0.101,0.014-0.186,0.025-0.294,0.039c-1.37,0.193-2.763,0.167-4.139-0.063
					c-1.249-0.208-2.461-0.589-3.6-1.159c-0.82-0.388-1.621-0.865-2.366-1.417c-0.768-0.582-1.491-1.243-2.132-1.961
					c-1.106-1.226-1.946-2.618-2.566-4.147c-0.137-0.368-0.275-0.748-0.409-1.135c-0.579-1.767-0.908-3.595-0.969-5.448
					C4.908,19.117,5.168,16.335,6.131,14.281z"/>
				<path fill="#F19251" d="M6.102,14.384c0.1-0.224,0.198-0.436,0.316-0.644c0.256-0.465,0.563-0.881,0.916-1.213
					c0.76-0.688,2.058-0.763,2.664,0.087c0.682,0.958,0.208,2.429-0.139,3.4c-1.05,2.89-1.143,5.999,0.225,8.917
					c0.417,0.894,0.979,1.794,1.594,2.573c0.41,0.533,0.86,1.037,1.333,1.514c1.832,1.836,4.129,3.208,6.529,3.969
					c0.532,0.165,1.505,0.182,2.518,0.224c0.545,0.021,1.102,0.059,1.606,0.144c0.798,0.125,1.446,0.351,1.714,0.823
					c0.795,1.348-3.265,1.965-4.004,2.079c-0.091,0.019-0.192,0.03-0.29,0.044c-1.374,0.181-2.785,0.15-4.151-0.079
					c-1.253-0.219-2.464-0.61-3.606-1.189c-0.818-0.396-1.6-0.881-2.339-1.432c-0.749-0.58-1.471-1.239-2.086-1.959
					c-1.1-1.218-1.913-2.603-2.521-4.113c-0.144-0.367-0.276-0.737-0.41-1.116c-0.563-1.748-0.896-3.552-0.955-5.386
					C4.936,19.201,5.181,16.427,6.102,14.384z"/>
				<path fill="#F29352" d="M6.074,14.486c0.094-0.224,0.202-0.439,0.307-0.643c0.256-0.475,0.567-0.89,0.918-1.213
					c0.745-0.7,2.042-0.769,2.646,0.092c0.668,0.968,0.172,2.451-0.197,3.428c-1.1,2.911-1.225,6.025,0.125,8.931
					c0.42,0.899,0.986,1.779,1.603,2.566c0.396,0.526,0.844,1.028,1.328,1.503c1.841,1.815,4.146,3.177,6.591,3.903
					c0.527,0.163,1.51,0.158,2.541,0.181c0.559,0.027,1.117,0.06,1.637,0.134c0.807,0.121,1.475,0.339,1.745,0.8
					c0.801,1.356-3.286,1.97-4.012,2.082c-0.104,0.013-0.188,0.022-0.292,0.037c-1.383,0.176-2.801,0.143-4.164-0.103
					c-1.254-0.217-2.48-0.612-3.614-1.198c-0.815-0.407-1.577-0.893-2.292-1.454c-0.751-0.583-1.441-1.238-2.058-1.956
					c-1.075-1.218-1.872-2.585-2.467-4.072c-0.151-0.363-0.267-0.733-0.401-1.112c-0.556-1.722-0.894-3.503-0.964-5.317
					C4.977,19.278,5.182,16.524,6.074,14.486z"/>
				<path fill="#F29352" d="M6.048,14.584c-0.854,2.031-1.042,4.772-0.956,6.543c0.084,1.791,0.41,3.544,0.968,5.252
					c0.596,1.89,1.501,3.619,2.804,5.136c1.196,1.386,2.669,2.573,4.288,3.413c2.464,1.281,5.352,1.708,8.081,1.31
					c0.732-0.102,4.85-0.709,4.023-2.07c-0.775-1.283-4.719-0.684-6.011-1.048c-3.123-0.875-6.001-2.793-7.988-5.335
					c-0.609-0.775-1.17-1.662-1.582-2.557c-1.336-2.898-1.18-6.02-0.029-8.944c0.388-0.991,0.9-2.472,0.235-3.456
					c-0.592-0.869-1.893-0.802-2.62-0.106C6.75,13.19,6.355,13.84,6.048,14.584z"/>
			</g>
		</g>
		<path fill="#FFFFFF" d="M30.25,13.881c0.137,2.004-1.371,3.735-3.379,3.88c-2.013,0.142-3.76-1.362-3.899-3.366
			c-0.137-1.997,1.375-3.739,3.389-3.875C28.373,10.378,30.108,11.882,30.25,13.881z"/>
	</g>
</g>
<g>
	<path  fill="#999" d="M64.719,22.752H55.02v-9.81h9.699V22.752z M60.233,28.938H71.17v2.32H57.317v-6.606h2.916V28.938z M61.847,15.24H57.87
		v5.214h3.977V15.24z M73.137,17.14v2.386h-2.695v6.584h-2.917V11.263h2.917v5.877H73.137z"/>
	<path  fill="#999" d="M81.262,25.713c1.569-0.088,3.137-0.199,4.596-0.42l0.221,2.099c-4.287,0.839-8.86,0.839-12.307,0.839l-0.354-2.364
		c1.458,0,3.138,0,4.927-0.044V24.1c-2.121-0.442-3.513-1.812-3.513-3.69c0-2.276,2.055-3.823,4.971-3.823
		c2.917,0,4.972,1.547,4.972,3.823c0,1.878-1.392,3.248-3.513,3.69V25.713z M85.77,15.792H73.794v-2.298h4.552v-2.144h2.917v2.144
		h4.507V15.792z M79.804,22.067c1.326,0,2.21-0.574,2.21-1.657c0-1.039-0.884-1.613-2.21-1.613c-1.325,0-2.209,0.574-2.209,1.613
		C77.595,21.493,78.479,22.067,79.804,22.067z M92.354,21.957h-2.541v9.655h-2.917V11.263h2.917v8.286h2.541V21.957z"/>
	<path  fill="#999" d="M111.261,23.481h-4.331v8.175h-2.895v-8.175h-4.154v8.175h-2.894v-8.175h-4.11v-2.364h12.528
		c0.508-2.718,0.597-4.772,0.619-6.363H95.021V12.39h13.897v1.304c0,1.723,0,4.087-0.574,7.424h2.917V23.481z"/>
	<path  fill="#999" d="M122.811,22.752c-2.231-0.663-3.778-2.01-4.662-3.69c-0.906,2.011-2.519,3.624-4.905,4.397l-1.458-2.276
		c3.292-1.104,4.75-3.689,4.794-6.23h-4.043v-2.342h11.003v2.342h-3.977c0.044,2.32,1.436,4.596,4.64,5.546L122.811,22.752z
		 M128.313,27.679c0,2.475-2.651,3.933-6.871,3.933c-4.242,0-6.894-1.458-6.894-3.933c0-2.497,2.651-3.977,6.894-3.977
		C125.661,23.702,128.313,25.183,128.313,27.679z M125.418,27.679c0-1.171-1.392-1.724-3.977-1.724
		c-2.607,0-3.999,0.553-3.999,1.724c0,1.149,1.392,1.701,3.999,1.701C124.026,29.38,125.418,28.828,125.418,27.679z M130.787,15.947
		v2.386h-2.695v5.016h-2.917V11.263h2.917v4.684H130.787z"/>
	<path  fill="#999" d="M141.652,12.412c0,5.436-3.402,9.103-9.435,10.672l-1.171-2.276c4.529-1.126,7.026-3.38,7.446-6.076h-6.452v-2.32H141.652z
		 M133.742,23.923h13.566v7.711h-2.916v-5.391h-10.65V23.923z M150.004,18.399h-2.695v4.662h-2.916V11.263h2.916v4.75h2.695V18.399z
		"/>
</g>
</svg>
