<svg width="24" height="25" viewBox="0 0 24 25" fill="none" xmlns="http://www.w3.org/2000/svg">
<path d="M20 9.9292H11C9.89543 9.9292 9 10.8246 9 11.9292V20.9292C9 22.0338 9.89543 22.9292 11 22.9292H20C21.1046 22.9292 22 22.0338 22 20.9292V11.9292C22 10.8246 21.1046 9.9292 20 9.9292Z" stroke="white" stroke-width="2" stroke-linecap="round" stroke-linejoin="round"/>
<path d="M5 15.9292H4C3.46957 15.9292 2.96086 15.7185 2.58579 15.3434C2.21071 14.9683 2 14.4596 2 13.9292V4.9292C2 4.39877 2.21071 3.89006 2.58579 3.51499C2.96086 3.13991 3.46957 2.9292 4 2.9292H13C13.5304 2.9292 14.0391 3.13991 14.4142 3.51499C14.7893 3.89006 15 4.39877 15 4.9292V5.9292" stroke="white" stroke-width="2" stroke-linecap="round" stroke-linejoin="round"/>
</svg>
