<svg width="60" height="46" viewBox="0 0 60 46" fill="none" xmlns="http://www.w3.org/2000/svg">
<path d="M60 6.57168V41.3442C60 43.6042 58.17 45.4342 55.91 45.4342H46.3625V22.2542L30 34.5292L13.6375 22.2542V45.4367H4.09C3.55268 45.4367 3.02063 45.3308 2.52425 45.1251C2.02786 44.9194 1.57687 44.6179 1.19705 44.2379C0.817225 43.8578 0.51601 43.4066 0.310616 42.9101C0.105221 42.4136 -0.000327669 41.8815 7.64129e-07 41.3442V6.57168C7.64129e-07 1.51418 5.7725 -1.37332 9.8175 1.66168L13.6375 4.52918L30 16.7992L46.3625 4.52418L50.1825 1.66168C54.225 -1.37082 60 1.51418 60 6.57168Z" fill="#8C8D97"/>
</svg>
